<svg width="43" height="40" viewBox="0 0 43 40" fill="none" xmlns="http://www.w3.org/2000/svg">
<path d="M14.7036 9.45077C17.1874 5.21694 23.3084 5.21695 25.7922 9.45077L32.1041 20.2101C34.6179 24.4952 31.5279 29.8905 26.5598 29.8905H13.936C8.96792 29.8905 5.87785 24.4952 8.3917 20.2101L14.7036 9.45077Z" fill="#FFD100"/>
<path fill-rule="evenodd" clip-rule="evenodd" d="M34.9974 23.4566C39.1891 22.2377 42.2479 18.4205 42.2479 13.9001C42.2479 8.39746 37.7152 3.93665 32.1239 3.93665C29.3232 3.93665 26.7881 5.05589 24.9553 6.86469C26.0837 7.38377 27.0853 8.24581 27.7922 9.4508L34.1041 20.2101C34.7186 21.2576 34.9982 22.3715 34.9974 23.4566Z" fill="#484CE6"/>
</svg>
