<svg width="52" height="53" viewBox="0 0 52 53" fill="none" xmlns="http://www.w3.org/2000/svg">
<path d="M43.0633 21.7486C42.97 21.613 42.8452 21.502 42.6996 21.4251C42.5541 21.3483 42.392 21.3079 42.2274 21.3074C42.0628 21.3077 41.9008 21.348 41.7552 21.4247C41.6096 21.5015 41.4848 21.6124 41.3915 21.748L36.7085 28.543C36.6035 28.6959 36.5421 28.8746 36.5309 29.0597C36.5198 29.2449 36.5593 29.4296 36.6453 29.594C36.7312 29.7584 36.8603 29.8963 37.0187 29.9929C37.1771 30.0894 37.3588 30.141 37.5444 30.1421H40.9515C40.3029 33.5947 38.4399 36.6628 35.634 38.9495C32.828 41.2362 29.3042 42.5465 25.9683 42.5465C21.464 42.5465 16.6802 40.1171 13.7808 36.359C13.7005 36.2502 13.5994 36.1586 13.4832 36.0894C13.3671 36.0202 13.2383 35.9749 13.1044 35.9562C12.9706 35.9374 12.8343 35.9455 12.7036 35.9801C12.5729 36.0147 12.4505 36.075 12.3434 36.1575C12.2363 36.24 12.1468 36.3431 12.0801 36.4606C12.0134 36.5782 11.9708 36.7079 11.9549 36.8421C11.939 36.9763 11.95 37.1124 11.9873 37.2423C12.0247 37.3722 12.0875 37.4933 12.1723 37.5986C15.4924 41.9021 20.7786 44.575 25.9681 44.575C29.7634 44.575 33.7541 43.101 36.917 40.5232C40.2 37.8486 42.3454 34.204 43.0144 30.1421H46.9157C47.1013 30.1411 47.283 30.0896 47.4415 29.9931C47.5999 29.8966 47.729 29.7587 47.815 29.5943C47.9009 29.4299 47.9404 29.2452 47.9293 29.06C47.9181 28.8748 47.8567 28.6962 47.7516 28.5433L43.0633 21.7486ZM39.4781 28.1111L42.2279 24.123L44.9808 28.1111H39.4781Z" fill="url(#paint0_linear)"/>
<path d="M15.3548 24.1912C15.269 24.0267 15.14 23.8887 14.9815 23.792C14.8231 23.6954 14.6413 23.6438 14.4557 23.6429H11.0486C11.6972 20.1902 13.5601 17.1221 16.3661 14.8354C19.1721 12.5488 22.6959 11.2385 26.0318 11.2385C30.5361 11.2385 35.3199 13.6678 38.2193 17.426C38.2995 17.5347 38.4007 17.6264 38.5168 17.6956C38.633 17.7647 38.7617 17.81 38.8956 17.8288C39.0295 17.8476 39.1657 17.8394 39.2964 17.8048C39.4271 17.7703 39.5496 17.7099 39.6566 17.6274C39.7637 17.5449 39.8532 17.4419 39.9199 17.3243C39.9866 17.2068 40.0292 17.0771 40.0452 16.9429C40.0611 16.8086 40.0501 16.6726 40.0127 16.5427C39.9754 16.4128 39.9125 16.2916 39.8277 16.1863C36.5077 11.8828 31.2214 9.20996 26.032 9.20996C22.2366 9.20996 18.2459 10.6839 15.0836 13.2617C11.8 15.9363 9.65463 19.5809 8.98564 23.6429H5.08432C4.89873 23.6439 4.71693 23.6955 4.55846 23.7921C4.39999 23.8886 4.27084 24.0266 4.18489 24.191C4.09895 24.3555 4.05945 24.5403 4.07065 24.7255C4.08185 24.9108 4.14332 25.0894 4.24846 25.2423L8.93679 32.0374C9.03009 32.1729 9.1549 32.2837 9.30049 32.3604C9.44607 32.4371 9.6081 32.4773 9.77264 32.4776C9.93723 32.4772 10.0993 32.437 10.2449 32.3602C10.3905 32.2835 10.5152 32.1726 10.6085 32.037L15.2916 25.2441C15.3966 25.0908 15.4581 24.9119 15.4692 24.7264C15.4804 24.5409 15.4408 24.3559 15.3548 24.1912ZM9.77214 29.6619L7.01929 25.6738H12.5219L9.77214 29.6619Z" fill="url(#paint1_linear)"/>
<path d="M31.6254 35.0412C31.7083 35.0412 31.7754 34.9741 31.7754 34.8912V17.8936C31.7754 17.8107 31.7083 17.7436 31.6254 17.7436H30.5629C30.4801 17.7436 30.4129 17.8107 30.4129 17.8936V32.6314L22.514 17.823C22.488 17.7741 22.4371 17.7436 22.3817 17.7436H21.0004C20.9176 17.7436 20.8504 17.8107 20.8504 17.8936V34.8912C20.8504 34.9741 20.9176 35.0412 21.0004 35.0412H22.0629C22.1458 35.0412 22.2129 34.9741 22.2129 34.8912V20.1534L30.1118 34.9618C30.1379 35.0107 30.1888 35.0412 30.2442 35.0412H31.6254Z" fill="#274FED" stroke="#274FED" stroke-width="0.3" stroke-linecap="round" stroke-linejoin="round"/>
<path d="M19.0004 23.8928H33.8754V24.9553H19.0004V23.8928Z" fill="#274FED" stroke="#274FED" stroke-width="0.5" stroke-linejoin="round"/>
<path d="M19.0317 27.4861H33.9067V28.5486H19.0317V27.4861Z" fill="#274FED" stroke="#274FED" stroke-width="0.5" stroke-linejoin="round"/>
<defs>
<linearGradient id="paint0_linear" x1="10621.9" y1="812.406" x2="10621.9" y2="11163.7" gradientUnits="userSpaceOnUse">
<stop stop-color="#274FED"/>
<stop offset="1" stop-color="#00ACEA"/>
</linearGradient>
<linearGradient id="paint1_linear" x1="7817.62" y1="800.309" x2="7817.62" y2="11151.7" gradientUnits="userSpaceOnUse">
<stop stop-color="#274FED"/>
<stop offset="1" stop-color="#00ACEA"/>
</linearGradient>
</defs>
</svg>
