<svg width="35" height="35" viewBox="0 0 35 35" fill="none" xmlns="http://www.w3.org/2000/svg">
<path d="M3.81959 15.3049C3.67493 15.3072 3.53707 15.3667 3.43617 15.4704C3.33528 15.574 3.27958 15.7136 3.28126 15.8582V31.7774C3.28126 32.9575 4.27681 33.9051 5.46876 33.9051H28.4375C29.6294 33.9051 30.625 32.9575 30.625 31.7774V15.8582C30.626 15.7858 30.6126 15.7137 30.5856 15.6465C30.5586 15.5792 30.5185 15.5181 30.4676 15.4665C30.4167 15.4149 30.3561 15.3739 30.2892 15.3459C30.2224 15.318 30.1506 15.3035 30.0781 15.3035C30.0057 15.3035 29.9339 15.318 29.867 15.3459C29.8002 15.3739 29.7396 15.4149 29.6887 15.4665C29.6378 15.5181 29.5977 15.5792 29.5706 15.6465C29.5436 15.7137 29.5302 15.7858 29.5313 15.8582V31.7774C29.5313 32.3478 29.0634 32.8113 28.4375 32.8113H5.46876C4.84285 32.8113 4.37501 32.3478 4.37501 31.7774V15.8582C4.37586 15.7851 4.36205 15.7126 4.33441 15.645C4.30677 15.5773 4.26586 15.5159 4.21408 15.4644C4.16231 15.4128 4.10072 15.3721 4.03297 15.3447C3.96521 15.3174 3.89265 15.3038 3.81959 15.3049Z" fill="#274FED" stroke="#274FED" stroke-width="0.5"/>
<path d="M3.82812 8.6231C2.92867 8.6231 2.1875 9.36423 2.1875 10.2637V14.6387C2.1875 15.5382 2.92867 16.2794 3.82812 16.2794H15.7867C15.8592 16.2804 15.9312 16.267 15.9984 16.24C16.0657 16.2129 16.1269 16.1728 16.1785 16.1219C16.2301 16.0711 16.2711 16.0104 16.299 15.9436C16.327 15.8767 16.3414 15.805 16.3414 15.7325C16.3414 15.66 16.327 15.5882 16.299 15.5214C16.2711 15.4545 16.2301 15.3939 16.1785 15.343C16.1269 15.2921 16.0657 15.252 15.9984 15.225C15.9312 15.198 15.8592 15.1846 15.7867 15.1856H3.82812C3.51568 15.1856 3.28125 14.9511 3.28125 14.6387V10.2637C3.28125 9.95135 3.51568 9.71685 3.82812 9.71685H12.2556C12.328 9.71788 12.4 9.70449 12.4672 9.67746C12.5345 9.65044 12.5957 9.61032 12.6473 9.55944C12.6989 9.50855 12.7399 9.44792 12.7678 9.38106C12.7958 9.3142 12.8102 9.24245 12.8102 9.16998C12.8102 9.0975 12.7958 9.02575 12.7678 8.95889C12.7399 8.89203 12.6989 8.8314 12.6473 8.78052C12.5957 8.72963 12.5345 8.68951 12.4672 8.66249C12.4 8.63547 12.328 8.62208 12.2556 8.6231H3.82812ZM21.0889 8.6231C21.0164 8.62208 20.9445 8.63547 20.8772 8.66249C20.81 8.68951 20.7487 8.72963 20.6971 8.78052C20.6455 8.8314 20.6045 8.89203 20.5766 8.95889C20.5486 9.02575 20.5342 9.0975 20.5342 9.16998C20.5342 9.24245 20.5486 9.3142 20.5766 9.38106C20.6045 9.44792 20.6455 9.50855 20.6971 9.55944C20.7487 9.61032 20.81 9.65044 20.8772 9.67746C20.9445 9.70449 21.0164 9.71788 21.0889 9.71685H30.0781C30.3906 9.71685 30.625 9.95135 30.625 10.2637V14.6387C30.625 14.9511 30.3906 15.1856 30.0781 15.1856H18.1195C18.047 15.1846 17.9751 15.198 17.9078 15.225C17.8406 15.252 17.7794 15.2921 17.7278 15.343C17.6762 15.3939 17.6352 15.4545 17.6072 15.5214C17.5792 15.5882 17.5648 15.66 17.5648 15.7325C17.5648 15.805 17.5792 15.8767 17.6072 15.9436C17.6352 16.0104 17.6762 16.0711 17.7278 16.1219C17.7794 16.1728 17.8406 16.2129 17.9078 16.24C17.9751 16.267 18.047 16.2804 18.1195 16.2794H30.0781C30.9776 16.2794 31.7188 15.5382 31.7188 14.6387V10.2637C31.7188 9.36423 30.9776 8.6231 30.0781 8.6231H21.0889Z" fill="#274FED" stroke="#274FED" stroke-width="0.5"/>
<path fill-rule="evenodd" clip-rule="evenodd" d="M15.3125 8.73389V9.28076V33.9051H18.5938V8.73389H15.3125ZM16.4062 9.82764H17.5V32.8113H16.4062V9.82764Z" fill="#274FED" stroke="#274FED" stroke-width="0.5"/>
<path d="M15.9491 8.74902C14.1038 8.74902 12.5875 9.95914 12.0312 11.6158L11.8795 11.4065C11.8342 11.3443 11.7762 11.2923 11.7094 11.254C11.6426 11.2157 11.5684 11.192 11.4918 11.1843C11.4151 11.1767 11.3378 11.1854 11.2647 11.2097C11.1916 11.234 11.1245 11.2735 11.0678 11.3256L10.9182 11.4623C11.1038 10.8325 11.3701 10.2401 11.7621 9.72982C11.8063 9.67291 11.8389 9.60776 11.8579 9.53823C11.8769 9.46869 11.882 9.39611 11.8728 9.3246C11.8637 9.2531 11.8405 9.18404 11.8045 9.12153C11.7686 9.05902 11.7207 9.0043 11.6636 8.96038C11.6064 8.91645 11.5411 8.88419 11.4715 8.86558C11.4019 8.84697 11.3292 8.8424 11.2578 8.85196C11.1863 8.86152 11.1175 8.88513 11.0552 8.92139C10.9929 8.95765 10.9383 9.00578 10.8947 9.06318C10.0702 10.1365 9.57881 11.4818 9.57883 12.9319C9.57914 13.0379 9.61025 13.1415 9.66837 13.2302C9.7265 13.3188 9.80913 13.3887 9.90622 13.4312C10.0033 13.4738 10.1107 13.4872 10.2153 13.4698C10.3198 13.4525 10.4171 13.4051 10.4953 13.3335L11.3562 12.5452L11.871 13.2525C11.9389 13.3457 12.0345 13.415 12.1442 13.4506C12.2539 13.4862 12.372 13.4863 12.4817 13.4507C12.5914 13.4152 12.6871 13.3459 12.7551 13.2527C12.823 13.1595 12.8598 13.0472 12.8601 12.9319C12.8601 11.2033 14.2204 9.84291 15.9491 9.84291C16.0215 9.84393 16.0935 9.83054 16.1607 9.80352C16.228 9.7765 16.2892 9.73638 16.3408 9.68549C16.3924 9.63461 16.4334 9.57398 16.4614 9.50712C16.4893 9.44026 16.5037 9.36851 16.5037 9.29603C16.5037 9.22356 16.4893 9.15181 16.4614 9.08495C16.4334 9.01809 16.3924 8.95745 16.3408 8.90657C16.2892 8.85569 16.228 8.81557 16.1607 8.78854C16.0935 8.76152 16.0215 8.74813 15.9491 8.74916V8.74902Z" fill="#274FED" stroke="#274FED" stroke-width="0.5"/>
<path d="M21.9542 8.59734C21.8498 8.59956 21.7482 8.63162 21.6614 8.68973C21.5747 8.74785 21.5064 8.82968 21.4646 8.92539C21.4228 9.02109 21.4093 9.12666 21.4256 9.2298C21.442 9.33294 21.4875 9.42929 21.5569 9.50738C22.0322 10.0623 22.3428 10.7322 22.5566 11.4471L22.5395 11.4317C22.4862 11.3831 22.4238 11.3455 22.3559 11.321C22.288 11.2966 22.2159 11.2858 22.1438 11.2894C22.0717 11.293 22.0011 11.3107 21.9359 11.3417C21.8707 11.3727 21.8123 11.4164 21.7641 11.47L21.4992 11.7648C20.9877 10.0339 19.4518 8.74848 17.5536 8.74848C17.4811 8.74746 17.4092 8.76084 17.3419 8.78787C17.2747 8.81489 17.2134 8.85501 17.1618 8.90589C17.1102 8.95678 17.0692 9.01741 17.0413 9.08427C17.0133 9.15113 16.9989 9.22288 16.9989 9.29536C16.9989 9.36783 17.0133 9.43958 17.0413 9.50644C17.0692 9.5733 17.1102 9.63393 17.1618 9.68482C17.2134 9.7357 17.2747 9.77582 17.3419 9.80284C17.4092 9.82987 17.4811 9.84326 17.5536 9.84223C19.2822 9.84223 20.6404 11.2023 20.6404 12.9312C20.6407 13.0416 20.6744 13.1493 20.737 13.2402C20.7997 13.3311 20.8884 13.4009 20.9915 13.4404C21.0946 13.48 21.2073 13.4874 21.3147 13.4617C21.4221 13.436 21.5192 13.3784 21.5932 13.2965L22.2105 12.6108L23.0074 13.335C23.0857 13.406 23.183 13.4528 23.2874 13.4697C23.3919 13.4866 23.4989 13.4729 23.5957 13.4302C23.6925 13.3874 23.7748 13.3175 23.8326 13.229C23.8905 13.1404 23.9214 13.037 23.9217 12.9312C23.9217 11.3581 23.3419 9.90924 22.3879 8.79548C22.3353 8.73177 22.2689 8.68074 22.1938 8.64634C22.1187 8.61194 22.0368 8.59502 21.9542 8.59681L21.9542 8.59734Z" fill="#274FED" stroke="#274FED" stroke-width="0.5"/>
<path d="M12.3773 1.24438C10.018 1.24438 8.00232 3.113 8.00232 5.48053C8.00232 7.84839 10.018 9.71667 12.3773 9.71667H16.7523H21.1273C23.4866 9.71667 25.5023 7.84839 25.5023 5.48053C25.5023 3.113 23.4866 1.24438 21.1273 1.24438H20.7983C18.9438 1.24438 17.5633 2.23202 16.7523 3.45538C15.9409 2.2317 14.5589 1.24438 12.7042 1.24438H12.3773ZM12.3773 2.33813H12.7042C14.3031 2.33813 15.4451 3.19441 16.0367 4.23938C16.1058 4.36144 16.1707 4.51574 16.2567 4.70081C16.3007 4.79512 16.3707 4.87495 16.4585 4.93085C16.5463 4.98676 16.6482 5.01643 16.7523 5.01643C16.8564 5.01643 16.9583 4.98676 17.0461 4.93085C17.1339 4.87495 17.2039 4.79512 17.2479 4.70081C17.3339 4.51574 17.3989 4.36144 17.468 4.23938C18.0598 3.19397 19.1994 2.33813 20.7983 2.33813H21.1273C22.9119 2.33813 24.4086 3.73567 24.4086 5.48053C24.4086 7.22572 22.912 8.62292 21.1273 8.62292H16.7523H12.3773C10.5926 8.62292 9.09607 7.22572 9.09607 5.48053C9.09607 3.73567 10.5927 2.33813 12.3773 2.33813ZM12.3773 3.43188C11.1598 3.43188 10.1898 4.35736 10.1898 5.48053C10.1898 6.60414 11.16 7.52917 12.3773 7.52917H15.2441C15.3287 7.52908 15.412 7.50936 15.4877 7.47163C15.5633 7.4339 15.6292 7.37916 15.6801 7.31168C15.731 7.2442 15.7656 7.1658 15.7812 7.0827C15.7967 6.99961 15.7928 6.91408 15.7697 6.83276C15.5763 6.16229 15.4161 5.36068 15.0861 4.77771C14.8618 4.38166 14.6201 4.01802 14.2209 3.76941C13.8217 3.5208 13.3331 3.43188 12.7042 3.43188H12.3773ZM20.7983 3.43188C20.1694 3.43188 19.6804 3.52047 19.2816 3.76941C18.8828 4.01824 18.6426 4.38199 18.4186 4.77771C18.0885 5.36068 17.9284 6.16229 17.735 6.83276C17.7119 6.91408 17.7079 6.99961 17.7235 7.0827C17.739 7.1658 17.7736 7.2442 17.8245 7.31168C17.8754 7.37916 17.9413 7.4339 18.017 7.47163C18.0926 7.50936 18.176 7.52908 18.2605 7.52917H21.1273C22.3446 7.52917 23.3148 6.60414 23.3148 5.48053C23.3148 4.35736 22.3448 3.43188 21.1273 3.43188H20.7983ZM12.3773 4.52563H12.7042C13.2314 4.52563 13.4851 4.60001 13.6441 4.69867C13.8031 4.7982 13.9355 4.96872 14.1333 5.31818C14.2325 5.49339 14.3682 6.00438 14.4943 6.43542H12.3773C11.6792 6.43542 11.2836 5.99678 11.2836 5.48053C11.2836 4.96515 11.6793 4.52563 12.3773 4.52563ZM20.7983 4.52563H21.1273C21.8253 4.52563 22.2211 4.96515 22.2211 5.48053C22.2211 5.99678 21.8254 6.43542 21.1273 6.43542H19.0103C19.1365 6.00438 19.2721 5.49339 19.3713 5.31818C19.5694 4.96839 19.7022 4.79744 19.8605 4.69867C20.0189 4.60023 20.2711 4.52563 20.7983 4.52563Z" fill="#274FED" stroke="#274FED" stroke-width="0.5"/>
</svg>
