<svg width="24" height="24" viewBox="0 0 24 24" fill="none" xmlns="http://www.w3.org/2000/svg">
<path fill-rule="evenodd" clip-rule="evenodd" d="M21.6 0H2.4C1.08 0 0 1.08 0 2.4V21.6C0 22.92 1.08 24 2.4 24H21.6C22.92 24 24 22.92 24 21.6V2.4C24 1.08 22.92 0 21.6 0ZM11.8 7C14.44 7 16.6 9.16 16.6 11.8C16.6 14.44 14.44 16.6 11.8 16.6C9.16 16.6 7 14.44 7 11.8C7 9.16 9.16 7 11.8 7ZM2.6 21.8C2.24 21.8 2 21.56 2 21.2V11H4.52C4.4 11.36 4.4 11.84 4.4 12.2C4.4 16.16 7.64 19.4 11.6 19.4C15.56 19.4 18.8 16.16 18.8 12.2C18.8 11.84 18.8 11.36 18.68 11H21.2V21.2C21.2 21.56 20.96 21.8 20.6 21.8H2.6ZM21.6 5C21.6 5.36 21.36 5.6 21 5.6H18.6C18.24 5.6 18 5.36 18 5V2.6C18 2.24 18.24 2 18.6 2H21C21.36 2 21.6 2.24 21.6 2.6V5Z" fill="white"/>
</svg>
