<svg width="24" height="24" viewBox="0 0 24 24" fill="none" xmlns="http://www.w3.org/2000/svg">
<path fill-rule="evenodd" clip-rule="evenodd" d="M21.6 0H2.4C1.08 0 0 1.08 0 2.4V21.6C0 22.92 1.08 24 2.4 24H21.6C22.92 24 24 22.92 24 21.6V2.4C24 1.08 22.92 0 21.6 0ZM7.6 20.8H4V10H7.6V20.8ZM5.16 7.32C3.96 7.32 3 6.36 3 5.16C3 3.96 3.96 3 5.16 3C6.36 3 7.32 3.96 7.32 5.16C7.32 6.36 6.36 7.32 5.16 7.32ZM20.8 20.04H17.2V13.68C17.2 12.72 16.36 11.88 15.4 11.88C14.44 11.88 13.6 12.72 13.6 13.68V20.04H10V9.24H13.6V10.68C14.2 9.72 15.52 9 16.6 9C18.88 9 20.8 10.92 20.8 13.2V20.04Z" fill="white"/>
</svg>
