<svg width="150" height="43" viewBox="0 0 150 43" fill="none" xmlns="http://www.w3.org/2000/svg">
<path d="M2 31.9985V10.5527L23.8681 21.0545L42 10V30.8931L23.8681 40.4L2 31.9985Z" fill="#0A1F73"/>
<path d="M23.8681 21.0545L2 10.5527V31.9985L23.8681 40.4M23.8681 21.0545V40.4M23.8681 21.0545L42 10V30.8931L23.8681 40.4" stroke="#000D43" stroke-width="4"/>
<path d="M4 14V31.2L22 38V22.8L4 14Z" fill="#ECF0FF"/>
<path d="M39.6 14L40 30L25.2 37.6V22.8L39.6 14Z" fill="#ECF0FF"/>
<path d="M69.5904 19.2104L69.5736 20H64.2312L64.1304 19.4624C64.4552 19.2496 64.9312 19.02 65.5584 18.7736L65.508 14.2544L65.7432 11.3816L62.6352 19.7312L60.7032 20.1176L57.5784 11.4656L57.8472 14.2544L57.7632 18.9248L59.1744 19.2104L59.1576 20H54.5208L54.42 19.4624C54.7896 19.2384 55.288 18.9976 55.9152 18.74L56.1504 10.1552L54.7728 9.8696L54.7896 9.08H59.2248L59.208 9.0968L62.1816 17.3792L65.2224 9.08H69.1368L69.2376 9.6176C68.8792 9.8416 68.42 10.0656 67.86 10.2896L68.0112 18.8912L69.5904 19.2104ZM81.4944 16.6568C81.5168 17.7544 81.4496 18.8688 81.2928 20H72.5064L72.4056 19.4624C72.7304 19.2496 73.2064 19.02 73.8336 18.7736V9.9536L72.5904 9.8024L72.6072 8.9456H81.3768C81.4328 9.864 81.3432 10.928 81.108 12.1376H79.6968L79.4112 10.4744L76.3872 10.256V13.868L79.9992 13.5824V15.2792L76.3872 15.128V18.6056L79.5288 18.3872L80.0832 16.556L81.4944 16.6568ZM97.1551 9.4832C96.8079 9.696 96.3543 9.92 95.7943 10.1552L95.7271 20L93.3583 20.2184L88.0495 12.0704L88.3015 14.1368V18.9248L89.7799 19.1432L89.7631 20H85.1431L85.0423 19.4624C85.3671 19.2496 85.8431 19.02 86.4703 18.7736V9.9872L85.2943 9.8024L85.3111 8.9456H89.0407L89.0239 8.9624L94.2151 17.0768L93.9631 14.9432V10.0376L92.3335 9.8024L92.3503 8.9456H97.0543L97.1551 9.4832ZM110.06 8.8448L110.077 9.332C110.077 10.4856 109.981 11.5048 109.791 12.3896H108.447L108.195 10.2728L106.078 10.1048V18.8912L107.792 19.1432L107.775 20H101.912L101.811 19.4624C102.057 19.3056 102.629 19.0536 103.525 18.7064V10.1048L101.391 10.2728L101.139 12.3896H99.7951C99.6047 11.5048 99.5095 10.4856 99.5095 9.332L99.5263 8.8448L104.818 8.912L110.06 8.8448ZM117.918 8.6096C119.52 8.6096 120.836 9.1696 121.866 10.2896C122.897 11.3984 123.412 12.8432 123.412 14.624C123.412 16.3376 122.908 17.7208 121.9 18.7736C120.903 19.8152 119.621 20.336 118.053 20.336C116.44 20.336 115.118 19.804 114.088 18.74C113.058 17.676 112.542 16.276 112.542 14.54C112.542 12.7928 113.046 11.3704 114.054 10.2728C115.074 9.164 116.362 8.6096 117.918 8.6096ZM116.474 10.3232C116.104 10.6368 115.802 11.1464 115.566 11.852C115.342 12.5576 115.23 13.3528 115.23 14.2376C115.23 15.5928 115.499 16.7016 116.037 17.564C116.574 18.4264 117.342 18.8576 118.338 18.8576C118.596 18.8576 118.915 18.8072 119.296 18.7064C119.722 18.3704 120.063 17.8384 120.321 17.1104C120.578 16.3824 120.707 15.5704 120.707 14.6744C120.707 13.3192 120.433 12.216 119.884 11.3648C119.335 10.5136 118.607 10.088 117.7 10.088C117.319 10.088 116.91 10.1664 116.474 10.3232ZM137.386 19.1432L137.369 20H134.009L131.725 15.716L130.33 15.7328V18.9248L131.842 19.1432L131.825 20H126.449L126.349 19.4624C126.673 19.2496 127.149 19.02 127.777 18.7736V9.9536L126.533 9.8024L126.55 8.9456L131.909 8.8112C133.197 8.8112 134.25 9.136 135.068 9.7856C135.897 10.4352 136.311 11.2472 136.311 12.2216C136.311 12.8824 136.109 13.4984 135.706 14.0696C135.303 14.6296 134.754 15.0552 134.06 15.3464L136.311 19.0088L137.386 19.1432ZM130.33 14.3216C130.711 14.4 131.075 14.4392 131.422 14.4392C132.217 14.4392 132.789 14.2376 133.136 13.8344C133.494 13.4312 133.673 12.9104 133.673 12.272C133.673 11.2864 133.337 10.5696 132.665 10.1216L130.33 10.3736V14.3216ZM148.867 16.9592C148.867 17.956 148.47 18.768 147.674 19.3952C146.89 20.0224 145.899 20.336 144.701 20.336C144.051 20.336 143.346 20.2352 142.584 20.0336C141.822 19.8432 141.195 19.5856 140.702 19.2608L140.686 18.7904C140.686 17.8608 140.775 16.976 140.954 16.136H142.164L142.987 18.488C143.693 18.8128 144.499 18.9752 145.406 18.9752C146.022 18.684 146.33 18.2136 146.33 17.564C146.33 16.9704 145.966 16.472 145.238 16.0688L142.718 14.792C141.386 14.0304 140.719 13.0728 140.719 11.9192C140.719 10.9448 141.122 10.1496 141.929 9.5336C142.735 8.9176 143.771 8.6096 145.037 8.6096C146.157 8.6096 147.266 8.8112 148.363 9.2144C148.363 10.4016 148.268 11.4264 148.078 12.2888H146.734L146.246 10.4072C145.597 10.0712 144.818 9.9144 143.911 9.9368C143.396 10.2616 143.138 10.7152 143.138 11.2976C143.138 11.6336 143.284 11.9416 143.575 12.2216C143.878 12.4904 144.482 12.832 145.39 13.2464C146.308 13.6608 146.98 14.0192 147.406 14.3216C147.842 14.6128 148.195 14.9768 148.464 15.4136C148.733 15.8392 148.867 16.3544 148.867 16.9592Z" fill="white"/>
<path d="M60.72 38.252C59.0512 38.252 57.6288 37.6864 56.4528 36.5552C55.288 35.424 54.7056 33.9232 54.7056 32.0528C54.7056 30.1936 55.2992 28.6928 56.4864 27.5504C57.6736 26.408 59.0792 25.8368 60.7032 25.8368C62.1368 25.8368 63.3128 26.2008 64.2312 26.9288C65.1608 27.6568 65.7712 28.5808 66.0624 29.7008L64.164 30.3392C63.9736 29.5664 63.5872 28.9392 63.0048 28.4576C62.4224 27.976 61.6552 27.7352 60.7032 27.7352C59.6392 27.7352 58.7152 28.116 57.9312 28.8776C57.1584 29.628 56.772 30.6864 56.772 32.0528C56.772 33.3856 57.1584 34.4328 57.9312 35.1944C58.704 35.9448 59.6336 36.32 60.72 36.32C61.6496 36.32 62.4168 36.068 63.0216 35.564C63.6264 35.06 64.0408 34.4384 64.2648 33.6992L66.1128 34.304C65.8216 35.4128 65.2056 36.348 64.2648 37.1096C63.3352 37.8712 62.1536 38.252 60.72 38.252ZM70.9215 35.816C71.3695 36.2752 71.9127 36.5048 72.5511 36.5048C73.1895 36.5048 73.7271 36.2752 74.1639 35.816C74.6119 35.3568 74.8359 34.7184 74.8359 33.9008C74.8359 33.0944 74.6119 32.4672 74.1639 32.0192C73.7271 31.56 73.1895 31.3304 72.5511 31.3304C71.9127 31.3304 71.3695 31.56 70.9215 32.0192C70.4847 32.4672 70.2663 33.0944 70.2663 33.9008C70.2663 34.7072 70.4847 35.3456 70.9215 35.816ZM72.5511 29.5664C73.7831 29.5664 74.7967 29.9752 75.5919 30.7928C76.3983 31.6104 76.8015 32.6464 76.8015 33.9008C76.8015 35.1552 76.3983 36.1968 75.5919 37.0256C74.7967 37.8432 73.7831 38.252 72.5511 38.252C71.3303 38.252 70.3167 37.8432 69.5103 37.0256C68.7151 36.1968 68.3175 35.1552 68.3175 33.9008C68.3175 32.6464 68.7151 31.6104 69.5103 30.7928C70.3167 29.9752 71.3303 29.5664 72.5511 29.5664ZM87.0908 29.8184L83.882 38H81.9332L78.6068 29.8184H80.7572L82.9244 35.6648L85.0412 29.8184H87.0908ZM90.9 33.0104H94.9152C94.8928 32.4952 94.708 32.064 94.3608 31.7168C94.0248 31.3696 93.5376 31.196 92.8992 31.196C92.3168 31.196 91.8464 31.3808 91.488 31.7504C91.1296 32.1088 90.9336 32.5288 90.9 33.0104ZM95.1336 35.144L96.78 35.6648C96.5448 36.4152 96.1024 37.0368 95.4528 37.5296C94.8144 38.0112 94.0248 38.252 93.084 38.252C91.9192 38.252 90.928 37.8544 90.1104 37.0592C89.304 36.264 88.9008 35.2 88.9008 33.8672C88.9008 32.6128 89.2928 31.5824 90.0768 30.776C90.872 29.9696 91.8072 29.5664 92.8824 29.5664C94.1368 29.5664 95.1168 29.9528 95.8224 30.7256C96.528 31.4872 96.8808 32.5176 96.8808 33.8168C96.8808 34.164 96.864 34.3712 96.8304 34.4384H90.8496C90.872 35.0544 91.096 35.564 91.5216 35.9672C91.9584 36.3704 92.4792 36.572 93.084 36.572C94.1368 36.572 94.82 36.096 95.1336 35.144ZM101.952 33.2792V38H100.003V29.8184H101.902V30.9104C102.159 30.4624 102.501 30.132 102.926 29.9192C103.363 29.6952 103.828 29.5832 104.321 29.5832C105.284 29.5832 106.018 29.8856 106.522 30.4904C107.026 31.0952 107.278 31.8736 107.278 32.8256V38H105.329V33.1616C105.329 32.6128 105.194 32.176 104.926 31.8512C104.657 31.5152 104.231 31.3472 103.649 31.3472C103.111 31.3472 102.691 31.532 102.389 31.9016C102.098 32.26 101.952 32.7192 101.952 33.2792Z" fill="white"/>
</svg>
