<svg width="60" height="36" viewBox="0 0 60 36" fill="none" xmlns="http://www.w3.org/2000/svg">
<mask id="path-1-outside-1" maskUnits="userSpaceOnUse" x="0" y="-0.105225" width="60" height="36" fill="black">
<rect fill="white" y="-0.105225" width="60" height="36"/>
<path d="M58.917 10.3083C58.8221 10.0127 58.6457 9.74979 58.4081 9.54972C58.1705 9.34964 57.8812 9.22049 57.5734 9.17706L53.5414 8.59193C53.5149 8.58543 53.4879 8.58019 53.4605 8.57619L50.5954 8.16036L47.4624 1.82037C47.3216 1.54201 47.1063 1.30811 46.8404 1.14469C46.5745 0.981281 46.2683 0.894767 45.9561 0.894779C45.6438 0.894791 45.3377 0.981327 45.0718 1.14476C44.8059 1.30819 44.5906 1.54211 44.4499 1.82048L41.3169 8.16036L38.4518 8.57619C38.4248 8.58007 38.3981 8.5853 38.3716 8.59187L35.0502 9.07381L31.6535 2.20044C31.4905 1.8705 31.2382 1.5927 30.9253 1.39845C30.6124 1.20421 30.2514 1.10126 29.8829 1.10126C29.5145 1.10126 29.1534 1.20421 28.8405 1.39845C28.5276 1.5927 28.2754 1.8705 28.1123 2.20044L24.7312 9.04231L21.6275 8.59193C21.601 8.58543 21.574 8.58019 21.5466 8.57619L18.6817 8.16036L15.5485 1.82059C15.4078 1.54219 15.1925 1.30824 14.9266 1.14479C14.6607 0.981336 14.3545 0.894787 14.0423 0.894775C13.73 0.894764 13.4239 0.98129 13.1579 1.14472C12.892 1.30816 12.6767 1.54209 12.536 1.82047L9.40292 8.16036L6.53794 8.57619C6.51095 8.58007 6.48418 8.5853 6.45772 8.59187L2.42502 9.17706C2.1177 9.22165 1.829 9.35122 1.59157 9.55112C1.35414 9.75102 1.17744 10.0133 1.08147 10.3082C0.985498 10.6032 0.974074 10.9191 1.04849 11.2202C1.12291 11.5213 1.28019 11.7956 1.50257 12.0121L6.57198 16.9471L5.37517 23.9152C5.32183 24.2211 5.35544 24.5358 5.4722 24.8236C5.58896 25.1113 5.78419 25.3606 6.03571 25.5431C6.28722 25.7256 6.58495 25.834 6.89506 25.856C7.20518 25.878 7.51525 25.8127 7.79006 25.6675L14.0423 22.3847L19.4877 25.2438L18.2269 32.5848C18.1646 32.9474 18.2052 33.3203 18.344 33.6611C18.4828 34.002 18.7143 34.2972 19.0124 34.5135C19.3104 34.7298 19.6631 34.8585 20.0306 34.885C20.3981 34.9115 20.7657 34.8348 21.0918 34.6636L29.7518 30.1167C29.7922 30.0954 29.8372 30.0843 29.883 30.0843C29.9287 30.0843 29.9737 30.0955 30.0141 30.1168L38.6741 34.6636C39.0002 34.8348 39.3677 34.9115 39.7352 34.885C40.1027 34.8585 40.4554 34.7298 40.7535 34.5135C41.0515 34.2972 41.283 34.002 41.4219 33.6612C41.5607 33.3203 41.6012 32.9475 41.5389 32.5849L40.2973 25.3552L45.9562 22.3847L52.2085 25.6675C52.4834 25.8118 52.7932 25.8764 53.103 25.8541C53.4127 25.8317 53.71 25.7232 53.9612 25.5409C54.2124 25.3586 54.4076 25.1097 54.5246 24.8225C54.6415 24.5352 54.6757 24.2209 54.6232 23.9152L53.4266 16.947L58.496 12.012C58.7194 11.7962 58.8774 11.5219 58.9518 11.2206C59.0263 10.9193 59.0142 10.6031 58.917 10.3083ZM19.8808 22.9546L19.7885 23.4921L14.803 20.8747C14.5723 20.754 14.3166 20.689 14.0563 20.6846C14.047 20.6844 14.0376 20.6844 14.0283 20.6846C13.768 20.689 13.5123 20.754 13.2816 20.8745L7.05293 24.1449L8.24259 17.2181C8.28818 16.9525 8.26843 16.6798 8.18503 16.4236C8.10163 16.1673 7.95708 15.9351 7.76384 15.747L2.72483 10.8415L6.78254 10.2526C6.80953 10.2487 6.8363 10.2435 6.86276 10.2369L9.66086 9.8309C9.92793 9.79222 10.1816 9.68923 10.3999 9.53083C10.6182 9.37242 10.7947 9.16336 10.9141 8.92166L14.0423 2.59163L17.1704 8.92149C17.2898 9.16321 17.4662 9.3723 17.6846 9.53073C17.9029 9.68915 18.1565 9.79215 18.4236 9.83085L21.2211 10.2368C21.2477 10.2434 21.2746 10.2487 21.302 10.2526L23.9437 10.6359L23.7824 10.9623C23.7621 11.0033 23.7322 11.0387 23.6953 11.0656C23.6583 11.0924 23.6153 11.1099 23.57 11.1165L13.8879 12.5216C13.5233 12.5745 13.1808 12.7282 12.8991 12.9654C12.6175 13.2025 12.4078 13.5137 12.294 13.8636C12.1801 14.2135 12.1666 14.5883 12.2549 14.9455C12.3432 15.3028 12.5298 15.6282 12.7936 15.885L19.7998 22.7054C19.8325 22.7373 19.857 22.7766 19.8711 22.82C19.8852 22.8634 19.8885 22.9096 19.8808 22.9546ZM39.7586 33.1461C39.7166 33.1783 39.6661 33.1974 39.6133 33.2013C39.5606 33.2051 39.5078 33.1933 39.4617 33.1675L30.8018 28.6208C30.5185 28.4719 30.2031 28.3941 29.8829 28.3941C29.5628 28.394 29.2474 28.4718 28.9641 28.6207L20.3043 33.1675C20.2577 33.192 20.2052 33.2029 20.1527 33.1992C20.1002 33.1954 20.0498 33.177 20.0072 33.1461C19.9646 33.1152 19.9315 33.073 19.9117 33.0243C19.8918 32.9756 19.886 32.9223 19.8949 32.8705L21.5487 23.2404C21.6029 22.9252 21.5796 22.6017 21.4807 22.2976C21.3817 21.9935 21.2102 21.718 20.981 21.4948L13.975 14.6747C13.9373 14.6381 13.9106 14.5916 13.898 14.5405C13.8853 14.4895 13.8873 14.436 13.9035 14.386C13.9198 14.336 13.9497 14.2915 13.99 14.2576C14.0302 14.2237 14.0791 14.2017 14.1312 14.1942L23.8134 12.7891C24.1302 12.7431 24.4311 12.6209 24.69 12.433C24.949 12.2451 25.1584 11.9971 25.3 11.7104L29.63 2.94847C29.6533 2.90134 29.6893 2.86165 29.734 2.83391C29.7787 2.80616 29.8303 2.79145 29.8829 2.79145C29.9356 2.79145 29.9871 2.80616 30.0318 2.83391C30.0765 2.86165 30.1126 2.90134 30.1359 2.94847L34.4657 11.7102C34.6074 11.997 34.8167 12.2451 35.0757 12.433C35.3348 12.621 35.6357 12.7432 35.9525 12.7891L45.6346 14.1942C45.6866 14.2017 45.7356 14.2237 45.7758 14.2576C45.816 14.2915 45.8459 14.3359 45.8622 14.3859C45.8785 14.4359 45.8804 14.4895 45.8678 14.5405C45.8551 14.5915 45.8285 14.638 45.7908 14.6747L38.7848 21.4948C38.5556 21.718 38.3841 21.9935 38.2852 22.2976C38.1863 22.6016 38.1629 22.9252 38.217 23.2403L38.5264 25.0415C38.5268 25.0438 38.5271 25.0461 38.5275 25.0484L39.8709 32.8705C39.8812 32.9224 39.876 32.9761 39.8561 33.0251C39.8361 33.0741 39.8022 33.1161 39.7586 33.1461ZM52.2347 15.747C52.0414 15.935 51.8968 16.1672 51.8135 16.4235C51.7301 16.6798 51.7104 16.9526 51.7561 17.2182L52.9455 24.1449L46.717 20.8747C46.4863 20.754 46.2305 20.689 45.9702 20.6846C45.9609 20.6844 45.9514 20.6844 45.9422 20.6846C45.6819 20.689 45.4262 20.754 45.1956 20.8745L39.9965 23.6037L39.8851 22.9547C39.8773 22.9097 39.8806 22.8634 39.8948 22.82C39.9089 22.7765 39.9334 22.7371 39.9662 22.7053L46.9722 15.885C47.236 15.6282 47.4226 15.3028 47.511 14.9455C47.5993 14.5883 47.5857 14.2135 47.4719 13.8636C47.358 13.5136 47.1484 13.2025 46.8667 12.9653C46.585 12.7282 46.2425 12.5745 45.8778 12.5216L36.1959 11.1165C36.1507 11.11 36.1077 11.0925 36.0707 11.0657C36.0337 11.0388 36.0037 11.0034 35.9835 10.9624L35.8377 10.6674L38.6964 10.2526C38.7234 10.2487 38.7502 10.2435 38.7766 10.2369L41.5747 9.8309C41.8418 9.79222 42.0955 9.68923 42.3138 9.53083C42.5321 9.37242 42.7086 9.16336 42.828 8.92166L45.9562 2.59152L49.0843 8.92149C49.2037 9.16321 49.3801 9.3723 49.5984 9.53073C49.8168 9.68915 50.0704 9.79215 50.3375 9.83085L53.1349 10.2368C53.1616 10.2434 53.1885 10.2487 53.2159 10.2526L57.2738 10.8416L52.2347 15.747Z"/>
</mask>
<path d="M58.917 10.3083C58.8221 10.0127 58.6457 9.74979 58.4081 9.54972C58.1705 9.34964 57.8812 9.22049 57.5734 9.17706L53.5414 8.59193C53.5149 8.58543 53.4879 8.58019 53.4605 8.57619L50.5954 8.16036L47.4624 1.82037C47.3216 1.54201 47.1063 1.30811 46.8404 1.14469C46.5745 0.981281 46.2683 0.894767 45.9561 0.894779C45.6438 0.894791 45.3377 0.981327 45.0718 1.14476C44.8059 1.30819 44.5906 1.54211 44.4499 1.82048L41.3169 8.16036L38.4518 8.57619C38.4248 8.58007 38.3981 8.5853 38.3716 8.59187L35.0502 9.07381L31.6535 2.20044C31.4905 1.8705 31.2382 1.5927 30.9253 1.39845C30.6124 1.20421 30.2514 1.10126 29.8829 1.10126C29.5145 1.10126 29.1534 1.20421 28.8405 1.39845C28.5276 1.5927 28.2754 1.8705 28.1123 2.20044L24.7312 9.04231L21.6275 8.59193C21.601 8.58543 21.574 8.58019 21.5466 8.57619L18.6817 8.16036L15.5485 1.82059C15.4078 1.54219 15.1925 1.30824 14.9266 1.14479C14.6607 0.981336 14.3545 0.894787 14.0423 0.894775C13.73 0.894764 13.4239 0.98129 13.1579 1.14472C12.892 1.30816 12.6767 1.54209 12.536 1.82047L9.40292 8.16036L6.53794 8.57619C6.51095 8.58007 6.48418 8.5853 6.45772 8.59187L2.42502 9.17706C2.1177 9.22165 1.829 9.35122 1.59157 9.55112C1.35414 9.75102 1.17744 10.0133 1.08147 10.3082C0.985498 10.6032 0.974074 10.9191 1.04849 11.2202C1.12291 11.5213 1.28019 11.7956 1.50257 12.0121L6.57198 16.9471L5.37517 23.9152C5.32183 24.2211 5.35544 24.5358 5.4722 24.8236C5.58896 25.1113 5.78419 25.3606 6.03571 25.5431C6.28722 25.7256 6.58495 25.834 6.89506 25.856C7.20518 25.878 7.51525 25.8127 7.79006 25.6675L14.0423 22.3847L19.4877 25.2438L18.2269 32.5848C18.1646 32.9474 18.2052 33.3203 18.344 33.6611C18.4828 34.002 18.7143 34.2972 19.0124 34.5135C19.3104 34.7298 19.6631 34.8585 20.0306 34.885C20.3981 34.9115 20.7657 34.8348 21.0918 34.6636L29.7518 30.1167C29.7922 30.0954 29.8372 30.0843 29.883 30.0843C29.9287 30.0843 29.9737 30.0955 30.0141 30.1168L38.6741 34.6636C39.0002 34.8348 39.3677 34.9115 39.7352 34.885C40.1027 34.8585 40.4554 34.7298 40.7535 34.5135C41.0515 34.2972 41.283 34.002 41.4219 33.6612C41.5607 33.3203 41.6012 32.9475 41.5389 32.5849L40.2973 25.3552L45.9562 22.3847L52.2085 25.6675C52.4834 25.8118 52.7932 25.8764 53.103 25.8541C53.4127 25.8317 53.71 25.7232 53.9612 25.5409C54.2124 25.3586 54.4076 25.1097 54.5246 24.8225C54.6415 24.5352 54.6757 24.2209 54.6232 23.9152L53.4266 16.947L58.496 12.012C58.7194 11.7962 58.8774 11.5219 58.9518 11.2206C59.0263 10.9193 59.0142 10.6031 58.917 10.3083ZM19.8808 22.9546L19.7885 23.4921L14.803 20.8747C14.5723 20.754 14.3166 20.689 14.0563 20.6846C14.047 20.6844 14.0376 20.6844 14.0283 20.6846C13.768 20.689 13.5123 20.754 13.2816 20.8745L7.05293 24.1449L8.24259 17.2181C8.28818 16.9525 8.26843 16.6798 8.18503 16.4236C8.10163 16.1673 7.95708 15.9351 7.76384 15.747L2.72483 10.8415L6.78254 10.2526C6.80953 10.2487 6.8363 10.2435 6.86276 10.2369L9.66086 9.8309C9.92793 9.79222 10.1816 9.68923 10.3999 9.53083C10.6182 9.37242 10.7947 9.16336 10.9141 8.92166L14.0423 2.59163L17.1704 8.92149C17.2898 9.16321 17.4662 9.3723 17.6846 9.53073C17.9029 9.68915 18.1565 9.79215 18.4236 9.83085L21.2211 10.2368C21.2477 10.2434 21.2746 10.2487 21.302 10.2526L23.9437 10.6359L23.7824 10.9623C23.7621 11.0033 23.7322 11.0387 23.6953 11.0656C23.6583 11.0924 23.6153 11.1099 23.57 11.1165L13.8879 12.5216C13.5233 12.5745 13.1808 12.7282 12.8991 12.9654C12.6175 13.2025 12.4078 13.5137 12.294 13.8636C12.1801 14.2135 12.1666 14.5883 12.2549 14.9455C12.3432 15.3028 12.5298 15.6282 12.7936 15.885L19.7998 22.7054C19.8325 22.7373 19.857 22.7766 19.8711 22.82C19.8852 22.8634 19.8885 22.9096 19.8808 22.9546ZM39.7586 33.1461C39.7166 33.1783 39.6661 33.1974 39.6133 33.2013C39.5606 33.2051 39.5078 33.1933 39.4617 33.1675L30.8018 28.6208C30.5185 28.4719 30.2031 28.3941 29.8829 28.3941C29.5628 28.394 29.2474 28.4718 28.9641 28.6207L20.3043 33.1675C20.2577 33.192 20.2052 33.2029 20.1527 33.1992C20.1002 33.1954 20.0498 33.177 20.0072 33.1461C19.9646 33.1152 19.9315 33.073 19.9117 33.0243C19.8918 32.9756 19.886 32.9223 19.8949 32.8705L21.5487 23.2404C21.6029 22.9252 21.5796 22.6017 21.4807 22.2976C21.3817 21.9935 21.2102 21.718 20.981 21.4948L13.975 14.6747C13.9373 14.6381 13.9106 14.5916 13.898 14.5405C13.8853 14.4895 13.8873 14.436 13.9035 14.386C13.9198 14.336 13.9497 14.2915 13.99 14.2576C14.0302 14.2237 14.0791 14.2017 14.1312 14.1942L23.8134 12.7891C24.1302 12.7431 24.4311 12.6209 24.69 12.433C24.949 12.2451 25.1584 11.9971 25.3 11.7104L29.63 2.94847C29.6533 2.90134 29.6893 2.86165 29.734 2.83391C29.7787 2.80616 29.8303 2.79145 29.8829 2.79145C29.9356 2.79145 29.9871 2.80616 30.0318 2.83391C30.0765 2.86165 30.1126 2.90134 30.1359 2.94847L34.4657 11.7102C34.6074 11.997 34.8167 12.2451 35.0757 12.433C35.3348 12.621 35.6357 12.7432 35.9525 12.7891L45.6346 14.1942C45.6866 14.2017 45.7356 14.2237 45.7758 14.2576C45.816 14.2915 45.8459 14.3359 45.8622 14.3859C45.8785 14.4359 45.8804 14.4895 45.8678 14.5405C45.8551 14.5915 45.8285 14.638 45.7908 14.6747L38.7848 21.4948C38.5556 21.718 38.3841 21.9935 38.2852 22.2976C38.1863 22.6016 38.1629 22.9252 38.217 23.2403L38.5264 25.0415C38.5268 25.0438 38.5271 25.0461 38.5275 25.0484L39.8709 32.8705C39.8812 32.9224 39.876 32.9761 39.8561 33.0251C39.8361 33.0741 39.8022 33.1161 39.7586 33.1461ZM52.2347 15.747C52.0414 15.935 51.8968 16.1672 51.8135 16.4235C51.7301 16.6798 51.7104 16.9526 51.7561 17.2182L52.9455 24.1449L46.717 20.8747C46.4863 20.754 46.2305 20.689 45.9702 20.6846C45.9609 20.6844 45.9514 20.6844 45.9422 20.6846C45.6819 20.689 45.4262 20.754 45.1956 20.8745L39.9965 23.6037L39.8851 22.9547C39.8773 22.9097 39.8806 22.8634 39.8948 22.82C39.9089 22.7765 39.9334 22.7371 39.9662 22.7053L46.9722 15.885C47.236 15.6282 47.4226 15.3028 47.511 14.9455C47.5993 14.5883 47.5857 14.2135 47.4719 13.8636C47.358 13.5136 47.1484 13.2025 46.8667 12.9653C46.585 12.7282 46.2425 12.5745 45.8778 12.5216L36.1959 11.1165C36.1507 11.11 36.1077 11.0925 36.0707 11.0657C36.0337 11.0388 36.0037 11.0034 35.9835 10.9624L35.8377 10.6674L38.6964 10.2526C38.7234 10.2487 38.7502 10.2435 38.7766 10.2369L41.5747 9.8309C41.8418 9.79222 42.0955 9.68923 42.3138 9.53083C42.5321 9.37242 42.7086 9.16336 42.828 8.92166L45.9562 2.59152L49.0843 8.92149C49.2037 9.16321 49.3801 9.3723 49.5984 9.53073C49.8168 9.68915 50.0704 9.79215 50.3375 9.83085L53.1349 10.2368C53.1616 10.2434 53.1885 10.2487 53.2159 10.2526L57.2738 10.8416L52.2347 15.747Z" fill="#274FED"/>
<path d="M58.917 10.3083C58.8221 10.0127 58.6457 9.74979 58.4081 9.54972C58.1705 9.34964 57.8812 9.22049 57.5734 9.17706L53.5414 8.59193C53.5149 8.58543 53.4879 8.58019 53.4605 8.57619L50.5954 8.16036L47.4624 1.82037C47.3216 1.54201 47.1063 1.30811 46.8404 1.14469C46.5745 0.981281 46.2683 0.894767 45.9561 0.894779C45.6438 0.894791 45.3377 0.981327 45.0718 1.14476C44.8059 1.30819 44.5906 1.54211 44.4499 1.82048L41.3169 8.16036L38.4518 8.57619C38.4248 8.58007 38.3981 8.5853 38.3716 8.59187L35.0502 9.07381L31.6535 2.20044C31.4905 1.8705 31.2382 1.5927 30.9253 1.39845C30.6124 1.20421 30.2514 1.10126 29.8829 1.10126C29.5145 1.10126 29.1534 1.20421 28.8405 1.39845C28.5276 1.5927 28.2754 1.8705 28.1123 2.20044L24.7312 9.04231L21.6275 8.59193C21.601 8.58543 21.574 8.58019 21.5466 8.57619L18.6817 8.16036L15.5485 1.82059C15.4078 1.54219 15.1925 1.30824 14.9266 1.14479C14.6607 0.981336 14.3545 0.894787 14.0423 0.894775C13.73 0.894764 13.4239 0.98129 13.1579 1.14472C12.892 1.30816 12.6767 1.54209 12.536 1.82047L9.40292 8.16036L6.53794 8.57619C6.51095 8.58007 6.48418 8.5853 6.45772 8.59187L2.42502 9.17706C2.1177 9.22165 1.829 9.35122 1.59157 9.55112C1.35414 9.75102 1.17744 10.0133 1.08147 10.3082C0.985498 10.6032 0.974074 10.9191 1.04849 11.2202C1.12291 11.5213 1.28019 11.7956 1.50257 12.0121L6.57198 16.9471L5.37517 23.9152C5.32183 24.2211 5.35544 24.5358 5.4722 24.8236C5.58896 25.1113 5.78419 25.3606 6.03571 25.5431C6.28722 25.7256 6.58495 25.834 6.89506 25.856C7.20518 25.878 7.51525 25.8127 7.79006 25.6675L14.0423 22.3847L19.4877 25.2438L18.2269 32.5848C18.1646 32.9474 18.2052 33.3203 18.344 33.6611C18.4828 34.002 18.7143 34.2972 19.0124 34.5135C19.3104 34.7298 19.6631 34.8585 20.0306 34.885C20.3981 34.9115 20.7657 34.8348 21.0918 34.6636L29.7518 30.1167C29.7922 30.0954 29.8372 30.0843 29.883 30.0843C29.9287 30.0843 29.9737 30.0955 30.0141 30.1168L38.6741 34.6636C39.0002 34.8348 39.3677 34.9115 39.7352 34.885C40.1027 34.8585 40.4554 34.7298 40.7535 34.5135C41.0515 34.2972 41.283 34.002 41.4219 33.6612C41.5607 33.3203 41.6012 32.9475 41.5389 32.5849L40.2973 25.3552L45.9562 22.3847L52.2085 25.6675C52.4834 25.8118 52.7932 25.8764 53.103 25.8541C53.4127 25.8317 53.71 25.7232 53.9612 25.5409C54.2124 25.3586 54.4076 25.1097 54.5246 24.8225C54.6415 24.5352 54.6757 24.2209 54.6232 23.9152L53.4266 16.947L58.496 12.012C58.7194 11.7962 58.8774 11.5219 58.9518 11.2206C59.0263 10.9193 59.0142 10.6031 58.917 10.3083ZM19.8808 22.9546L19.7885 23.4921L14.803 20.8747C14.5723 20.754 14.3166 20.689 14.0563 20.6846C14.047 20.6844 14.0376 20.6844 14.0283 20.6846C13.768 20.689 13.5123 20.754 13.2816 20.8745L7.05293 24.1449L8.24259 17.2181C8.28818 16.9525 8.26843 16.6798 8.18503 16.4236C8.10163 16.1673 7.95708 15.9351 7.76384 15.747L2.72483 10.8415L6.78254 10.2526C6.80953 10.2487 6.8363 10.2435 6.86276 10.2369L9.66086 9.8309C9.92793 9.79222 10.1816 9.68923 10.3999 9.53083C10.6182 9.37242 10.7947 9.16336 10.9141 8.92166L14.0423 2.59163L17.1704 8.92149C17.2898 9.16321 17.4662 9.3723 17.6846 9.53073C17.9029 9.68915 18.1565 9.79215 18.4236 9.83085L21.2211 10.2368C21.2477 10.2434 21.2746 10.2487 21.302 10.2526L23.9437 10.6359L23.7824 10.9623C23.7621 11.0033 23.7322 11.0387 23.6953 11.0656C23.6583 11.0924 23.6153 11.1099 23.57 11.1165L13.8879 12.5216C13.5233 12.5745 13.1808 12.7282 12.8991 12.9654C12.6175 13.2025 12.4078 13.5137 12.294 13.8636C12.1801 14.2135 12.1666 14.5883 12.2549 14.9455C12.3432 15.3028 12.5298 15.6282 12.7936 15.885L19.7998 22.7054C19.8325 22.7373 19.857 22.7766 19.8711 22.82C19.8852 22.8634 19.8885 22.9096 19.8808 22.9546ZM39.7586 33.1461C39.7166 33.1783 39.6661 33.1974 39.6133 33.2013C39.5606 33.2051 39.5078 33.1933 39.4617 33.1675L30.8018 28.6208C30.5185 28.4719 30.2031 28.3941 29.8829 28.3941C29.5628 28.394 29.2474 28.4718 28.9641 28.6207L20.3043 33.1675C20.2577 33.192 20.2052 33.2029 20.1527 33.1992C20.1002 33.1954 20.0498 33.177 20.0072 33.1461C19.9646 33.1152 19.9315 33.073 19.9117 33.0243C19.8918 32.9756 19.886 32.9223 19.8949 32.8705L21.5487 23.2404C21.6029 22.9252 21.5796 22.6017 21.4807 22.2976C21.3817 21.9935 21.2102 21.718 20.981 21.4948L13.975 14.6747C13.9373 14.6381 13.9106 14.5916 13.898 14.5405C13.8853 14.4895 13.8873 14.436 13.9035 14.386C13.9198 14.336 13.9497 14.2915 13.99 14.2576C14.0302 14.2237 14.0791 14.2017 14.1312 14.1942L23.8134 12.7891C24.1302 12.7431 24.4311 12.6209 24.69 12.433C24.949 12.2451 25.1584 11.9971 25.3 11.7104L29.63 2.94847C29.6533 2.90134 29.6893 2.86165 29.734 2.83391C29.7787 2.80616 29.8303 2.79145 29.8829 2.79145C29.9356 2.79145 29.9871 2.80616 30.0318 2.83391C30.0765 2.86165 30.1126 2.90134 30.1359 2.94847L34.4657 11.7102C34.6074 11.997 34.8167 12.2451 35.0757 12.433C35.3348 12.621 35.6357 12.7432 35.9525 12.7891L45.6346 14.1942C45.6866 14.2017 45.7356 14.2237 45.7758 14.2576C45.816 14.2915 45.8459 14.3359 45.8622 14.3859C45.8785 14.4359 45.8804 14.4895 45.8678 14.5405C45.8551 14.5915 45.8285 14.638 45.7908 14.6747L38.7848 21.4948C38.5556 21.718 38.3841 21.9935 38.2852 22.2976C38.1863 22.6016 38.1629 22.9252 38.217 23.2403L38.5264 25.0415C38.5268 25.0438 38.5271 25.0461 38.5275 25.0484L39.8709 32.8705C39.8812 32.9224 39.876 32.9761 39.8561 33.0251C39.8361 33.0741 39.8022 33.1161 39.7586 33.1461ZM52.2347 15.747C52.0414 15.935 51.8968 16.1672 51.8135 16.4235C51.7301 16.6798 51.7104 16.9526 51.7561 17.2182L52.9455 24.1449L46.717 20.8747C46.4863 20.754 46.2305 20.689 45.9702 20.6846C45.9609 20.6844 45.9514 20.6844 45.9422 20.6846C45.6819 20.689 45.4262 20.754 45.1956 20.8745L39.9965 23.6037L39.8851 22.9547C39.8773 22.9097 39.8806 22.8634 39.8948 22.82C39.9089 22.7765 39.9334 22.7371 39.9662 22.7053L46.9722 15.885C47.236 15.6282 47.4226 15.3028 47.511 14.9455C47.5993 14.5883 47.5857 14.2135 47.4719 13.8636C47.358 13.5136 47.1484 13.2025 46.8667 12.9653C46.585 12.7282 46.2425 12.5745 45.8778 12.5216L36.1959 11.1165C36.1507 11.11 36.1077 11.0925 36.0707 11.0657C36.0337 11.0388 36.0037 11.0034 35.9835 10.9624L35.8377 10.6674L38.6964 10.2526C38.7234 10.2487 38.7502 10.2435 38.7766 10.2369L41.5747 9.8309C41.8418 9.79222 42.0955 9.68923 42.3138 9.53083C42.5321 9.37242 42.7086 9.16336 42.828 8.92166L45.9562 2.59152L49.0843 8.92149C49.2037 9.16321 49.3801 9.3723 49.5984 9.53073C49.8168 9.68915 50.0704 9.79215 50.3375 9.83085L53.1349 10.2368C53.1616 10.2434 53.1885 10.2487 53.2159 10.2526L57.2738 10.8416L52.2347 15.747Z" stroke="#274FED" stroke-width="0.6" mask="url(#path-1-outside-1)"/>
</svg>
