<svg width="47" height="36" viewBox="0 0 47 36" fill="none" xmlns="http://www.w3.org/2000/svg">
<path d="M29.879 11.6641C29.4783 10.7737 27.0303 10.0023 27.0303 10.0023C26.1157 9.68005 25.8383 9.35942 25.7529 9.19457C25.7428 9.17483 25.7353 9.15722 25.7289 9.14175C25.7289 9.13908 25.7289 9.13642 25.7289 9.13428C25.7289 9.13428 25.723 9.11454 25.7156 9.08307C25.7156 9.0836 25.7145 9.0836 25.7145 9.0836C25.6804 8.95717 25.5923 8.6328 25.5923 8.55331C25.5923 8.55331 25.5875 8.57945 25.5779 8.62427C25.5704 8.54638 25.5688 8.46155 25.5736 8.37139C25.5736 8.37139 25.5662 8.37993 25.5528 8.39433C25.8554 8.00542 26.1019 7.56049 26.2657 7.10916C26.5437 6.83121 26.6867 6.15368 26.6867 6.15368C26.8713 5.63566 26.8168 5.37105 26.7325 5.23767C26.7587 5.15925 27.2026 3.78605 26.5751 2.72707C26.5751 2.72707 26.3521 1.72571 25.1729 1.28078C24.0823 0.613384 22.4576 1.01404 22.4576 1.01404C20.4776 1.34747 20.0534 3.67722 20.0534 3.67722C19.9355 4.74099 20.2204 5.40572 20.2321 5.43347C20.1308 5.68527 20.3148 6.3436 20.3148 6.3436C20.3783 6.74532 20.5747 6.86749 20.6318 6.89523C20.7694 7.39511 21.0074 7.88165 21.3073 8.30417C21.3057 8.30204 21.3035 8.29991 21.3009 8.29777C21.3009 8.29777 21.3339 8.46102 21.3035 8.68882C21.2993 8.66535 21.2966 8.65254 21.2966 8.65254C21.2966 8.7459 21.1835 9.08627 21.1685 9.13055C21.1675 9.13322 21.1664 9.13535 21.1653 9.13802C21.0736 9.26019 20.9818 9.37169 20.8911 9.47359C20.1532 10.0428 18.3801 10.5816 18.3801 10.5816C17.6086 10.8788 17.2821 11.3237 17.2821 11.3237C16.1397 13.0149 16.0063 14.705 16.0063 14.705C16.0212 15.5644 16.3921 15.6535 16.3921 15.6535C19.0183 16.8251 23.1966 16.8939 23.1966 16.8939C27.4256 16.9835 30.4419 15.8312 30.4419 15.8312C30.8895 15.55 30.9018 15.3281 30.9018 15.3281C31.2139 12.6265 29.879 11.6641 29.879 11.6641Z" fill="#274FED"/>
<path d="M31.4689 29.3682L24.5438 26.14V18.501H22.4095V26.14L15.4849 29.3682L16.3866 31.3021L23.4766 27.9976L30.5661 31.3021L31.4689 29.3682Z" fill="#274FED"/>
<path d="M13.8721 30.3364C13.4714 29.446 11.0234 28.6751 11.0234 28.6751C10.1094 28.3528 9.83143 28.0322 9.74606 27.8668C9.73646 27.8471 9.72899 27.83 9.72259 27.8135C9.72259 27.8108 9.72259 27.8087 9.72259 27.8055C9.72259 27.8055 9.71672 27.7868 9.70871 27.7553C9.70871 27.7543 9.70871 27.7543 9.70871 27.7543H9.70818C9.6735 27.6273 9.58599 27.304 9.58599 27.224C9.58599 27.224 9.58119 27.2501 9.57105 27.2949C9.56412 27.2165 9.56252 27.1322 9.56732 27.0426C9.56732 27.0426 9.55985 27.05 9.54598 27.0655C9.84904 26.6766 10.0955 26.2317 10.2594 25.7798C10.5373 25.5018 10.6798 24.8254 10.6798 24.8254C10.8649 24.3068 10.8105 24.0422 10.7257 23.9088C10.7518 23.8304 11.1958 22.4572 10.5683 21.3988C10.5683 21.3988 10.3458 20.3969 9.16661 19.9519C8.07601 19.2845 6.45131 19.6852 6.45131 19.6852C4.47126 20.0186 4.04708 22.3484 4.04708 22.3484C3.92916 23.4122 4.21408 24.0769 4.22582 24.1041C4.12444 24.3564 4.30852 25.0148 4.30852 25.0148C4.37202 25.4165 4.56837 25.5376 4.62546 25.5659C4.76312 26.0657 5.00109 26.5523 5.30095 26.9743C5.29935 26.9722 5.29721 26.9711 5.29455 26.9679C5.29455 26.9679 5.32763 27.1317 5.29721 27.36C5.29295 27.336 5.29028 27.3227 5.29028 27.3227C5.29028 27.4171 5.17716 27.7569 5.16222 27.8007C5.16116 27.8039 5.16009 27.8049 5.15902 27.8081C5.06725 27.9303 4.97548 28.0418 4.88477 28.1448C4.14685 28.7135 2.37382 29.2523 2.37382 29.2523C1.60176 29.5505 1.27575 29.9955 1.27575 29.9955C0.133391 31.6866 0 33.3767 0 33.3767C0.0149398 34.2362 0.385766 34.3258 0.385766 34.3258C3.01196 35.4968 7.1903 35.5656 7.1903 35.5656C11.4188 35.6553 14.4355 34.5029 14.4355 34.5029C14.8827 34.2218 14.8955 33.9998 14.8955 33.9998C15.2071 31.2988 13.8721 30.3364 13.8721 30.3364Z" fill="#274FED"/>
<path d="M45.8848 30.3363C45.4841 29.4459 43.0361 28.675 43.0361 28.675C42.1216 28.3528 41.8442 28.0322 41.7588 27.8668C41.7487 27.847 41.7412 27.83 41.7348 27.8134C41.7348 27.8108 41.7348 27.8086 41.7348 27.8054C41.7348 27.8054 41.7289 27.7867 41.7214 27.7553C41.7214 27.7542 41.7214 27.7542 41.7214 27.7542H41.7204C41.6862 27.6272 41.5982 27.3039 41.5982 27.2239C41.5982 27.2239 41.5934 27.2501 41.5838 27.2949C41.5763 27.2164 41.5747 27.1322 41.5795 27.0425C41.5795 27.0425 41.572 27.05 41.5587 27.0655C41.8612 26.6766 42.1077 26.2316 42.2715 25.7798C42.5495 25.5018 42.6925 24.8253 42.6925 24.8253C42.8771 24.3068 42.8227 24.0422 42.7384 23.9088C42.7646 23.8304 43.2085 22.4572 42.581 21.3987C42.581 21.3987 42.358 20.3969 41.1793 19.9519C40.0882 19.2845 38.4635 19.6852 38.4635 19.6852C36.4829 20.0186 36.0587 22.3484 36.0587 22.3484C35.9403 23.4121 36.2257 24.0769 36.238 24.1041C36.1366 24.3564 36.3196 25.0147 36.3196 25.0147C36.3831 25.4165 36.58 25.5376 36.6371 25.5658C36.7753 26.0657 37.0133 26.5523 37.3131 26.9742C37.311 26.9721 37.3089 26.971 37.3062 26.9678C37.3062 26.9678 37.3398 27.1316 37.3094 27.36C37.3046 27.3359 37.3019 27.3226 37.3019 27.3226C37.3019 27.417 37.1888 27.7569 37.1744 27.8006C37.1733 27.8038 37.1723 27.8049 37.1707 27.8081C37.0789 27.9303 36.9866 28.0418 36.8959 28.1447C36.158 28.7134 34.3855 29.2522 34.3855 29.2522C33.6139 29.5494 33.2869 29.9943 33.2869 29.9943C32.1445 31.6855 32.0111 33.3756 32.0111 33.3756C32.0255 34.235 32.3969 34.3247 32.3969 34.3247C35.0231 35.4957 39.202 35.5645 39.202 35.5645C43.4299 35.6541 46.4467 34.5018 46.4467 34.5018C46.8938 34.2206 46.9066 33.9987 46.9066 33.9987C47.2198 31.2987 45.8848 30.3363 45.8848 30.3363Z" fill="#274FED"/>
</svg>
