<svg width="505" height="442" viewBox="0 0 505 442" fill="none" xmlns="http://www.w3.org/2000/svg">
<circle cx="23" cy="35" r="23" fill="#0A1F73"/>
<path d="M20.1364 32.448L16.9924 32.352C16.9124 32 16.8724 31.64 16.8724 31.272C16.8724 29.832 17.3844 28.608 18.4084 27.6C19.4324 26.576 20.8164 26.064 22.5604 26.064C24.2564 26.064 25.6164 26.552 26.6404 27.528C27.6644 28.488 28.1764 29.672 28.1764 31.08C28.1764 33.064 27.1684 34.672 25.1524 35.904L22.1524 37.728C21.4484 38.176 21.0004 38.648 20.8084 39.144H28.2724V42H16.7524C16.7684 40.544 17.0484 39.272 17.5924 38.184C18.1524 37.096 19.0964 36.152 20.4244 35.352L22.9924 33.816C24.2244 33.08 24.8404 32.184 24.8404 31.128C24.8404 30.536 24.6324 30.032 24.2164 29.616C23.8164 29.2 23.2404 28.992 22.4884 28.992C21.6884 28.992 21.0724 29.232 20.6404 29.712C20.2244 30.192 20.0164 30.816 20.0164 31.584C20.0164 31.872 20.0564 32.16 20.1364 32.448Z" fill="white"/>
<path d="M25.4913 69C70.9041 160.057 -42.3044 327.237 89 384" stroke="#C8CEDB" stroke-width="3.87064" stroke-dasharray="3.1 7.74"/>
<path d="M181.224 21.5315C180.84 19.6355 179.28 17.1875 175.272 17.1875C172.104 17.1875 169.488 19.5395 169.488 22.3955C169.488 24.9395 171.216 26.6435 173.808 27.1715L176.208 27.6755C177.672 27.9875 178.488 28.8755 178.488 29.9795C178.488 31.2995 177.432 32.3315 175.392 32.3315C172.944 32.3315 171.672 30.6995 171.504 28.9235L168.816 29.6915C169.08 32.1395 171.072 34.9235 175.392 34.9235C179.28 34.9235 181.416 32.4035 181.416 29.7635C181.416 27.3635 179.808 25.4675 176.808 24.8675L174.36 24.3635C173.04 24.0755 172.368 23.2595 172.368 22.1795C172.368 20.8835 173.568 19.7315 175.296 19.7315C177.576 19.7315 178.464 21.2915 178.632 22.3475L181.224 21.5315ZM185.947 27.4355C186.043 26.1875 187.051 24.8435 188.803 24.8435C190.723 24.8435 191.635 26.0675 191.683 27.4355H185.947ZM191.995 30.4835C191.611 31.6355 190.747 32.5235 189.067 32.5235C187.339 32.5235 185.947 31.2515 185.875 29.4755H194.419C194.443 29.4275 194.491 29.0435 194.491 28.5875C194.491 24.8915 192.379 22.5155 188.779 22.5155C185.827 22.5155 183.091 24.9635 183.091 28.6595C183.091 32.6195 185.899 34.9235 189.067 34.9235C191.875 34.9235 193.723 33.2675 194.347 31.2275L191.995 30.4835ZM199.936 34.5635V17.1875H197.152V34.5635H199.936ZM205.471 27.4355C205.567 26.1875 206.575 24.8435 208.327 24.8435C210.247 24.8435 211.159 26.0675 211.207 27.4355H205.471ZM211.519 30.4835C211.135 31.6355 210.271 32.5235 208.591 32.5235C206.863 32.5235 205.471 31.2515 205.399 29.4755H213.943C213.967 29.4275 214.015 29.0435 214.015 28.5875C214.015 24.8915 211.903 22.5155 208.303 22.5155C205.351 22.5155 202.615 24.9635 202.615 28.6595C202.615 32.6195 205.423 34.9235 208.591 34.9235C211.399 34.9235 213.247 33.2675 213.871 31.2275L211.519 30.4835ZM221.763 25.0835C223.539 25.0835 224.331 26.2355 224.595 27.2675L227.091 26.3555C226.611 24.4835 224.883 22.5155 221.739 22.5155C218.379 22.5155 215.763 25.1075 215.763 28.7075C215.763 32.2595 218.379 34.9235 221.811 34.9235C224.883 34.9235 226.635 32.9315 227.187 31.1075L224.739 30.2195C224.475 31.1075 223.635 32.3795 221.811 32.3795C220.059 32.3795 218.547 31.0595 218.547 28.7075C218.547 26.3555 220.059 25.0835 221.763 25.0835ZM233.187 19.2995H230.667V21.0515C230.667 22.0835 230.115 22.8755 228.867 22.8755H228.267V25.3475H230.427V31.2275C230.427 33.4115 231.771 34.7075 233.931 34.7075C234.939 34.7075 235.467 34.5155 235.635 34.4435V32.1395C235.515 32.1635 235.059 32.2355 234.675 32.2355C233.643 32.2355 233.187 31.8035 233.187 30.7715V25.3475H235.611V22.8755H233.187V19.2995ZM255.802 21.5315C255.418 19.6355 253.858 17.1875 249.85 17.1875C246.682 17.1875 244.066 19.5395 244.066 22.3955C244.066 24.9395 245.794 26.6435 248.386 27.1715L250.786 27.6755C252.25 27.9875 253.066 28.8755 253.066 29.9795C253.066 31.2995 252.01 32.3315 249.97 32.3315C247.522 32.3315 246.25 30.6995 246.082 28.9235L243.394 29.6915C243.658 32.1395 245.65 34.9235 249.97 34.9235C253.858 34.9235 255.994 32.4035 255.994 29.7635C255.994 27.3635 254.386 25.4675 251.386 24.8675L248.938 24.3635C247.618 24.0755 246.946 23.2595 246.946 22.1795C246.946 20.8835 248.146 19.7315 249.874 19.7315C252.154 19.7315 253.042 21.2915 253.21 22.3475L255.802 21.5315ZM260.525 27.4355C260.621 26.1875 261.629 24.8435 263.381 24.8435C265.301 24.8435 266.213 26.0675 266.261 27.4355H260.525ZM266.573 30.4835C266.189 31.6355 265.325 32.5235 263.645 32.5235C261.917 32.5235 260.525 31.2515 260.453 29.4755H268.997C269.021 29.4275 269.069 29.0435 269.069 28.5875C269.069 24.8915 266.957 22.5155 263.357 22.5155C260.405 22.5155 257.669 24.9635 257.669 28.6595C257.669 32.6195 260.477 34.9235 263.645 34.9235C266.453 34.9235 268.301 33.2675 268.925 31.2275L266.573 30.4835ZM278.57 22.8035C278.45 22.7795 278.162 22.7315 277.826 22.7315C276.29 22.7315 274.994 23.4755 274.442 24.7475V22.8755H271.73V34.5635H274.514V28.9955C274.514 26.8115 275.498 25.5635 277.658 25.5635C277.946 25.5635 278.258 25.5875 278.57 25.6355V22.8035ZM291.805 22.8755H288.877L285.853 31.2275L282.757 22.8755H279.685L284.437 34.5635H287.221L291.805 22.8755ZM296.615 34.5635V22.8755H293.855V34.5635H296.615ZM293.423 18.7715C293.423 19.7795 294.239 20.5715 295.223 20.5715C296.231 20.5715 297.047 19.7795 297.047 18.7715C297.047 17.7635 296.231 16.9475 295.223 16.9475C294.239 16.9475 293.423 17.7635 293.423 18.7715ZM305.294 25.0835C307.07 25.0835 307.862 26.2355 308.126 27.2675L310.622 26.3555C310.142 24.4835 308.414 22.5155 305.27 22.5155C301.91 22.5155 299.294 25.1075 299.294 28.7075C299.294 32.2595 301.91 34.9235 305.342 34.9235C308.414 34.9235 310.166 32.9315 310.718 31.1075L308.27 30.2195C308.006 31.1075 307.166 32.3795 305.342 32.3795C303.59 32.3795 302.078 31.0595 302.078 28.7075C302.078 26.3555 303.59 25.0835 305.294 25.0835ZM315.017 27.4355C315.113 26.1875 316.121 24.8435 317.873 24.8435C319.793 24.8435 320.705 26.0675 320.753 27.4355H315.017ZM321.065 30.4835C320.681 31.6355 319.817 32.5235 318.137 32.5235C316.409 32.5235 315.017 31.2515 314.945 29.4755H323.489C323.513 29.4275 323.561 29.0435 323.561 28.5875C323.561 24.8915 321.449 22.5155 317.849 22.5155C314.897 22.5155 312.161 24.9635 312.161 28.6595C312.161 32.6195 314.969 34.9235 318.137 34.9235C320.945 34.9235 322.793 33.2675 323.417 31.2275L321.065 30.4835ZM335.295 25.3715V20.0915H338.295C340.119 20.0915 341.223 21.1235 341.223 22.7555C341.223 24.3635 340.119 25.3715 338.295 25.3715H335.295ZM338.727 27.9155C341.991 27.9155 344.151 25.7315 344.151 22.7315C344.151 19.7555 341.991 17.5475 338.727 17.5475H332.415V34.5635H335.295V27.9155H338.727ZM345.33 31.3955C345.33 33.2435 346.842 34.9235 349.29 34.9235C351.186 34.9235 352.338 33.9635 352.89 33.0755C352.89 34.0115 352.986 34.4915 353.01 34.5635H355.602C355.578 34.4435 355.458 33.7475 355.458 32.6915V26.8835C355.458 24.5555 354.09 22.5155 350.49 22.5155C347.61 22.5155 345.786 24.3155 345.57 26.3315L348.114 26.9075C348.234 25.7315 349.05 24.7955 350.514 24.7955C352.05 24.7955 352.722 25.5875 352.722 26.5715C352.722 26.9795 352.53 27.3155 351.858 27.4115L348.858 27.8675C346.866 28.1555 345.33 29.3075 345.33 31.3955ZM349.818 32.7395C348.714 32.7395 348.114 32.0195 348.114 31.2275C348.114 30.2675 348.81 29.7875 349.674 29.6435L352.722 29.1875V29.7155C352.722 31.9955 351.378 32.7395 349.818 32.7395ZM363.888 25.0835C365.664 25.0835 366.456 26.2355 366.72 27.2675L369.216 26.3555C368.736 24.4835 367.008 22.5155 363.864 22.5155C360.504 22.5155 357.888 25.1075 357.888 28.7075C357.888 32.2595 360.504 34.9235 363.936 34.9235C367.008 34.9235 368.76 32.9315 369.312 31.1075L366.864 30.2195C366.6 31.1075 365.76 32.3795 363.936 32.3795C362.184 32.3795 360.672 31.0595 360.672 28.7075C360.672 26.3555 362.184 25.0835 363.888 25.0835ZM382.728 22.8755H379.032L374.544 27.6035V17.1875H371.784V34.5635H374.544V31.2995L375.984 29.7875L379.416 34.5635H382.824L377.928 27.8195L382.728 22.8755ZM383.814 31.3955C383.814 33.2435 385.326 34.9235 387.774 34.9235C389.67 34.9235 390.822 33.9635 391.374 33.0755C391.374 34.0115 391.47 34.4915 391.494 34.5635H394.086C394.062 34.4435 393.942 33.7475 393.942 32.6915V26.8835C393.942 24.5555 392.574 22.5155 388.974 22.5155C386.094 22.5155 384.27 24.3155 384.054 26.3315L386.598 26.9075C386.718 25.7315 387.534 24.7955 388.998 24.7955C390.534 24.7955 391.206 25.5875 391.206 26.5715C391.206 26.9795 391.014 27.3155 390.342 27.4115L387.342 27.8675C385.35 28.1555 383.814 29.3075 383.814 31.3955ZM388.302 32.7395C387.198 32.7395 386.598 32.0195 386.598 31.2275C386.598 30.2675 387.294 29.7875 388.158 29.6435L391.206 29.1875V29.7155C391.206 31.9955 389.862 32.7395 388.302 32.7395ZM396.444 35.2115C396.756 37.5635 398.916 39.4835 402.012 39.4835C406.404 39.4835 408.012 36.5795 408.012 33.4595V22.8755H405.324V24.3635C404.82 23.4035 403.692 22.6595 401.868 22.6595C398.652 22.6595 396.468 25.2275 396.468 28.3475C396.468 31.6355 398.748 34.0355 401.868 34.0355C403.572 34.0355 404.748 33.2435 405.252 32.3315V33.5555C405.252 35.9315 404.148 37.0595 401.94 37.0595C400.332 37.0595 399.204 35.9795 399.012 34.5395L396.444 35.2115ZM402.324 31.6595C400.5 31.6595 399.276 30.3875 399.276 28.3475C399.276 26.3555 400.548 25.0595 402.324 25.0595C404.052 25.0595 405.324 26.3555 405.324 28.3475C405.324 30.3635 404.1 31.6595 402.324 31.6595ZM413.361 27.4355C413.457 26.1875 414.465 24.8435 416.217 24.8435C418.137 24.8435 419.049 26.0675 419.097 27.4355H413.361ZM419.409 30.4835C419.025 31.6355 418.161 32.5235 416.481 32.5235C414.753 32.5235 413.361 31.2515 413.289 29.4755H421.833C421.857 29.4275 421.905 29.0435 421.905 28.5875C421.905 24.8915 419.793 22.5155 416.193 22.5155C413.241 22.5155 410.505 24.9635 410.505 28.6595C410.505 32.6195 413.313 34.9235 416.481 34.9235C419.289 34.9235 421.137 33.2675 421.761 31.2275L419.409 30.4835Z" fill="#333333"/>
<path d="M140.738 70.5559L141.908 67.2605H146.613L147.783 70.5559H149.261L144.988 58.9195H143.533L139.261 70.5559H140.738ZM142.352 66.0105L144.215 60.7605H144.306L146.17 66.0105H142.352ZM154.778 61.8286H152.823V60.9423C152.823 60.0786 153.187 59.6241 154.073 59.6241C154.46 59.6241 154.687 59.715 154.823 59.7605L155.21 58.6014C155.005 58.5105 154.596 58.3741 153.937 58.3741C152.687 58.3741 151.482 59.1241 151.482 60.6241V61.8286H150.073V62.965H151.482V70.5559H152.823V62.965H154.778V61.8286ZM160.452 61.8286H158.589V59.7377H157.248V61.8286H155.93V62.965H157.248V68.4195C157.248 69.9423 158.475 70.6695 159.612 70.6695C160.112 70.6695 160.43 70.5786 160.612 70.5105L160.339 69.3059C160.225 69.3286 160.043 69.3741 159.748 69.3741C159.157 69.3741 158.589 69.1923 158.589 68.0559V62.965H160.452V61.8286ZM166.035 70.7377C167.808 70.7377 169.103 69.8514 169.512 68.5332L168.217 68.1695C167.876 69.0786 167.086 69.5332 166.035 69.5332C164.461 69.5332 163.376 68.5161 163.313 66.6468H169.648V66.0786C169.648 62.8286 167.717 61.715 165.898 61.715C163.535 61.715 161.967 63.5786 161.967 66.2605C161.967 68.9423 163.512 70.7377 166.035 70.7377ZM163.313 65.4877C163.404 64.1298 164.364 62.9195 165.898 62.9195C167.353 62.9195 168.285 64.0105 168.285 65.4877H163.313ZM171.688 70.5559H173.029V65.0332C173.029 63.857 173.961 62.9877 175.234 62.9877C175.569 62.9877 175.819 63.0502 176.006 63.1468L176.461 62.0105C176.188 61.8173 175.83 61.6923 175.347 61.6923C174.29 61.6923 173.387 62.2832 173.075 63.1468H172.984V61.8286H171.688V70.5559ZM183.147 73.9423C184.374 73.9423 185.215 73.3059 185.715 71.965L189.465 61.8286H188.011L185.602 68.7832H185.511L183.102 61.8286H181.647L184.874 70.6014L184.579 71.4195C184.107 72.7264 183.488 72.8514 182.511 72.6014L182.17 73.7832C182.306 73.8514 182.692 73.9423 183.147 73.9423ZM194.468 70.7377C196.832 70.7377 198.423 68.9423 198.423 66.2377C198.423 63.5105 196.832 61.715 194.468 61.715C192.104 61.715 190.513 63.5105 190.513 66.2377C190.513 68.9423 192.104 70.7377 194.468 70.7377ZM194.468 69.5332C192.673 69.5332 191.854 67.9877 191.854 66.2377C191.854 64.4877 192.673 62.9195 194.468 62.9195C196.263 62.9195 197.082 64.4877 197.082 66.2377C197.082 67.9877 196.263 69.5332 194.468 69.5332ZM205.969 66.9877C205.969 68.6241 204.719 69.3741 203.719 69.3741C202.606 69.3741 201.81 68.5559 201.81 67.2832V61.8286H200.469V67.3741C200.469 69.6014 201.651 70.6695 203.288 70.6695C204.606 70.6695 205.469 69.965 205.879 69.0786H205.969V70.5559H207.31V61.8286H205.969V66.9877ZM215.607 65.3059C215.607 63.7832 216.579 62.9195 217.903 62.9195C219.164 62.9195 219.925 63.715 219.925 65.1014V70.5559H221.266V65.0105C221.266 62.7661 220.073 61.715 218.289 61.715C216.914 61.715 216.13 62.2889 215.721 63.1923H215.607V58.9195H214.266V70.5559H215.607V65.3059ZM226.288 70.7605C227.81 70.7605 228.606 69.9423 228.879 69.3741H228.947V70.5559H230.288V64.8059C230.288 62.0332 228.174 61.715 227.06 61.715C225.742 61.715 224.242 62.1695 223.56 63.7605L224.833 64.215C225.129 63.5786 225.827 62.8968 227.106 62.8968C228.339 62.8968 228.947 63.5502 228.947 64.6695V64.715C228.947 65.3627 228.288 65.3059 226.697 65.5105C225.077 65.7207 223.31 66.0786 223.31 68.0786C223.31 69.7832 224.629 70.7605 226.288 70.7605ZM226.492 69.5559C225.424 69.5559 224.651 69.0786 224.651 68.1468C224.651 67.1241 225.583 66.8059 226.629 66.6695C227.197 66.6014 228.719 66.4423 228.947 66.1695V67.3968C228.947 68.4877 228.083 69.5559 226.492 69.5559ZM239.559 61.8286H238.104L235.695 68.7832H235.604L233.195 61.8286H231.741L234.968 70.5559H236.332L239.559 61.8286ZM244.675 70.7377C246.448 70.7377 247.744 69.8514 248.153 68.5332L246.857 68.1695C246.516 69.0786 245.727 69.5332 244.675 69.5332C243.102 69.5332 242.016 68.5161 241.954 66.6468H248.289V66.0786C248.289 62.8286 246.357 61.715 244.539 61.715C242.175 61.715 240.607 63.5786 240.607 66.2605C240.607 68.9423 242.153 70.7377 244.675 70.7377ZM241.954 65.4877C242.045 64.1298 243.005 62.9195 244.539 62.9195C245.994 62.9195 246.925 64.0105 246.925 65.4877H241.954ZM261.011 63.7832C260.59 62.5445 259.647 61.715 257.92 61.715C256.079 61.715 254.715 62.7605 254.715 64.2377C254.715 65.4423 255.431 66.2491 257.033 66.6241L258.488 66.965C259.369 67.1695 259.783 67.59 259.783 68.1923C259.783 68.9423 258.988 69.5559 257.738 69.5559C256.641 69.5559 255.954 69.0843 255.715 68.1468L254.442 68.465C254.755 69.948 255.977 70.7377 257.761 70.7377C259.789 70.7377 261.17 69.6298 261.17 68.1241C261.17 66.9082 260.408 66.1411 258.852 65.7605L257.556 65.4423C256.522 65.1866 256.056 64.84 256.056 64.1695C256.056 63.4195 256.852 62.8741 257.92 62.8741C259.09 62.8741 259.573 63.5218 259.806 64.1241L261.011 63.7832ZM266.847 70.7377C268.62 70.7377 269.915 69.8514 270.325 68.5332L269.029 68.1695C268.688 69.0786 267.898 69.5332 266.847 69.5332C265.273 69.5332 264.188 68.5161 264.126 66.6468H270.461V66.0786C270.461 62.8286 268.529 61.715 266.711 61.715C264.347 61.715 262.779 63.5786 262.779 66.2605C262.779 68.9423 264.325 70.7377 266.847 70.7377ZM264.126 65.4877C264.217 64.1298 265.177 62.9195 266.711 62.9195C268.165 62.9195 269.097 64.0105 269.097 65.4877H264.126ZM273.842 58.9195H272.501V70.5559H273.842V58.9195ZM279.957 70.7377C281.729 70.7377 283.025 69.8514 283.434 68.5332L282.138 68.1695C281.798 69.0786 281.008 69.5332 279.957 69.5332C278.383 69.5332 277.298 68.5161 277.235 66.6468H283.57V66.0786C283.57 62.8286 281.638 61.715 279.82 61.715C277.457 61.715 275.888 63.5786 275.888 66.2605C275.888 68.9423 277.434 70.7377 279.957 70.7377ZM277.235 65.4877C277.326 64.1298 278.286 62.9195 279.82 62.9195C281.275 62.9195 282.207 64.0105 282.207 65.4877H277.235ZM289.156 70.7377C291.087 70.7377 292.36 69.5559 292.587 68.0105H291.246C290.996 68.965 290.201 69.5332 289.156 69.5332C287.565 69.5332 286.542 68.215 286.542 66.1923C286.542 64.215 287.587 62.9195 289.156 62.9195C290.337 62.9195 291.042 63.6468 291.246 64.4423H292.587C292.36 62.8059 290.974 61.715 289.133 61.715C286.769 61.715 285.201 63.5786 285.201 66.2377C285.201 68.8514 286.701 70.7377 289.156 70.7377ZM298.343 61.8286H296.479V59.7377H295.138V61.8286H293.82V62.965H295.138V68.4195C295.138 69.9423 296.366 70.6695 297.502 70.6695C298.002 70.6695 298.32 70.5786 298.502 70.5105L298.229 69.3059C298.116 69.3286 297.934 69.3741 297.638 69.3741C297.048 69.3741 296.479 69.1923 296.479 68.0559V62.965H298.343V61.8286ZM303.925 70.7377C305.698 70.7377 306.994 69.8514 307.403 68.5332L306.107 68.1695C305.766 69.0786 304.977 69.5332 303.925 69.5332C302.352 69.5332 301.266 68.5161 301.204 66.6468H307.539V66.0786C307.539 62.8286 305.607 61.715 303.789 61.715C301.425 61.715 299.857 63.5786 299.857 66.2605C299.857 68.9423 301.403 70.7377 303.925 70.7377ZM301.204 65.4877C301.295 64.1298 302.255 62.9195 303.789 62.9195C305.244 62.9195 306.175 64.0105 306.175 65.4877H301.204ZM312.874 70.7377C314.556 70.7377 315.124 69.6923 315.42 69.215H315.579V70.5559H316.874V58.9195H315.533V63.215H315.42C315.124 62.7605 314.602 61.715 312.897 61.715C310.692 61.715 309.17 63.465 309.17 66.215C309.17 68.9877 310.692 70.7377 312.874 70.7377ZM313.056 69.5332C311.374 69.5332 310.511 68.0559 310.511 66.1923C310.511 64.3514 311.352 62.9195 313.056 62.9195C314.692 62.9195 315.556 64.2377 315.556 66.1923C315.556 68.1695 314.67 69.5332 313.056 69.5332ZM326.585 70.7605C328.107 70.7605 328.903 69.9423 329.175 69.3741H329.244V70.5559H330.585V64.8059C330.585 62.0332 328.471 61.715 327.357 61.715C326.039 61.715 324.539 62.1695 323.857 63.7605L325.13 64.215C325.425 63.5786 326.124 62.8968 327.403 62.8968C328.636 62.8968 329.244 63.5502 329.244 64.6695V64.715C329.244 65.3627 328.585 65.3059 326.994 65.5105C325.374 65.7207 323.607 66.0786 323.607 68.0786C323.607 69.7832 324.925 70.7605 326.585 70.7605ZM326.789 69.5559C325.721 69.5559 324.948 69.0786 324.948 68.1468C324.948 67.1241 325.88 66.8059 326.925 66.6695C327.494 66.6014 329.016 66.4423 329.244 66.1695V67.3968C329.244 68.4877 328.38 69.5559 326.789 69.5559ZM337.532 70.5559H338.873V65.1014C338.873 63.823 339.805 62.9195 340.85 62.9195C341.867 62.9195 342.577 63.5843 342.577 64.5786V70.5559H343.941V64.8741C343.941 63.7491 344.646 62.9195 345.873 62.9195C346.827 62.9195 347.646 63.4252 347.646 64.715V70.5559H348.987V64.715C348.987 62.6639 347.884 61.715 346.327 61.715C345.077 61.715 344.163 62.2889 343.714 63.1923H343.623C343.191 62.2605 342.43 61.715 341.282 61.715C340.146 61.715 339.305 62.2605 338.941 63.1923H338.827V61.8286H337.532V70.5559ZM355.097 70.7377C356.87 70.7377 358.165 69.8514 358.575 68.5332L357.279 68.1695C356.938 69.0786 356.148 69.5332 355.097 69.5332C353.523 69.5332 352.438 68.5161 352.376 66.6468H358.711V66.0786C358.711 62.8286 356.779 61.715 354.961 61.715C352.597 61.715 351.029 63.5786 351.029 66.2605C351.029 68.9423 352.575 70.7377 355.097 70.7377ZM352.376 65.4877C352.467 64.1298 353.427 62.9195 354.961 62.9195C356.415 62.9195 357.347 64.0105 357.347 65.4877H352.376ZM362.092 65.3059C362.092 63.7832 363.035 62.9195 364.319 62.9195C365.563 62.9195 366.319 63.732 366.319 65.1014V70.5559H367.66V65.0105C367.66 62.7832 366.472 61.715 364.705 61.715C363.387 61.715 362.569 62.3059 362.16 63.1923H362.046V61.8286H360.751V70.5559H362.092V65.3059ZM373.906 61.8286H372.042V59.7377H370.701V61.8286H369.383V62.965H370.701V68.4195C370.701 69.9423 371.928 70.6695 373.065 70.6695C373.565 70.6695 373.883 70.5786 374.065 70.5105L373.792 69.3059C373.678 69.3286 373.496 69.3741 373.201 69.3741C372.61 69.3741 372.042 69.1923 372.042 68.0559V62.965H373.906V61.8286ZM379.374 70.7377C381.738 70.7377 383.329 68.9423 383.329 66.2377C383.329 63.5105 381.738 61.715 379.374 61.715C377.011 61.715 375.42 63.5105 375.42 66.2377C375.42 68.9423 377.011 70.7377 379.374 70.7377ZM379.374 69.5332C377.579 69.5332 376.761 67.9877 376.761 66.2377C376.761 64.4877 377.579 62.9195 379.374 62.9195C381.17 62.9195 381.988 64.4877 381.988 66.2377C381.988 67.9877 381.17 69.5332 379.374 69.5332ZM385.376 70.5559H386.717V65.0332C386.717 63.857 387.648 62.9877 388.921 62.9877C389.256 62.9877 389.506 63.0502 389.694 63.1468L390.148 62.0105C389.876 61.8173 389.518 61.6923 389.035 61.6923C387.978 61.6923 387.075 62.2832 386.762 63.1468H386.671V61.8286H385.376V70.5559ZM399.812 61.8286H397.948V59.7377H396.607V61.8286H395.289V62.965H396.607V68.4195C396.607 69.9423 397.835 70.6695 398.971 70.6695C399.471 70.6695 399.789 70.5786 399.971 70.5105L399.698 69.3059C399.585 69.3286 399.403 69.3741 399.107 69.3741C398.516 69.3741 397.948 69.1923 397.948 68.0559V62.965H399.812V61.8286ZM403.357 65.3059C403.357 63.7832 404.329 62.9195 405.653 62.9195C406.914 62.9195 407.675 63.715 407.675 65.1014V70.5559H409.016V65.0105C409.016 62.7661 407.823 61.715 406.039 61.715C404.664 61.715 403.88 62.2889 403.471 63.1923H403.357V58.9195H402.016V70.5559H403.357V65.3059ZM414.038 70.7605C415.56 70.7605 416.356 69.9423 416.629 69.3741H416.697V70.5559H418.038V64.8059C418.038 62.0332 415.924 61.715 414.81 61.715C413.492 61.715 411.992 62.1695 411.31 63.7605L412.583 64.215C412.879 63.5786 413.577 62.8968 414.856 62.8968C416.089 62.8968 416.697 63.5502 416.697 64.6695V64.715C416.697 65.3627 416.038 65.3059 414.447 65.5105C412.827 65.7207 411.06 66.0786 411.06 68.0786C411.06 69.7832 412.379 70.7605 414.038 70.7605ZM414.242 69.5559C413.174 69.5559 412.401 69.0786 412.401 68.1468C412.401 67.1241 413.333 66.8059 414.379 66.6695C414.947 66.6014 416.469 66.4423 416.697 66.1695V67.3968C416.697 68.4877 415.833 69.5559 414.242 69.5559ZM424.281 61.8286H422.417V59.7377H421.076V61.8286H419.758V62.965H421.076V68.4195C421.076 69.9423 422.303 70.6695 423.44 70.6695C423.94 70.6695 424.258 70.5786 424.44 70.5105L424.167 69.3059C424.053 69.3286 423.871 69.3741 423.576 69.3741C422.985 69.3741 422.417 69.1923 422.417 68.0559V62.965H424.281V61.8286ZM434.684 61.8286H432.729V60.9423C432.729 60.0786 433.093 59.6241 433.979 59.6241C434.366 59.6241 434.593 59.715 434.729 59.7605L435.116 58.6014C434.911 58.5105 434.502 58.3741 433.843 58.3741C432.593 58.3741 431.388 59.1241 431.388 60.6241V61.8286H429.979V62.965H431.388V70.5559H432.729V62.965H434.684V61.8286ZM436.563 70.5559H437.904V61.8286H436.563V70.5559ZM437.245 60.3741C437.768 60.3741 438.2 59.965 438.2 59.465C438.2 58.965 437.768 58.5559 437.245 58.5559C436.722 58.5559 436.29 58.965 436.29 59.465C436.29 59.965 436.722 60.3741 437.245 60.3741ZM444.156 61.8286H442.292V59.7377H440.951V61.8286H439.633V62.965H440.951V68.4195C440.951 69.9423 442.178 70.6695 443.315 70.6695C443.815 70.6695 444.133 70.5786 444.315 70.5105L444.042 69.3059C443.928 69.3286 443.746 69.3741 443.451 69.3741C442.86 69.3741 442.292 69.1923 442.292 68.0559V62.965H444.156V61.8286ZM452.198 63.7832C451.778 62.5445 450.835 61.715 449.107 61.715C447.266 61.715 445.903 62.7605 445.903 64.2377C445.903 65.4423 446.619 66.2491 448.221 66.6241L449.675 66.965C450.556 67.1695 450.971 67.59 450.971 68.1923C450.971 68.9423 450.175 69.5559 448.925 69.5559C447.829 69.5559 447.141 69.0843 446.903 68.1468L445.63 68.465C445.942 69.948 447.164 70.7377 448.948 70.7377C450.977 70.7377 452.357 69.6298 452.357 68.1241C452.357 66.9082 451.596 66.1411 450.039 65.7605L448.744 65.4423C447.71 65.1866 447.244 64.84 447.244 64.1695C447.244 63.4195 448.039 62.8741 449.107 62.8741C450.278 62.8741 450.761 63.5218 450.994 64.1241L452.198 63.7832ZM157.663 92.9423C158.89 92.9423 159.731 92.3059 160.231 90.965L163.981 80.8286H162.526L160.117 87.7832H160.026L157.617 80.8286H156.163L159.39 89.6014L159.094 90.4195C158.623 91.7264 158.004 91.8514 157.026 91.6014L156.685 92.7832C156.822 92.8514 157.208 92.9423 157.663 92.9423ZM168.984 89.7377C171.347 89.7377 172.938 87.9423 172.938 85.2377C172.938 82.5105 171.347 80.715 168.984 80.715C166.62 80.715 165.029 82.5105 165.029 85.2377C165.029 87.9423 166.62 89.7377 168.984 89.7377ZM168.984 88.5332C167.188 88.5332 166.37 86.9877 166.37 85.2377C166.37 83.4877 167.188 81.9195 168.984 81.9195C170.779 81.9195 171.597 83.4877 171.597 85.2377C171.597 86.9877 170.779 88.5332 168.984 88.5332ZM180.485 85.9877C180.485 87.6241 179.235 88.3741 178.235 88.3741C177.121 88.3741 176.326 87.5559 176.326 86.2832V80.8286H174.985V86.3741C174.985 88.6014 176.167 89.6695 177.803 89.6695C179.121 89.6695 179.985 88.965 180.394 88.0786H180.485V89.5559H181.826V80.8286H180.485V85.9877ZM184.282 89.5559H185.623V84.0332C185.623 82.857 186.555 81.9877 187.827 81.9877C188.163 81.9877 188.413 82.0502 188.6 82.1468L189.055 81.0105C188.782 80.8173 188.424 80.6923 187.941 80.6923C186.884 80.6923 185.981 81.2832 185.668 82.1468H185.577V80.8286H184.282V89.5559ZM198.468 89.7377C200.4 89.7377 201.673 88.5559 201.9 87.0105H200.559C200.309 87.965 199.513 88.5332 198.468 88.5332C196.877 88.5332 195.854 87.215 195.854 85.1923C195.854 83.215 196.9 81.9195 198.468 81.9195C199.65 81.9195 200.354 82.6468 200.559 83.4423H201.9C201.673 81.8059 200.286 80.715 198.445 80.715C196.082 80.715 194.513 82.5786 194.513 85.2377C194.513 87.8514 196.013 89.7377 198.468 89.7377ZM203.86 89.5559H205.201V84.0332C205.201 82.8514 206.133 81.9877 207.406 81.9877C207.763 81.9877 208.133 82.0559 208.224 82.0786V80.715C208.07 80.7036 207.718 80.6923 207.519 80.6923C206.474 80.6923 205.565 81.2832 205.246 82.1468H205.156V80.8286H203.86V89.5559ZM209.813 89.5559H211.154V80.8286H209.813V89.5559ZM210.495 79.3741C211.018 79.3741 211.45 78.965 211.45 78.465C211.45 77.965 211.018 77.5559 210.495 77.5559C209.972 77.5559 209.54 77.965 209.54 78.465C209.54 78.965 209.972 79.3741 210.495 79.3741ZM217.406 80.8286H215.542V78.7377H214.201V80.8286H212.883V81.965H214.201V87.4195C214.201 88.9423 215.428 89.6695 216.565 89.6695C217.065 89.6695 217.383 89.5786 217.565 89.5105L217.292 88.3059C217.178 88.3286 216.996 88.3741 216.701 88.3741C216.11 88.3741 215.542 88.1923 215.542 87.0559V81.965H217.406V80.8286ZM222.988 89.7377C224.761 89.7377 226.056 88.8514 226.465 87.5332L225.17 87.1695C224.829 88.0786 224.039 88.5332 222.988 88.5332C221.414 88.5332 220.329 87.5161 220.266 85.6468H226.602V85.0786C226.602 81.8286 224.67 80.715 222.852 80.715C220.488 80.715 218.92 82.5786 218.92 85.2605C218.92 87.9423 220.465 89.7377 222.988 89.7377ZM220.266 84.4877C220.357 83.1298 221.317 81.9195 222.852 81.9195C224.306 81.9195 225.238 83.0105 225.238 84.4877H220.266ZM228.641 89.5559H229.982V84.0332C229.982 82.8514 230.914 81.9877 232.187 81.9877C232.545 81.9877 232.914 82.0559 233.005 82.0786V80.715C232.852 80.7036 232.499 80.6923 232.3 80.6923C231.255 80.6923 230.346 81.2832 230.028 82.1468H229.937V80.8286H228.641V89.5559ZM234.594 89.5559H235.935V80.8286H234.594V89.5559ZM235.276 79.3741C235.799 79.3741 236.231 78.965 236.231 78.465C236.231 77.965 235.799 77.5559 235.276 77.5559C234.754 77.5559 234.322 77.965 234.322 78.465C234.322 78.965 234.754 79.3741 235.276 79.3741ZM240.96 89.7605C242.482 89.7605 243.278 88.9423 243.55 88.3741H243.619V89.5559H244.96V83.8059C244.96 81.0332 242.846 80.715 241.732 80.715C240.414 80.715 238.914 81.1695 238.232 82.7605L239.505 83.215C239.8 82.5786 240.499 81.8968 241.778 81.8968C243.011 81.8968 243.619 82.5502 243.619 83.6695V83.715C243.619 84.3627 242.96 84.3059 241.369 84.5105C239.749 84.7207 237.982 85.0786 237.982 87.0786C237.982 88.7832 239.3 89.7605 240.96 89.7605ZM241.164 88.5559C240.096 88.5559 239.323 88.0786 239.323 87.1468C239.323 86.1241 240.255 85.8059 241.3 85.6695C241.869 85.6014 243.391 85.4423 243.619 85.1695V86.3968C243.619 87.4877 242.755 88.5559 241.164 88.5559ZM249.407 87.965H247.952L247.884 88.6014C247.719 90.1411 247.396 91.6752 247.248 92.3968H248.271C248.543 91.6241 249.123 89.8741 249.316 88.5786L249.407 87.965ZM262.573 82.7832C262.153 81.5445 261.21 80.715 259.482 80.715C257.641 80.715 256.278 81.7605 256.278 83.2377C256.278 84.4423 256.994 85.2491 258.596 85.6241L260.05 85.965C260.931 86.1695 261.346 86.59 261.346 87.1923C261.346 87.9423 260.55 88.5559 259.3 88.5559C258.204 88.5559 257.516 88.0843 257.278 87.1468L256.005 87.465C256.317 88.948 257.539 89.7377 259.323 89.7377C261.352 89.7377 262.732 88.6298 262.732 87.1241C262.732 85.9082 261.971 85.1411 260.414 84.7605L259.119 84.4423C258.085 84.1866 257.619 83.84 257.619 83.1695C257.619 82.4195 258.414 81.8741 259.482 81.8741C260.653 81.8741 261.136 82.5218 261.369 83.1241L262.573 82.7832ZM268.41 89.7377C270.183 89.7377 271.478 88.8514 271.887 87.5332L270.592 87.1695C270.251 88.0786 269.461 88.5332 268.41 88.5332C266.836 88.5332 265.751 87.5161 265.688 85.6468H272.023V85.0786C272.023 81.8286 270.092 80.715 268.273 80.715C265.91 80.715 264.342 82.5786 264.342 85.2605C264.342 87.9423 265.887 89.7377 268.41 89.7377ZM265.688 84.4877C265.779 83.1298 266.739 81.9195 268.273 81.9195C269.728 81.9195 270.66 83.0105 270.66 84.4877H265.688ZM275.404 77.9195H274.063V89.5559H275.404V77.9195ZM281.519 89.7377C283.292 89.7377 284.587 88.8514 284.996 87.5332L283.701 87.1695C283.36 88.0786 282.57 88.5332 281.519 88.5332C279.945 88.5332 278.86 87.5161 278.798 85.6468H285.133V85.0786C285.133 81.8286 283.201 80.715 281.383 80.715C279.019 80.715 277.451 82.5786 277.451 85.2605C277.451 87.9423 278.996 89.7377 281.519 89.7377ZM278.798 84.4877C278.888 83.1298 279.849 81.9195 281.383 81.9195C282.837 81.9195 283.769 83.0105 283.769 84.4877H278.798ZM290.718 89.7377C292.65 89.7377 293.923 88.5559 294.15 87.0105H292.809C292.559 87.965 291.763 88.5332 290.718 88.5332C289.127 88.5332 288.104 87.215 288.104 85.1923C288.104 83.215 289.15 81.9195 290.718 81.9195C291.9 81.9195 292.604 82.6468 292.809 83.4423H294.15C293.923 81.8059 292.536 80.715 290.695 80.715C288.332 80.715 286.763 82.5786 286.763 85.2377C286.763 87.8514 288.263 89.7377 290.718 89.7377ZM299.906 80.8286H298.042V78.7377H296.701V80.8286H295.383V81.965H296.701V87.4195C296.701 88.9423 297.928 89.6695 299.065 89.6695C299.565 89.6695 299.883 89.5786 300.065 89.5105L299.792 88.3059C299.678 88.3286 299.496 88.3741 299.201 88.3741C298.61 88.3741 298.042 88.1923 298.042 87.0559V81.965H299.906V80.8286ZM310.218 80.8286H308.354V78.7377H307.013V80.8286H305.695V81.965H307.013V87.4195C307.013 88.9423 308.241 89.6695 309.377 89.6695C309.877 89.6695 310.195 89.5786 310.377 89.5105L310.104 88.3059C309.991 88.3286 309.809 88.3741 309.513 88.3741C308.923 88.3741 308.354 88.1923 308.354 87.0559V81.965H310.218V80.8286ZM313.763 84.3059C313.763 82.7832 314.735 81.9195 316.059 81.9195C317.32 81.9195 318.082 82.715 318.082 84.1014V89.5559H319.423V84.0105C319.423 81.7661 318.229 80.715 316.445 80.715C315.07 80.715 314.286 81.2889 313.877 82.1923H313.763V77.9195H312.423V89.5559H313.763V84.3059ZM325.535 89.7377C327.308 89.7377 328.603 88.8514 329.012 87.5332L327.717 87.1695C327.376 88.0786 326.586 88.5332 325.535 88.5332C323.961 88.5332 322.876 87.5161 322.813 85.6468H329.148V85.0786C329.148 81.8286 327.217 80.715 325.398 80.715C323.035 80.715 321.467 82.5786 321.467 85.2605C321.467 87.9423 323.012 89.7377 325.535 89.7377ZM322.813 84.4877C322.904 83.1298 323.864 81.9195 325.398 81.9195C326.853 81.9195 327.785 83.0105 327.785 84.4877H322.813ZM341.87 82.7832C341.45 81.5445 340.506 80.715 338.779 80.715C336.938 80.715 335.575 81.7605 335.575 83.2377C335.575 84.4423 336.29 85.2491 337.893 85.6241L339.347 85.965C340.228 86.1695 340.643 86.59 340.643 87.1923C340.643 87.9423 339.847 88.5559 338.597 88.5559C337.501 88.5559 336.813 88.0843 336.575 87.1468L335.302 87.465C335.614 88.948 336.836 89.7377 338.62 89.7377C340.648 89.7377 342.029 88.6298 342.029 87.1241C342.029 85.9082 341.268 85.1411 339.711 84.7605L338.415 84.4423C337.381 84.1866 336.915 83.84 336.915 83.1695C336.915 82.4195 337.711 81.8741 338.779 81.8741C339.95 81.8741 340.433 82.5218 340.665 83.1241L341.87 82.7832ZM347.707 89.7377C349.479 89.7377 350.775 88.8514 351.184 87.5332L349.888 87.1695C349.548 88.0786 348.758 88.5332 347.707 88.5332C346.133 88.5332 345.048 87.5161 344.985 85.6468H351.32V85.0786C351.32 81.8286 349.388 80.715 347.57 80.715C345.207 80.715 343.638 82.5786 343.638 85.2605C343.638 87.9423 345.184 89.7377 347.707 89.7377ZM344.985 84.4877C345.076 83.1298 346.036 81.9195 347.57 81.9195C349.025 81.9195 349.957 83.0105 349.957 84.4877H344.985ZM353.36 89.5559H354.701V84.0332C354.701 82.8514 355.633 81.9877 356.906 81.9877C357.263 81.9877 357.633 82.0559 357.724 82.0786V80.715C357.57 80.7036 357.218 80.6923 357.019 80.6923C355.974 80.6923 355.065 81.2832 354.746 82.1468H354.656V80.8286H353.36V89.5559ZM366.715 80.8286H365.261L362.852 87.7832H362.761L360.352 80.8286H358.897L362.124 89.5559H363.488L366.715 80.8286ZM369.032 89.5559H370.373V80.8286H369.032V89.5559ZM369.714 79.3741C370.237 79.3741 370.668 78.965 370.668 78.465C370.668 77.965 370.237 77.5559 369.714 77.5559C369.191 77.5559 368.759 77.965 368.759 78.465C368.759 78.965 369.191 79.3741 369.714 79.3741ZM376.374 89.7377C378.306 89.7377 379.579 88.5559 379.806 87.0105H378.465C378.215 87.965 377.42 88.5332 376.374 88.5332C374.783 88.5332 373.761 87.215 373.761 85.1923C373.761 83.215 374.806 81.9195 376.374 81.9195C377.556 81.9195 378.261 82.6468 378.465 83.4423H379.806C379.579 81.8059 378.192 80.715 376.352 80.715C373.988 80.715 372.42 82.5786 372.42 85.2377C372.42 87.8514 373.92 89.7377 376.374 89.7377ZM385.425 89.7377C387.198 89.7377 388.494 88.8514 388.903 87.5332L387.607 87.1695C387.266 88.0786 386.477 88.5332 385.425 88.5332C383.852 88.5332 382.766 87.5161 382.704 85.6468H389.039V85.0786C389.039 81.8286 387.107 80.715 385.289 80.715C382.925 80.715 381.357 82.5786 381.357 85.2605C381.357 87.9423 382.903 89.7377 385.425 89.7377ZM382.704 84.4877C382.795 83.1298 383.755 81.9195 385.289 81.9195C386.744 81.9195 387.675 83.0105 387.675 84.4877H382.704ZM397.261 82.7832C396.84 81.5445 395.897 80.715 394.17 80.715C392.329 80.715 390.965 81.7605 390.965 83.2377C390.965 84.4423 391.681 85.2491 393.283 85.6241L394.738 85.965C395.619 86.1695 396.033 86.59 396.033 87.1923C396.033 87.9423 395.238 88.5559 393.988 88.5559C392.891 88.5559 392.204 88.0843 391.965 87.1468L390.692 87.465C391.005 88.948 392.227 89.7377 394.011 89.7377C396.039 89.7377 397.42 88.6298 397.42 87.1241C397.42 85.9082 396.658 85.1411 395.102 84.7605L393.806 84.4423C392.772 84.1866 392.306 83.84 392.306 83.1695C392.306 82.4195 393.102 81.8741 394.17 81.8741C395.34 81.8741 395.823 82.5218 396.056 83.1241L397.261 82.7832ZM407.734 80.8286H405.87V78.7377H404.529V80.8286H403.211V81.965H404.529V87.4195C404.529 88.9423 405.756 89.6695 406.893 89.6695C407.393 89.6695 407.711 89.5786 407.893 89.5105L407.62 88.3059C407.506 88.3286 407.325 88.3741 407.029 88.3741C406.438 88.3741 405.87 88.1923 405.87 87.0559V81.965H407.734V80.8286ZM411.279 84.3059C411.279 82.7832 412.251 81.9195 413.575 81.9195C414.836 81.9195 415.597 82.715 415.597 84.1014V89.5559H416.938V84.0105C416.938 81.7661 415.745 80.715 413.961 80.715C412.586 80.715 411.802 81.2889 411.393 82.1923H411.279V77.9195H409.938V89.5559H411.279V84.3059ZM423.05 89.7377C424.823 89.7377 426.119 88.8514 426.528 87.5332L425.232 87.1695C424.891 88.0786 424.102 88.5332 423.05 88.5332C421.477 88.5332 420.391 87.5161 420.329 85.6468H426.664V85.0786C426.664 81.8286 424.732 80.715 422.914 80.715C420.55 80.715 418.982 82.5786 418.982 85.2605C418.982 87.9423 420.528 89.7377 423.05 89.7377ZM420.329 84.4877C420.42 83.1298 421.38 81.9195 422.914 81.9195C424.369 81.9195 425.3 83.0105 425.3 84.4877H420.329ZM429.522 92.9423C430.749 92.9423 431.59 92.3059 432.09 90.965L435.84 80.8286H434.386L431.977 87.7832H431.886L429.477 80.8286H428.022L431.249 89.6014L430.954 90.4195C430.482 91.7264 429.863 91.8514 428.886 91.6014L428.545 92.7832C428.681 92.8514 429.067 92.9423 429.522 92.9423ZM282.687 108.738C285.05 108.738 286.641 106.942 286.641 104.238C286.641 101.51 285.05 99.715 282.687 99.715C280.323 99.715 278.732 101.51 278.732 104.238C278.732 106.942 280.323 108.738 282.687 108.738ZM282.687 107.533C280.891 107.533 280.073 105.988 280.073 104.238C280.073 102.488 280.891 100.92 282.687 100.92C284.482 100.92 285.3 102.488 285.3 104.238C285.3 105.988 284.482 107.533 282.687 107.533ZM292.575 99.8286H290.62V98.9423C290.62 98.0786 290.984 97.6241 291.87 97.6241C292.256 97.6241 292.484 97.715 292.62 97.7605L293.006 96.6014C292.802 96.5105 292.393 96.3741 291.734 96.3741C290.484 96.3741 289.279 97.1241 289.279 98.6241V99.8286H287.87V100.965H289.279V108.556H290.62V100.965H292.575V99.8286ZM298.34 99.8286H296.386V98.9423C296.386 98.0786 296.749 97.6241 297.636 97.6241C298.022 97.6241 298.249 97.715 298.386 97.7605L298.772 96.6014C298.567 96.5105 298.158 96.3741 297.499 96.3741C296.249 96.3741 295.045 97.1241 295.045 98.6241V99.8286H293.636V100.965H295.045V108.556H296.386V100.965H298.34V99.8286ZM303.519 108.738C305.292 108.738 306.587 107.851 306.996 106.533L305.701 106.17C305.36 107.079 304.57 107.533 303.519 107.533C301.945 107.533 300.86 106.516 300.798 104.647H307.133V104.079C307.133 100.829 305.201 99.715 303.383 99.715C301.019 99.715 299.451 101.579 299.451 104.26C299.451 106.942 300.996 108.738 303.519 108.738ZM300.798 103.488C300.888 102.13 301.849 100.92 303.383 100.92C304.837 100.92 305.769 102.01 305.769 103.488H300.798ZM309.173 108.556H310.513V103.033C310.513 101.857 311.445 100.988 312.718 100.988C313.053 100.988 313.303 101.05 313.491 101.147L313.945 100.01C313.673 99.8173 313.315 99.6923 312.832 99.6923C311.775 99.6923 310.871 100.283 310.559 101.147H310.468V99.8286H309.173V108.556Z" fill="#504F4F"/>
<rect width="418" height="291" transform="translate(87 151)" fill="white"/>
<path d="M505 407H87V407.195H505V407Z" fill="#EBEBEB"/>
<path d="M463.366 419H419V419.195H463.366V419Z" fill="#EBEBEB"/>
<path d="M364.04 417H315V417.195H364.04V417Z" fill="#EBEBEB"/>
<path d="M421.043 416H405V416.195H421.043V416Z" fill="#EBEBEB"/>
<path d="M207.107 413H171V413.195H207.107V413Z" fill="#EBEBEB"/>
<path d="M165.908 413H153V413.195H165.908V413Z" fill="#EBEBEB"/>
<path d="M242.311 417H197V417.195H242.311V417Z" fill="#EBEBEB"/>
<path d="M285.188 371.86H123.765C122.501 371.858 121.289 371.388 120.395 370.552C119.502 369.715 119 368.582 119 367.401V155.42C119.011 154.246 119.518 153.123 120.41 152.295C121.302 151.467 122.508 151.002 123.765 151H285.188C286.454 151 287.669 151.47 288.564 152.306C289.459 153.142 289.962 154.277 289.962 155.459V367.401C289.962 368.584 289.459 369.718 288.564 370.554C287.669 371.391 286.454 371.86 285.188 371.86ZM123.765 151.156C122.556 151.158 121.397 151.608 120.543 152.408C119.689 153.207 119.209 154.291 119.209 155.42V367.401C119.209 368.531 119.689 369.614 120.543 370.413C121.397 371.213 122.556 371.663 123.765 371.665H285.188C286.398 371.663 287.558 371.213 288.414 370.414C289.269 369.615 289.751 368.531 289.753 367.401V155.42C289.751 154.29 289.269 153.207 288.414 152.407C287.558 151.608 286.398 151.158 285.188 151.156H123.765Z" fill="#EBEBEB"/>
<path d="M466.205 371.86H304.774C303.508 371.858 302.295 371.388 301.401 370.552C300.506 369.716 300.002 368.583 300 367.401V155.42C300.013 154.245 300.522 153.122 301.415 152.295C302.309 151.467 303.515 151.002 304.774 151H466.205C467.461 151.004 468.665 151.47 469.555 152.298C470.445 153.125 470.951 154.247 470.962 155.42V367.401C470.962 368.581 470.461 369.713 469.57 370.549C468.678 371.385 467.468 371.856 466.205 371.86ZM304.774 151.156C303.564 151.158 302.404 151.608 301.548 152.407C300.693 153.207 300.211 154.29 300.209 155.42V367.401C300.211 368.531 300.693 369.615 301.548 370.414C302.404 371.213 303.564 371.663 304.774 371.665H466.205C467.415 371.663 468.575 371.213 469.43 370.414C470.286 369.615 470.767 368.531 470.77 367.401V155.42C470.767 154.29 470.286 153.207 469.43 152.407C468.575 151.608 467.415 151.158 466.205 151.156H304.774Z" fill="#EBEBEB"/>
<path d="M310.214 400H319V302.354H310.214V400Z" fill="#F0F0F0"/>
<path d="M140.744 407H315V400.494H140.744V407Z" fill="#F0F0F0"/>
<path d="M310.216 302H138V399.646H310.216V302Z" fill="#F5F5F5"/>
<path d="M311.921 302H321V295.846H311.921V302Z" fill="#E0E0E0"/>
<path d="M311.647 296H135V302.154H311.647V296Z" fill="#EBEBEB"/>
<path d="M296.893 310H151.504C147.912 310 145 312.72 145 316.076V337.608C145 340.963 147.912 343.684 151.504 343.684H296.893C300.485 343.684 303.397 340.963 303.397 337.608V316.076C303.397 312.72 300.485 310 296.893 310Z" fill="white"/>
<path d="M296.893 354H151.504C147.912 354 145 356.72 145 360.076V381.608C145 384.963 147.912 387.684 151.504 387.684H296.893C300.485 387.684 303.397 384.963 303.397 381.608V360.076C303.397 356.72 300.485 354 296.893 354Z" fill="white"/>
<path d="M186.648 314H261.52C262.338 314 263 313.381 263 312.618V310.767C263 310.003 262.338 309.384 261.52 309.384H186.648C185.831 309.384 185.168 310.003 185.168 310.767V312.618C185.168 313.381 185.831 314 186.648 314Z" fill="#F5F5F5"/>
<path d="M186.648 357H261.52C262.338 357 263 356.381 263 355.618V353.767C263 353.003 262.338 352.384 261.52 352.384H186.648C185.831 352.384 185.168 353.003 185.168 353.767V355.618C185.168 356.381 185.831 357 186.648 357Z" fill="#F5F5F5"/>
<path d="M460.501 334H434V338.733H460.501V334Z" fill="#E6E6E6"/>
<path d="M414.109 407H419V245.025H414.109V407Z" fill="#E6E6E6"/>
<path d="M396.748 339H434V334.267H396.748V339Z" fill="#F5F5F5"/>
<path d="M460.501 378H434V382.733H460.501V378Z" fill="#E6E6E6"/>
<path d="M396.748 383H434V378.267H396.748V383Z" fill="#F5F5F5"/>
<path d="M460.501 247H434V251.733H460.501V247Z" fill="#E6E6E6"/>
<path d="M396.748 252H434V247.267H396.748V252Z" fill="#F5F5F5"/>
<path d="M460.501 291H434V295.733H460.501V291Z" fill="#E6E6E6"/>
<path d="M396.748 296H434V291.267H396.748V296Z" fill="#F5F5F5"/>
<path d="M451.109 407H456V245.025H451.109V407Z" fill="#E6E6E6"/>
<path d="M429.109 407H434V245.025H429.109V407Z" fill="#F5F5F5"/>
<path d="M397.109 407H402V245.025H397.109V407Z" fill="#F5F5F5"/>
<path d="M160.129 283H381V173.452L160.129 173.452L160.129 283Z" fill="#E0E0E0"/>
<path d="M154.704 283H378V173.452L154.704 173.452L154.704 283Z" fill="#F5F5F5"/>
<path d="M370 274.28V182H162.705V274.28H370Z" fill="white"/>
<path d="M296.092 441.681C385.613 441.681 458.184 437.723 458.184 432.841C458.184 427.958 385.613 424 296.092 424C206.571 424 134 427.958 134 432.841C134 437.723 206.571 441.681 296.092 441.681Z" fill="#F5F5F5"/>
<path d="M411.59 314.201H179.784C179.046 314.199 178.339 313.925 177.818 313.437C177.296 312.95 177.002 312.29 177 311.601C177.002 310.912 177.296 310.251 177.818 309.764C178.339 309.277 179.046 309.002 179.784 309H411.59C412.328 309.002 413.034 309.277 413.556 309.764C414.078 310.251 414.372 310.912 414.374 311.601C414.372 312.29 414.078 312.95 413.556 313.437C413.034 313.925 412.328 314.199 411.59 314.201Z" fill="#407BFF"/>
<path opacity="0.3" d="M411.049 314.201H356.784C356.046 314.199 355.339 313.925 354.818 313.437C354.296 312.95 354.002 312.29 354 311.601C354.002 310.912 354.296 310.251 354.818 309.764C355.339 309.277 356.046 309.002 356.784 309H411.049C411.786 309.002 412.493 309.277 413.015 309.764C413.536 310.251 413.83 310.912 413.833 311.601C413.83 312.29 413.536 312.95 413.015 313.437C412.493 313.925 411.786 314.199 411.049 314.201Z" fill="#263238"/>
<path d="M405.277 321H227V339.126H405.277V321Z" fill="#263238"/>
<path opacity="0.1" d="M405.277 321H227V339.126H405.277V321Z" fill="white"/>
<path d="M403.274 429.116H408.608L408.39 314H401L403.274 429.116Z" fill="#263238"/>
<path opacity="0.1" d="M403.274 429.116H408.608L408.39 314H401L403.274 429.116Z" fill="white"/>
<path d="M354.342 429.116H349L361.072 314H368.462L354.342 429.116Z" fill="#263238"/>
<path opacity="0.2" d="M354.342 429.116H349L361.072 314H368.462L354.342 429.116Z" fill="white"/>
<path d="M225.274 429.116H230.608L230.39 314H223L225.274 429.116Z" fill="#263238"/>
<path opacity="0.1" d="M225.274 429.116H230.608L230.39 314H223L225.274 429.116Z" fill="white"/>
<path d="M176.342 429.116H171L183.072 314H190.462L176.342 429.116Z" fill="#263238"/>
<path opacity="0.2" d="M176.342 429.116H171L183.072 314H190.462L176.342 429.116Z" fill="white"/>
<path d="M326.23 309.484H313.924L309 287H321.306L326.23 309.484Z" fill="#263238"/>
<path d="M342.421 304.589H289.034C288.619 304.593 288.207 304.517 287.825 304.365C287.443 304.213 287.099 303.988 286.815 303.706C286.53 303.423 286.312 303.088 286.173 302.723C286.034 302.357 285.978 301.969 286.008 301.582L288.048 270.007C288.11 269.198 288.496 268.44 289.127 267.884C289.758 267.327 290.59 267.012 291.459 267H344.854C345.269 266.997 345.68 267.074 346.061 267.226C346.443 267.379 346.786 267.603 347.071 267.886C347.355 268.168 347.573 268.502 347.713 268.867C347.852 269.232 347.909 269.62 347.88 270.007L345.84 301.582C345.776 302.391 345.389 303.149 344.756 303.706C344.123 304.262 343.29 304.577 342.421 304.589Z" fill="#263238"/>
<path d="M342.421 304.589H289.034C288.619 304.593 288.207 304.517 287.825 304.365C287.443 304.213 287.099 303.988 286.815 303.706C286.53 303.423 286.312 303.088 286.173 302.723C286.034 302.357 285.978 301.969 286.008 301.582L288.048 270.007C288.11 269.198 288.496 268.44 289.127 267.884C289.758 267.327 290.59 267.012 291.459 267H344.854C345.269 266.997 345.68 267.074 346.061 267.226C346.443 267.379 346.786 267.603 347.071 267.886C347.355 268.168 347.573 268.502 347.713 268.867C347.852 269.232 347.909 269.62 347.88 270.007L345.84 301.582C345.776 302.391 345.389 303.149 344.756 303.706C344.123 304.262 343.29 304.577 342.421 304.589Z" fill="#407BFF"/>
<path d="M288.357 303.488C288.172 303.489 287.988 303.455 287.817 303.388C287.646 303.321 287.491 303.222 287.362 303.098C287.237 302.968 287.14 302.816 287.078 302.651C287.016 302.486 286.991 302.311 287.003 302.137L289.043 270.562C289.074 270.145 289.27 269.754 289.593 269.466C289.916 269.177 290.343 269.011 290.79 269H344.185C344.372 268.997 344.557 269.031 344.729 269.099C344.901 269.167 345.055 269.268 345.183 269.395C345.31 269.523 345.408 269.673 345.469 269.838C345.531 270.003 345.555 270.177 345.54 270.351L343.5 301.926C343.471 302.344 343.275 302.736 342.951 303.025C342.628 303.314 342.2 303.479 341.753 303.488H288.357Z" fill="white"/>
<path opacity="0.2" d="M312 267L315.469 278.098L325.769 267H312Z" fill="black"/>
<path d="M229.012 240.15C229.096 240.751 229.497 241.204 229.924 241.173C230.35 241.141 230.617 240.626 230.534 240.025C230.45 239.423 230.049 238.97 229.631 239.002C229.213 239.033 228.937 239.564 229.012 240.15Z" fill="#263238"/>
<path d="M230 241C230.753 242.559 231.726 244.017 232.893 245.334C231.973 246.201 230.293 245.85 230.293 245.85L230 241Z" fill="#A02724"/>
<path d="M227.428 237.574C227.364 237.585 227.299 237.585 227.235 237.574C227.143 237.537 227.069 237.467 227.03 237.379C226.991 237.292 226.99 237.194 227.026 237.106C227.244 236.586 227.593 236.123 228.045 235.757C228.496 235.391 229.036 235.133 229.618 235.005C229.667 234.997 229.717 234.999 229.765 235.009C229.814 235.019 229.859 235.038 229.9 235.065C229.94 235.092 229.974 235.126 230.001 235.165C230.027 235.205 230.045 235.248 230.053 235.294C230.07 235.387 230.047 235.483 229.989 235.56C229.931 235.638 229.843 235.691 229.743 235.708C229.288 235.811 228.866 236.017 228.516 236.309C228.166 236.6 227.899 236.968 227.737 237.379C227.706 237.433 227.662 237.478 227.608 237.512C227.554 237.546 227.492 237.568 227.428 237.574Z" fill="#263238"/>
<path d="M210.226 250L215.242 253.592L222.089 258.489C221.714 259.225 221.487 260.019 221.42 260.832C221.178 262.628 220.935 263.956 225.207 265.057C225.661 265.158 226.074 265.379 226.397 265.694C226.72 266.008 226.94 266.402 227.03 266.83C227.197 267.892 226.503 269.173 222.557 269.806C218.735 270.339 214.831 269.718 211.413 268.033C209.741 267.252 209.741 266.315 210.444 264.729C212.55 260.223 211.53 254.475 210.226 250Z" fill="#B55B52"/>
<path d="M204 265.583C204.963 263.852 205.758 262.043 206.374 260.179C206.374 260.179 219.081 259.531 223.278 260.702C227.475 261.874 230.083 266.95 230.083 266.95L204 265.583Z" fill="#407BFF"/>
<path d="M210.077 274.702C209.768 275.577 209.425 276.646 209.099 277.63L208.154 280.676C207.569 282.707 207 284.745 206.557 286.776C206.086 288.761 205.726 290.769 205.479 292.789C205.221 294.646 205.159 296.521 205.295 298.389C205.344 299.179 205.473 299.964 205.679 300.732C205.73 300.888 205.771 301.06 205.83 301.208L205.997 301.63C205.958 301.554 205.913 301.481 205.863 301.411C205.778 301.297 205.686 301.188 205.588 301.083C205.478 300.964 205.354 300.857 205.22 300.763C205.052 300.654 205.027 300.669 205.061 300.708C205.306 300.873 205.569 301.012 205.847 301.122C206.223 301.278 206.683 301.435 207.142 301.583C208.087 301.88 209.132 302.153 210.211 302.419C214.524 303.434 219.231 304.223 223.821 305.137L223.67 310.549C221.219 310.854 218.752 311.045 216.28 311.119C213.772 311.204 211.26 311.165 208.756 311.002C207.43 310.919 206.11 310.767 204.802 310.549C204.116 310.432 203.406 310.299 202.653 310.104C201.788 309.895 200.947 309.604 200.145 309.237C199.551 308.969 198.991 308.642 198.473 308.26C198.107 307.988 197.768 307.685 197.462 307.354C197.27 307.143 197.091 306.921 196.927 306.691C196.843 306.558 196.751 306.425 196.676 306.292L196.567 306.105L195.99 305.004C195.815 304.637 195.673 304.277 195.522 303.91C194.995 302.543 194.614 301.131 194.385 299.693C193.549 294.265 194.21 289.423 195.079 284.714C195.547 282.371 196.099 280.028 196.751 277.802C197.085 276.67 197.437 275.537 197.813 274.421C198.189 273.304 198.59 272.226 199.075 271L210.077 274.702Z" fill="#B55B52"/>
<path d="M201.948 264.365C209.849 262.413 214.539 268.458 211.863 278.423C209.188 288.388 208.294 288.763 208.294 288.763L192 286.225C194.006 276.463 193.848 266.357 201.948 264.365Z" fill="#407BFF"/>
<path d="M227.31 303.109L226.081 303C222.586 303 221.985 303.898 219.836 305.765L219 309.873C224.643 312.567 227.669 309.607 227.678 309.607H232.903L231.063 305.702C230.743 304.996 230.225 304.384 229.565 303.928C228.905 303.472 228.126 303.189 227.31 303.109Z" fill="#B55B52"/>
<path d="M208.199 241.985C209.62 249.099 210.063 253.332 214.427 256.511C220.982 261.283 230.01 256.745 230.897 249.341C231.691 242.68 229.225 232.16 221.349 230.293C219.593 229.888 217.756 229.903 216.007 230.336C214.259 230.769 212.655 231.607 211.345 232.772C210.034 233.937 209.059 235.392 208.509 237.002C207.959 238.612 207.853 240.326 208.199 241.985Z" fill="#B55B52"/>
<path d="M222.82 244.314C228.254 243.908 226.666 238.558 224.985 237.441C227.535 236.535 229.291 232.755 226.841 230.162C228.279 226.656 224.166 222.431 216.951 223.063C211.684 223.516 211.099 226.117 211.099 226.117C211.099 226.117 204.787 225.5 202.162 230.366C199.922 234.536 202.639 236.762 202.639 236.762C202.639 236.762 197.924 238.043 199.228 243.791C200.616 249.992 205.715 248.555 205.715 248.555C205.715 248.555 204.57 254.24 211.467 254.318C217.428 254.388 217.503 250.218 217.503 250.218C217.503 250.218 225.228 249.546 222.82 244.314Z" fill="#263238"/>
<path d="M219.24 244.776C219.85 246.303 221.04 247.565 222.584 248.322C224.574 249.275 226.095 247.299 225.744 245.268C225.427 243.449 223.729 241.114 221.631 241.004C219.533 240.895 218.496 242.886 219.24 244.776Z" fill="#B55B52"/>
<path d="M300.25 420.501L307.682 417.682L302.432 401L295 403.819L300.25 420.501Z" fill="#B55B52"/>
<path opacity="0.2" d="M297.55 411.902L305.057 409.333L302.432 401L295 403.819L297.55 411.902Z" fill="black"/>
<path d="M306.903 414.884L298.401 417.64C298.33 417.661 298.264 417.694 298.206 417.739C298.149 417.783 298.101 417.838 298.066 417.899C298.031 417.961 298.01 418.029 298.003 418.098C297.995 418.167 298.003 418.238 298.025 418.304L299.948 424.724C300.072 425.054 300.329 425.326 300.665 425.481C301.002 425.636 301.389 425.661 301.745 425.552C304.68 424.536 305.867 423.99 309.495 422.521C313.067 421.126 316.56 419.562 319.962 417.836C322.796 416.274 321.09 413.611 319.711 414.048C316.442 415.079 311.083 415.75 308.366 414.876C307.891 414.726 307.377 414.729 306.903 414.884Z" fill="#263238"/>
<path d="M239.902 324.164C239.902 324.164 296.073 328.85 297.528 343.946C300.454 374.662 304.943 404.276 304.943 404.276L293.515 408.181C293.515 408.181 279.529 374.443 279.712 350.389C263.511 346.117 220.908 352.388 213.944 340.713C207.791 330.404 213.192 323 213.192 323L239.902 324.164Z" fill="#263238"/>
<path d="M293.433 410.551L307.661 406.06L307.043 400L291 404.834L293.433 410.551Z" fill="#407BFF"/>
<path d="M310.319 415.14C309.635 415.345 308.928 415.479 308.212 415.539C308.176 415.543 308.139 415.537 308.106 415.522C308.073 415.507 308.046 415.482 308.028 415.453C308.01 415.424 308 415.392 308 415.359C308 415.326 308.01 415.293 308.028 415.265C308.212 415.031 309.851 412.969 310.896 413C311.015 413.007 311.131 413.041 311.233 413.1C311.336 413.158 311.421 413.239 311.481 413.336C311.59 413.474 311.657 413.636 311.676 413.807C311.695 413.977 311.665 414.149 311.59 414.305C311.291 414.72 310.838 415.017 310.319 415.14ZM308.647 415.14C310.093 414.953 311.08 414.594 311.305 414.148C311.353 414.046 311.369 413.934 311.353 413.824C311.336 413.714 311.288 413.61 311.213 413.524C311.187 413.473 311.147 413.431 311.097 413.401C311.047 413.37 310.989 413.353 310.929 413.352C310.327 413.328 309.291 414.336 308.605 415.14H308.647Z" fill="#407BFF"/>
<path d="M307.839 415.604C307.809 415.612 307.777 415.612 307.747 415.604C307.716 415.599 307.687 415.587 307.662 415.569C307.638 415.552 307.618 415.528 307.605 415.502C307.605 415.416 306.643 413.44 307.145 412.503C307.21 412.383 307.303 412.279 307.417 412.197C307.532 412.116 307.664 412.06 307.805 412.034C307.959 411.986 308.126 411.989 308.278 412.041C308.43 412.094 308.558 412.193 308.641 412.323C309.101 413.042 308.524 414.877 307.931 415.541C307.908 415.57 307.876 415.592 307.839 415.604ZM307.839 412.402C307.768 412.424 307.702 412.46 307.646 412.507C307.59 412.554 307.545 412.611 307.513 412.675C307.212 413.229 307.58 414.416 307.856 415.08C308.315 414.346 308.65 412.979 308.349 412.511C308.29 412.425 308.19 412.323 307.922 412.378L307.839 412.402Z" fill="#407BFF"/>
<path d="M260 425.877L267.942 425.525L269.238 408L261.296 408.351L260 425.877Z" fill="#B55B52"/>
<path d="M268.267 424.267L259.272 424.002C259.197 423.996 259.122 424.005 259.051 424.027C258.98 424.049 258.914 424.083 258.857 424.129C258.8 424.175 258.754 424.23 258.72 424.293C258.687 424.356 258.667 424.424 258.661 424.494L258.001 431.124C257.994 431.3 258.025 431.476 258.091 431.641C258.157 431.805 258.258 431.957 258.387 432.085C258.516 432.213 258.671 432.317 258.843 432.389C259.015 432.461 259.2 432.501 259.389 432.506C262.524 432.545 264.02 432.42 267.974 432.506C270.407 432.577 275.197 432.912 278.533 432.506C281.869 432.1 281.359 429.047 279.904 428.929C276.468 428.672 271.862 426.454 269.663 424.728C269.268 424.429 268.775 424.267 268.267 424.267Z" fill="#263238"/>
<path d="M271.267 425.87C270.549 425.831 269.837 425.721 269.143 425.542C269.108 425.534 269.076 425.517 269.051 425.493C269.026 425.468 269.009 425.437 269.003 425.404C268.996 425.37 269.001 425.336 269.016 425.305C269.03 425.274 269.054 425.248 269.085 425.229C269.344 425.065 271.66 423.668 272.63 424.074C272.739 424.118 272.835 424.189 272.908 424.277C272.981 424.366 273.029 424.471 273.048 424.581C273.096 424.746 273.097 424.919 273.05 425.084C273.003 425.248 272.91 425.398 272.78 425.518C272.342 425.812 271.801 425.938 271.267 425.87ZM269.662 425.3C271.083 425.612 272.17 425.604 272.529 425.3C272.612 425.218 272.669 425.116 272.695 425.006C272.722 424.897 272.716 424.782 272.68 424.675C272.672 424.621 272.649 424.569 272.614 424.526C272.579 424.482 272.533 424.447 272.479 424.425C271.927 424.191 270.573 424.777 269.595 425.3H269.662Z" fill="#407BFF"/>
<path d="M269.189 425.333C269.158 425.34 269.127 425.34 269.097 425.333C269.07 425.317 269.047 425.295 269.031 425.269C269.015 425.244 269.006 425.215 269.005 425.185C269.005 425.099 268.896 422.943 269.724 422.241C269.832 422.141 269.966 422.069 270.112 422.031C270.258 421.993 270.412 421.99 270.56 422.022C270.72 422.03 270.872 422.089 270.992 422.188C271.112 422.287 271.192 422.421 271.22 422.569C271.371 423.389 270.125 424.912 269.314 425.333C269.274 425.348 269.229 425.348 269.189 425.333ZM270.384 422.358C270.309 422.353 270.234 422.363 270.163 422.387C270.093 422.411 270.028 422.449 269.974 422.498C269.481 422.912 269.373 424.146 269.373 424.841C270.083 424.31 270.919 423.147 270.819 422.608C270.819 422.506 270.735 422.389 270.468 422.35L270.384 422.358Z" fill="#407BFF"/>
<path opacity="0.2" d="M261.719 408.351L269.669 408L268.917 418.02L261 418.004L261.719 408.351Z" fill="black"/>
<path d="M221.213 323.984C221.213 323.984 281.739 332.629 280.778 345.648C279.048 369.078 270.637 414.866 270.637 414.866L258.716 415.023C258.716 415.023 255.899 368.055 260.388 350.936C245.499 350.936 203.498 350.451 197.772 343.305C191.435 335.41 197.947 323 197.947 323L221.213 323.984Z" fill="#263238"/>
<path d="M257.694 415.333L272.123 415.13L272.834 408L257 408.586L257.694 415.333Z" fill="#407BFF"/>
<path d="M231.906 263.667C227.032 262.777 205.054 263.035 205.054 263.035C202.857 262.978 200.717 263.694 199.058 265.041C197.399 266.387 196.34 268.266 196.092 270.306C195.323 276.639 199.628 290.791 199.779 298.007C199.963 306.871 198.148 310.463 197.965 322.397L239.907 324.193C239.907 300.194 238.786 280.325 237.775 270.798C237.415 267.447 236.78 264.55 231.906 263.667Z" fill="#407BFF"/>
<path opacity="0.3" d="M231.906 263.667C227.032 262.777 205.054 263.035 205.054 263.035C202.857 262.978 200.717 263.694 199.058 265.041C197.399 266.387 196.34 268.266 196.092 270.306C195.323 276.639 199.628 290.791 199.779 298.007C199.963 306.871 198.148 310.463 197.965 322.397L239.907 324.193C239.907 300.194 238.786 280.325 237.775 270.798C237.415 267.447 236.78 264.55 231.906 263.667Z" fill="white"/>
<path d="M238.428 272C239.741 276.217 241.062 280.552 242.424 284.785C243.787 289.018 245.183 293.274 246.755 297.28C247.139 298.303 247.591 299.256 247.959 300.24L248.602 301.622L248.686 301.794V301.88V301.927V301.872C248.541 301.631 248.361 301.411 248.151 301.216C247.867 300.959 247.758 300.935 247.733 300.935C247.919 301.092 248.134 301.217 248.368 301.302C248.777 301.487 249.199 301.646 249.631 301.779C250.575 302.083 251.637 302.357 252.715 302.63C257.088 303.669 261.861 304.465 266.509 305.395L266.359 310.807C263.863 311.121 261.352 311.312 258.835 311.377C256.287 311.468 253.736 311.424 251.194 311.244C249.842 311.154 248.497 310.992 247.164 310.76C246.462 310.635 245.735 310.479 244.949 310.268C244.017 310.024 243.119 309.678 242.274 309.237C241.6 308.876 240.982 308.432 240.435 307.917C240.017 307.515 239.657 307.063 239.364 306.574L239.08 306.082L238.136 304.411C237.584 303.317 236.982 302.216 236.464 301.13C235.435 298.936 234.532 296.765 233.629 294.586C232.727 292.407 231.957 290.228 231.18 288.041C229.633 283.644 228.237 279.294 227 274.765L238.428 272Z" fill="#B55B52"/>
<path d="M226.546 266.708C232.281 261.241 239.612 264.224 242.764 274.096C245.916 283.968 245.347 284.686 245.347 284.686L229.94 290.27C226.303 280.867 220.677 272.276 226.546 266.708Z" fill="#407BFF"/>
<path d="M270.301 303.109L269.073 303C265.578 303 264.985 303.898 262.836 305.765L262 309.873C267.643 312.567 270.669 309.607 270.669 309.607H275.903L274.055 305.702C273.736 304.995 273.219 304.382 272.558 303.926C271.898 303.469 271.119 303.188 270.301 303.109Z" fill="#B55B52"/>
<path d="M200.297 353H253.868C255.046 353 256 352.108 256 351.008V347.791C256 346.691 255.046 345.799 253.868 345.799H200.297C199.12 345.799 198.166 346.691 198.166 347.791V351.008C198.166 352.108 199.12 353 200.297 353Z" fill="#407BFF"/>
<path d="M200.374 433.175H198L200.734 353H204.019L200.374 433.175Z" fill="#407BFF"/>
<path opacity="0.4" d="M200.374 433.175H198L200.734 353H204.019L200.374 433.175Z" fill="white"/>
<path d="M222.637 433.175H225.011L222.285 353H219L222.637 433.175Z" fill="#407BFF"/>
<path opacity="0.4" d="M222.637 433.175H225.011L222.285 353H219L222.637 433.175Z" fill="white"/>
<path d="M231.374 433.175H229L231.734 353H235.019L231.374 433.175Z" fill="#407BFF"/>
<path opacity="0.4" d="M231.374 433.175H229L231.734 353H235.019L231.374 433.175Z" fill="white"/>
<path d="M253.637 433.175H256.011L253.285 353H250L253.637 433.175Z" fill="#407BFF"/>
<path opacity="0.4" d="M253.637 433.175H256.011L253.285 353H250L253.637 433.175Z" fill="white"/>
<g opacity="0.3">
<path opacity="0.3" d="M201.117 353H204.403L204.244 356.413H201L201.117 353Z" fill="#407BFF"/>
<path opacity="0.3" d="M222.394 356.413H219.15L219 353H222.277L222.394 356.413Z" fill="#407BFF"/>
<path opacity="0.3" d="M235.394 353L235.244 356.413H232L232.117 353H235.394Z" fill="#407BFF"/>
<path opacity="0.3" d="M253.403 356.413H250.15L250 353H253.286L253.403 356.413Z" fill="#407BFF"/>
</g>
<path d="M411.504 255.241H277.602C276.562 255.251 275.53 255.059 274.573 254.678C273.616 254.297 272.754 253.735 272.042 253.026C271.329 252.318 270.781 251.479 270.433 250.563C270.085 249.647 269.944 248.674 270.02 247.705L275.128 168.537C275.288 166.508 276.256 164.61 277.841 163.215C279.425 161.82 281.511 161.03 283.688 161H417.557C418.597 160.99 419.629 161.182 420.586 161.563C421.543 161.944 422.405 162.507 423.118 163.215C423.83 163.923 424.378 164.762 424.726 165.678C425.074 166.594 425.215 167.567 425.139 168.537L420.023 247.736C419.857 249.753 418.892 251.639 417.317 253.027C415.742 254.415 413.669 255.204 411.504 255.241Z" fill="#407BFF"/>
<path d="M296 239L308.348 278.471L344.981 239H296Z" fill="#407BFF"/>
<path opacity="0.1" d="M405.305 223.826H330.266C329.683 223.832 329.104 223.725 328.567 223.511C328.03 223.297 327.547 222.982 327.147 222.585C326.747 222.188 326.44 221.718 326.244 221.204C326.049 220.691 325.969 220.145 326.011 219.601L328.878 175.226C328.968 174.089 329.51 173.024 330.399 172.242C331.287 171.46 332.456 171.017 333.677 171.001H408.716C409.302 170.989 409.883 171.092 410.423 171.304C410.963 171.516 411.449 171.831 411.85 172.229C412.251 172.627 412.558 173.1 412.751 173.616C412.945 174.133 413.02 174.681 412.971 175.226L410.104 219.601C410.014 220.738 409.472 221.803 408.584 222.585C407.695 223.367 406.526 223.81 405.305 223.826Z" fill="white"/>
<path opacity="0.1" d="M365.305 242.826H290.258C289.675 242.831 289.097 242.723 288.562 242.508C288.026 242.294 287.543 241.979 287.144 241.582C286.745 241.185 286.439 240.715 286.243 240.202C286.048 239.689 285.969 239.144 286.011 238.601L288.878 194.226C288.968 193.09 289.509 192.027 290.396 191.245C291.282 190.463 292.45 190.019 293.669 190.001H368.716C369.301 189.99 369.881 190.094 370.42 190.306C370.959 190.518 371.444 190.834 371.844 191.232C372.245 191.63 372.551 192.102 372.744 192.618C372.936 193.134 373.011 193.681 372.963 194.226L370.096 238.601C370.006 239.737 369.465 240.8 368.578 241.582C367.692 242.364 366.524 242.808 365.305 242.826Z" fill="white"/>
<g opacity="0.5">
<path opacity="0.5" d="M289.465 168.343C289.45 168.943 289.196 169.515 288.752 169.949C288.308 170.382 287.707 170.645 287.066 170.686C286.762 170.672 286.464 170.598 286.192 170.469C285.92 170.341 285.68 170.16 285.487 169.939C285.295 169.718 285.154 169.462 285.075 169.187C284.996 168.912 284.979 168.624 285.026 168.343C285.045 167.744 285.301 167.174 285.744 166.741C286.187 166.308 286.786 166.044 287.426 166C287.73 166.014 288.028 166.088 288.3 166.217C288.572 166.345 288.812 166.526 289.004 166.747C289.197 166.968 289.337 167.224 289.417 167.499C289.496 167.774 289.513 168.062 289.465 168.343Z" fill="white"/>
<path opacity="0.5" d="M297.474 168.343C297.457 168.942 297.202 169.514 296.758 169.947C296.315 170.38 295.714 170.643 295.074 170.686C294.769 170.673 294.47 170.6 294.197 170.472C293.924 170.343 293.683 170.163 293.49 169.942C293.297 169.721 293.156 169.464 293.076 169.189C292.996 168.913 292.979 168.625 293.026 168.343C293.045 167.744 293.301 167.174 293.744 166.741C294.187 166.308 294.786 166.044 295.426 166C295.73 166.014 296.029 166.088 296.301 166.217C296.573 166.345 296.814 166.526 297.007 166.746C297.2 166.967 297.341 167.223 297.421 167.498C297.502 167.773 297.52 168.061 297.474 168.343Z" fill="white"/>
<path opacity="0.5" d="M305.465 168.343C305.45 168.943 305.196 169.515 304.752 169.949C304.308 170.382 303.707 170.645 303.066 170.686C302.762 170.672 302.464 170.598 302.192 170.469C301.92 170.341 301.68 170.16 301.487 169.939C301.295 169.718 301.154 169.462 301.075 169.187C300.996 168.912 300.979 168.624 301.026 168.343C301.045 167.744 301.301 167.174 301.744 166.741C302.187 166.308 302.786 166.044 303.426 166C303.73 166.014 304.028 166.088 304.3 166.217C304.572 166.345 304.812 166.526 305.004 166.747C305.197 166.968 305.337 167.224 305.417 167.499C305.496 167.774 305.513 168.062 305.465 168.343Z" fill="white"/>
</g>
<path opacity="0.3" d="M410.679 254.639H276.811C275.742 254.647 274.683 254.448 273.701 254.055C272.718 253.663 271.833 253.084 271.102 252.357C270.37 251.629 269.807 250.768 269.449 249.828C269.09 248.887 268.944 247.888 269.019 246.892L274.135 167.724C274.296 165.646 275.285 163.7 276.907 162.27C278.53 160.84 280.667 160.03 282.897 160H416.732C417.801 159.992 418.859 160.191 419.842 160.584C420.824 160.977 421.709 161.555 422.441 162.282C423.173 163.01 423.735 163.871 424.094 164.812C424.452 165.752 424.598 166.752 424.523 167.748L419.415 246.915C419.253 248.989 418.267 250.931 416.651 252.36C415.034 253.789 412.904 254.602 410.679 254.639ZM282.897 160.399C280.77 160.423 278.73 161.192 277.182 162.555C275.634 163.917 274.69 165.773 274.537 167.755L269.42 246.923C269.346 247.866 269.483 248.813 269.821 249.705C270.159 250.596 270.691 251.412 271.384 252.102C272.077 252.791 272.916 253.338 273.847 253.709C274.778 254.08 275.782 254.266 276.794 254.256H410.679C412.806 254.23 414.844 253.46 416.392 252.098C417.94 250.736 418.885 248.881 419.039 246.9L424.147 167.732C424.219 166.786 424.08 165.836 423.738 164.943C423.397 164.05 422.861 163.233 422.164 162.544C421.467 161.854 420.624 161.308 419.689 160.938C418.754 160.569 417.747 160.385 416.732 160.399H282.897Z" fill="#263238"/>
<path d="M338.218 208.626C337.65 209.751 337.131 210.711 336.546 211.75C335.961 212.789 335.376 213.726 334.774 214.702C333.545 216.647 332.266 218.607 330.895 220.434C330.204 221.372 329.496 222.301 328.771 223.223C328.011 224.128 327.292 225.05 326.481 225.933C324.899 227.762 323.193 229.494 321.373 231.118C320.913 231.54 320.411 231.899 319.926 232.344C319.445 232.766 318.937 233.16 318.405 233.524L316.8 234.656L316.307 234.976C316.088 235.106 315.862 235.223 315.629 235.328C315.17 235.534 314.688 235.691 314.191 235.796C313.21 236.01 312.19 236.018 311.205 235.818C310.221 235.618 309.296 235.216 308.498 234.64C308.103 234.349 307.741 234.019 307.42 233.656L307.194 233.375L307.085 233.235L307.044 233.172L306.893 232.922L306.291 231.907C306.107 231.579 305.982 231.267 305.831 230.946C305.305 229.768 304.874 228.554 304.544 227.315C303.962 225.057 303.554 222.763 303.323 220.45C303.079 218.198 302.973 215.935 303.006 213.671C303.024 213.029 303.286 212.414 303.747 211.937C304.207 211.46 304.835 211.152 305.517 211.069C306.199 210.986 306.89 211.133 307.466 211.484C308.041 211.836 308.464 212.367 308.657 212.984V213.078C309.765 217.058 311.136 220.97 312.762 224.792C313.134 225.601 313.567 226.384 314.058 227.135C314.166 227.291 314.275 227.479 314.384 227.612L314.701 227.971L314.777 228.065L314.735 228.002L314.643 227.885C314.512 227.725 314.36 227.581 314.191 227.455C313.858 227.204 313.47 227.023 313.055 226.924C312.638 226.842 312.208 226.842 311.792 226.924C311.576 226.967 311.366 227.033 311.165 227.12C311.056 227.12 310.965 227.221 310.864 227.268C310.764 227.315 310.613 227.432 310.722 227.346L311.767 226.393C312.118 226.097 312.461 225.737 312.804 225.394C313.146 225.05 313.498 224.714 313.832 224.347C316.588 221.259 319.097 217.986 321.339 214.554C322.485 212.812 323.613 211.039 324.683 209.243L326.297 206.541L327.827 203.901L327.91 203.761C328.636 202.547 329.835 201.643 331.258 201.236C332.68 200.829 334.216 200.952 335.544 201.578C336.872 202.203 337.89 203.285 338.386 204.595C338.881 205.906 338.815 207.344 338.201 208.61L338.218 208.626Z" fill="#263238"/>
<path d="M304.071 213.357L300 211.178L304.381 207C305.665 207.889 306.854 208.89 307.934 209.991C308.188 210.243 308.375 210.547 308.481 210.879C308.587 211.211 308.608 211.561 308.543 211.902C308.478 212.242 308.329 212.564 308.107 212.841C307.885 213.119 307.597 213.343 307.265 213.498C306.76 213.717 306.206 213.818 305.65 213.794C305.094 213.769 304.552 213.619 304.071 213.357Z" fill="#FFC3BD"/>
<path d="M298.566 206.718L300.782 205.242C301.07 205.046 301.428 204.965 301.78 205.014C302.132 205.064 302.449 205.241 302.663 205.507L303.875 207.015L299.494 211.193L298.115 208.256C297.989 207.991 297.966 207.693 298.048 207.412C298.13 207.132 298.313 206.887 298.566 206.718Z" fill="#FFC3BD"/>
<path d="M329.531 204.818C329.863 203.798 330.49 202.883 331.342 202.173C332.194 201.463 333.24 200.987 334.363 200.796C335.986 200.461 337.631 200.227 339.287 200.093C344.273 199.912 349.267 199.995 354.243 200.343C356.851 200.507 359.518 200.851 361.642 201.179H361.717C362.841 201.353 363.846 201.937 364.511 202.802C365.175 203.668 365.445 204.744 365.262 205.795C364.217 211.433 361.148 221.242 360.814 230.497C360.371 242.649 360.572 249.646 360.346 252.575L326.864 251.974C324.532 222.273 327.433 211.543 329.531 204.818Z" fill="white"/>
<path d="M362.225 200.961H362.125C359.884 200.617 357.109 200.25 354.325 200.078L352.837 200C351.374 205.654 342.654 215.167 340.013 229.583C338.993 217.533 338.207 204.936 339.703 200.023C337.337 200.091 334.976 200.276 332.631 200.578C331.39 200.84 330.246 201.405 329.315 202.214C328.384 203.023 327.7 204.049 327.331 205.186C325.274 210.84 321.345 223.507 323.761 254.653H360.971C361.214 251.529 360.344 244.969 361.69 234.871C362.986 225.093 364.85 211.785 365.945 205.842C366.142 204.734 365.86 203.599 365.163 202.684C364.466 201.77 363.41 201.15 362.225 200.961Z" fill="#263238"/>
<path opacity="0.2" d="M339.457 252.9C339.4 252.902 339.345 252.884 339.303 252.849C339.261 252.814 339.235 252.765 339.231 252.713C338.445 243.927 339.916 231.314 339.933 231.181C339.936 231.154 339.945 231.128 339.959 231.105C339.973 231.081 339.992 231.061 340.014 231.044C340.037 231.027 340.063 231.015 340.09 231.008C340.118 231 340.147 230.998 340.176 231.001C340.234 231.007 340.288 231.034 340.325 231.077C340.363 231.119 340.381 231.173 340.376 231.228C340.376 231.353 338.888 243.934 339.674 252.674C339.677 252.701 339.675 252.729 339.667 252.755C339.658 252.781 339.644 252.806 339.626 252.827C339.607 252.848 339.584 252.866 339.557 252.878C339.531 252.891 339.503 252.898 339.473 252.9H339.457Z" fill="white"/>
<path opacity="0.3" d="M360.732 212.754C359.353 218.596 360.088 226.687 361.568 234.067C362.663 225.781 364.16 215.027 365.255 208.373C363.725 207.42 361.827 208.092 360.732 212.754Z" fill="black"/>
<path d="M340.177 200.377C344.516 199.487 345.268 196.988 344.959 194.223C344.882 193.533 344.762 192.847 344.599 192.169L350.017 188.03L354.004 185C352.917 189.483 351.722 197.66 354.999 200.713C354.999 200.713 352.324 204.813 344.883 204.314C338.597 203.892 340.177 200.377 340.177 200.377Z" fill="#FFC3BD"/>
<path d="M346.204 203L345 204.07L348.846 205.421L348.344 204.054L346.204 203Z" fill="#E0E0E0"/>
<path d="M348.943 207.177C348.943 207.177 347.43 203.608 346 202.85C348.812 202.224 351.387 200.893 353.449 199L355.731 199.851C355.731 199.851 356.45 203.99 348.943 207.177Z" fill="#F5F5F5"/>
<path d="M344.143 203L345.046 204.343L341 204.671L341.811 203.476L344.143 203Z" fill="#E0E0E0"/>
<path d="M339.26 206.029C340.742 204.553 342.495 203.337 344.434 202.436C342.236 201.827 342.102 199 342.102 199L339.97 199.383C339.97 199.383 336.058 202.936 339.26 206.029Z" fill="#F5F5F5"/>
<path opacity="0.2" d="M344 192.131C344.163 192.812 344.283 193.5 344.359 194.193C346.383 193.85 349.091 191.85 349.375 189.937C349.472 189.295 349.491 188.646 349.434 188L344 192.131Z" fill="black"/>
<path d="M338.194 171.717C336.254 173.943 336.438 181.994 340.543 182.088C344.648 182.182 341.722 167.656 338.194 171.717Z" fill="#263238"/>
<path d="M355.698 176.871C355.289 182.971 355.372 186.555 352.078 189.711C347.129 194.451 339.104 191.725 337.557 185.657C336.178 180.19 337.081 171.139 343.459 168.663C344.852 168.106 346.375 167.895 347.881 168.049C349.388 168.203 350.826 168.718 352.056 169.543C353.287 170.369 354.269 171.477 354.907 172.761C355.545 174.044 355.818 175.46 355.698 176.871Z" fill="#FFC3BD"/>
<path d="M352.601 172.531C348.496 176.334 353.83 179.122 351.765 181.168C355.635 183.058 354.214 184.448 354.214 184.448C353.813 185.488 353.813 186.626 354.214 187.666C358.578 186.62 366.679 173.077 357.834 171C352.542 173.202 352.601 172.531 352.601 172.531Z" fill="#263238"/>
<path d="M354.069 175.26C350.181 175.822 345.291 174.088 342.256 172.62C339.221 171.152 338.778 173.924 339.898 174.768C337.951 174.83 335.484 173.393 336.095 170.183C336.655 167.255 340.76 164.482 346.603 166.958C350.741 168.707 355.841 166.403 357.831 168.426C359.82 170.449 356.66 174.877 354.069 175.26Z" fill="#263238"/>
<path d="M357 170.553C359.608 170.233 359.717 168.694 358.99 166C361.807 169.741 360.662 170.889 358.99 171.795C357.125 171.209 357 170.553 357 170.553Z" fill="#263238"/>
<path d="M356.964 182.202C356.386 183.395 355.377 184.36 354.114 184.928C352.5 185.607 351.681 184.217 352.116 182.585C352.508 181.109 353.788 178.984 355.46 179C357.132 179.016 357.692 180.695 356.964 182.202Z" fill="#FFC3BD"/>
<path d="M345.221 178.898C345.221 179.39 344.936 179.796 344.594 179.804C344.251 179.812 344 179.406 344 178.898C344 178.39 344.284 178 344.627 178C344.97 178 345.221 178.398 345.221 178.898Z" fill="#263238"/>
<path d="M339.254 178.89C339.254 179.39 338.97 179.788 338.619 179.796C338.268 179.804 337.992 179.398 338 178.898C338.009 178.398 338.276 178 338.627 178C338.978 178 339.254 178.398 339.254 178.89Z" fill="#263238"/>
<path d="M341.508 179C340.883 180.521 340.039 181.956 339 183.264C339.36 183.5 339.771 183.661 340.204 183.735C340.637 183.809 341.082 183.795 341.508 183.694V179Z" fill="#ED847E"/>
<path d="M343.769 185.886C344.376 185.822 344.962 185.641 345.491 185.355C346.019 185.069 346.477 184.683 346.837 184.222C346.86 184.19 346.867 184.151 346.859 184.114C346.85 184.076 346.826 184.044 346.791 184.023C346.757 184.002 346.715 183.995 346.675 184.003C346.635 184.011 346.6 184.034 346.578 184.066C346.176 184.557 345.657 184.954 345.062 185.225C344.467 185.496 343.813 185.634 343.151 185.628C343.13 185.628 343.11 185.632 343.091 185.639C343.072 185.647 343.055 185.658 343.041 185.672C343.027 185.686 343.016 185.702 343.009 185.72C343.002 185.738 342.999 185.757 343 185.776C343 185.795 343.004 185.814 343.012 185.832C343.021 185.85 343.032 185.865 343.047 185.879C343.062 185.892 343.08 185.902 343.099 185.909C343.118 185.915 343.139 185.918 343.159 185.917C343.376 185.886 343.577 185.886 343.769 185.886Z" fill="#263238"/>
<path d="M348.585 177.648C348.638 177.645 348.688 177.626 348.727 177.593C348.761 177.571 348.789 177.542 348.81 177.51C348.831 177.477 348.845 177.44 348.851 177.402C348.856 177.364 348.853 177.325 348.842 177.288C348.831 177.251 348.812 177.217 348.786 177.187C348.499 176.817 348.122 176.517 347.686 176.31C347.249 176.104 346.767 175.997 346.278 176C346.238 176.003 346.198 176.013 346.162 176.031C346.126 176.048 346.095 176.072 346.069 176.101C346.043 176.131 346.024 176.164 346.012 176.201C346.001 176.237 345.997 176.275 346.002 176.312C346.01 176.39 346.051 176.462 346.115 176.513C346.179 176.564 346.261 176.59 346.345 176.586C346.733 176.582 347.116 176.667 347.462 176.833C347.807 176.999 348.103 177.241 348.326 177.539C348.357 177.575 348.396 177.604 348.441 177.623C348.487 177.642 348.536 177.65 348.585 177.648Z" fill="#263238"/>
<path d="M336.365 177.079C336.414 177.072 336.462 177.055 336.502 177.028C336.543 177 336.576 176.964 336.599 176.923C336.759 176.585 337.002 176.287 337.308 176.053C337.615 175.82 337.976 175.657 338.363 175.579C338.404 175.576 338.444 175.564 338.479 175.545C338.515 175.526 338.546 175.5 338.571 175.469C338.595 175.438 338.613 175.403 338.621 175.365C338.63 175.328 338.63 175.289 338.622 175.251C338.608 175.176 338.564 175.109 338.499 175.062C338.433 175.016 338.352 174.994 338.271 175.001C337.783 175.091 337.326 175.288 336.936 175.576C336.547 175.864 336.236 176.235 336.03 176.657C335.995 176.727 335.99 176.806 336.017 176.879C336.043 176.952 336.099 177.012 336.172 177.047C336.232 177.073 336.299 177.084 336.365 177.079Z" fill="#263238"/>
<path d="M367.037 204.15C368.057 206.157 368.91 208.055 369.746 210.007C370.582 211.96 371.326 213.951 372.07 215.943C373.53 220.002 374.708 224.144 375.598 228.345C375.79 229.43 376.007 230.492 376.15 231.609L376.258 232.437L376.317 232.851V233.062V233.351C376.4 234.158 376.4 234.972 376.317 235.779C376.123 237.547 375.472 239.244 374.419 240.723C373.432 242.078 372.136 243.212 370.624 244.042C369.364 244.734 368.008 245.259 366.594 245.604C365.336 245.926 364.048 246.14 362.748 246.245C360.297 246.461 357.825 246.369 355.4 245.971C354.742 245.868 354.143 245.555 353.705 245.084C353.268 244.614 353.019 244.016 353.001 243.393C352.983 242.77 353.198 242.161 353.608 241.67C354.018 241.178 354.598 240.835 355.25 240.7L355.55 240.637C356.386 240.458 357.482 240.239 358.418 240.005C359.354 239.77 360.307 239.497 361.193 239.224C362.741 238.761 364.175 238.018 365.415 237.037C365.743 236.753 365.993 236.399 366.143 236.006C366.202 235.73 366.202 235.446 366.143 235.17C366.114 234.96 366.072 234.751 366.017 234.546L365.716 233.273C365.524 232.382 365.248 231.461 364.997 230.555C364.479 228.719 363.894 226.884 363.225 225.041C362.556 223.198 361.871 221.363 361.143 219.527C360.416 217.692 359.647 215.857 358.869 214.06C358.092 212.264 357.273 210.374 356.495 208.664V208.586C355.87 207.283 355.824 205.801 356.368 204.467C356.912 203.133 358.001 202.055 359.396 201.471C360.791 200.887 362.377 200.844 363.805 201.353C365.233 201.861 366.387 202.878 367.012 204.181L367.037 204.15Z" fill="#263238"/>
<path d="M352.687 243.426L349 245.082L355.37 247.199C355.37 247.199 359.617 245.933 357.561 243.731L356.415 243.395C354.576 242.833 353.673 242.895 352.687 243.426Z" fill="#FFC3BD"/>
<path d="M349.528 249.202L352.329 249.701C352.729 249.77 353.142 249.721 353.511 249.56C353.879 249.399 354.185 249.134 354.385 248.803L355.405 247.093L349.035 245L348.199 246.632C348.069 246.879 348.001 247.15 348 247.425C347.999 247.7 348.065 247.972 348.193 248.219C348.321 248.467 348.508 248.684 348.739 248.854C348.971 249.025 349.24 249.143 349.528 249.202Z" fill="#FFC3BD"/>
</svg>
