<svg width="525" height="575" viewBox="0 0 525 575" fill="none" xmlns="http://www.w3.org/2000/svg">
<circle cx="502" cy="23" r="23" fill="#0A1F73"/>
<path d="M500.05 23.088L498.586 20.784L502.666 17.28H495.85V14.424H506.866V17.088L502.834 20.448C504.066 20.496 505.122 20.96 506.002 21.84C506.898 22.704 507.346 23.824 507.346 25.2C507.346 26.608 506.802 27.824 505.714 28.848C504.626 29.856 503.178 30.36 501.37 30.36C499.626 30.36 498.21 29.88 497.122 28.92C496.034 27.944 495.442 26.768 495.346 25.392L498.538 24.768C498.57 25.568 498.842 26.224 499.354 26.736C499.882 27.248 500.554 27.504 501.37 27.504C502.17 27.504 502.81 27.28 503.29 26.832C503.77 26.384 504.01 25.824 504.01 25.152C504.01 24.432 503.77 23.872 503.29 23.472C502.826 23.056 502.218 22.848 501.466 22.848C500.97 22.848 500.498 22.928 500.05 23.088Z" fill="white"/>
<path d="M499.509 46C454.096 141.682 567.304 317.354 436 377" stroke="#C8CEDB" stroke-width="3.87064" stroke-dasharray="3.1 7.74"/>
<path d="M83.7275 471.43V488.446H90.0155C93.1835 488.446 95.2955 486.478 95.2955 483.742C95.2955 481.726 94.0475 480.166 92.2475 479.686C93.7115 479.158 94.7675 477.814 94.7675 476.014C94.7675 473.35 92.8475 471.43 89.5835 471.43H83.7275ZM86.5835 478.63V473.878H89.1275C90.8795 473.878 91.8875 474.814 91.8875 476.254C91.8875 477.67 90.8795 478.63 89.1995 478.63H86.5835ZM86.5835 485.998V481.054H89.6075C91.3835 481.054 92.3675 482.086 92.3675 483.55C92.3675 485.062 91.2395 485.998 89.5115 485.998H86.5835ZM103.319 486.31C101.615 486.31 100.055 485.014 100.055 482.59C100.055 480.166 101.615 478.918 103.319 478.918C105.047 478.918 106.583 480.166 106.583 482.59C106.583 485.038 105.047 486.31 103.319 486.31ZM103.319 476.398C99.8388 476.398 97.2708 479.014 97.2708 482.59C97.2708 486.19 99.8388 488.806 103.319 488.806C106.823 488.806 109.391 486.19 109.391 482.59C109.391 479.014 106.823 476.398 103.319 476.398ZM117.217 486.31C115.513 486.31 113.953 485.014 113.953 482.59C113.953 480.166 115.513 478.918 117.217 478.918C118.945 478.918 120.481 480.166 120.481 482.59C120.481 485.038 118.945 486.31 117.217 486.31ZM117.217 476.398C113.737 476.398 111.169 479.014 111.169 482.59C111.169 486.19 113.737 488.806 117.217 488.806C120.721 488.806 123.289 486.19 123.289 482.59C123.289 479.014 120.721 476.398 117.217 476.398ZM136.924 476.758H133.228L128.74 481.486V471.07H125.98V488.446H128.74V485.182L130.18 483.67L133.612 488.446H137.02L132.124 481.702L136.924 476.758ZM144.268 485.278C144.268 487.126 145.78 488.806 148.228 488.806C150.124 488.806 151.276 487.846 151.828 486.958C151.828 487.894 151.924 488.374 151.948 488.446H154.54C154.516 488.326 154.396 487.63 154.396 486.574V480.766C154.396 478.438 153.028 476.398 149.428 476.398C146.548 476.398 144.724 478.198 144.508 480.214L147.052 480.79C147.172 479.614 147.988 478.678 149.452 478.678C150.988 478.678 151.66 479.47 151.66 480.454C151.66 480.862 151.468 481.198 150.796 481.294L147.796 481.75C145.804 482.038 144.268 483.19 144.268 485.278ZM148.756 486.622C147.652 486.622 147.052 485.902 147.052 485.11C147.052 484.15 147.748 483.67 148.612 483.526L151.66 483.07V483.598C151.66 485.878 150.316 486.622 148.756 486.622ZM182.674 488.446V471.43H178.762L173.314 484.414L167.794 471.43H163.954V488.446H166.762V475.966L172.018 488.446H174.514L179.818 475.918V488.446H182.674ZM188.416 481.318C188.512 480.07 189.52 478.726 191.272 478.726C193.192 478.726 194.104 479.95 194.152 481.318H188.416ZM194.464 484.366C194.08 485.518 193.216 486.406 191.536 486.406C189.808 486.406 188.416 485.134 188.344 483.358H196.888C196.912 483.31 196.96 482.926 196.96 482.47C196.96 478.774 194.848 476.398 191.248 476.398C188.296 476.398 185.56 478.846 185.56 482.542C185.56 486.502 188.368 488.806 191.536 488.806C194.344 488.806 196.192 487.15 196.816 485.11L194.464 484.366ZM202.404 481.702C202.404 480.166 203.244 478.942 204.828 478.942C206.58 478.942 207.228 480.094 207.228 481.534V488.446H210.012V481.054C210.012 478.486 208.644 476.422 205.788 476.422C204.492 476.422 203.1 476.974 202.332 478.318V476.758H199.62V488.446H202.404V481.702ZM216.93 473.182H214.41V474.934C214.41 475.966 213.858 476.758 212.61 476.758H212.01V479.23H214.17V485.11C214.17 487.294 215.514 488.59 217.674 488.59C218.682 488.59 219.21 488.398 219.378 488.326V486.022C219.258 486.046 218.802 486.118 218.418 486.118C217.386 486.118 216.93 485.686 216.93 484.654V479.23H219.354V476.758H216.93V473.182ZM227.233 486.31C225.529 486.31 223.969 485.014 223.969 482.59C223.969 480.166 225.529 478.918 227.233 478.918C228.961 478.918 230.497 480.166 230.497 482.59C230.497 485.038 228.961 486.31 227.233 486.31ZM227.233 476.398C223.753 476.398 221.185 479.014 221.185 482.59C221.185 486.19 223.753 488.806 227.233 488.806C230.737 488.806 233.305 486.19 233.305 482.59C233.305 479.014 230.737 476.398 227.233 476.398ZM242.835 476.686C242.715 476.662 242.427 476.614 242.091 476.614C240.555 476.614 239.259 477.358 238.707 478.63V476.758H235.995V488.446H238.779V482.878C238.779 480.694 239.763 479.446 241.923 479.446C242.211 479.446 242.523 479.47 242.835 479.518V476.686Z" fill="#333333"/>
<path d="M4.08097 523.439H8.28551C11.0355 523.439 12.1719 522.098 12.1719 520.348C12.1719 518.507 10.8991 517.507 9.83097 517.439V517.325C10.831 517.052 11.7173 516.393 11.7173 514.893C11.7173 513.189 10.581 511.802 8.14915 511.802H4.08097V523.439ZM5.49006 522.189V518.143H8.35369C9.87642 518.143 10.831 519.166 10.831 520.348C10.831 521.371 10.1264 522.189 8.28551 522.189H5.49006ZM5.49006 516.916V513.052H8.14915C9.6946 513.052 10.3764 513.871 10.3764 514.893C10.3764 516.121 9.37642 516.916 8.10369 516.916H5.49006ZM17.8509 523.621C20.2145 523.621 21.8054 521.825 21.8054 519.121C21.8054 516.393 20.2145 514.598 17.8509 514.598C15.4872 514.598 13.8963 516.393 13.8963 519.121C13.8963 521.825 15.4872 523.621 17.8509 523.621ZM17.8509 522.416C16.0554 522.416 15.2372 520.871 15.2372 519.121C15.2372 517.371 16.0554 515.802 17.8509 515.802C19.6463 515.802 20.4645 517.371 20.4645 519.121C20.4645 520.871 19.6463 522.416 17.8509 522.416ZM27.3977 523.621C29.7614 523.621 31.3523 521.825 31.3523 519.121C31.3523 516.393 29.7614 514.598 27.3977 514.598C25.0341 514.598 23.4432 516.393 23.4432 519.121C23.4432 521.825 25.0341 523.621 27.3977 523.621ZM27.3977 522.416C25.6023 522.416 24.7841 520.871 24.7841 519.121C24.7841 517.371 25.6023 515.802 27.3977 515.802C29.1932 515.802 30.0114 517.371 30.0114 519.121C30.0114 520.871 29.1932 522.416 27.3977 522.416ZM33.3991 523.439H34.7401V520.172L35.6776 519.302L38.9446 523.439H40.6491L36.6889 518.439L40.3764 514.711H38.7173L34.8991 518.598H34.7401V511.802H33.3991V523.439ZM50.3977 514.711H48.5341V512.621H47.1932V514.711H45.875V515.848H47.1932V521.302C47.1932 522.825 48.4205 523.552 49.5568 523.552C50.0568 523.552 50.375 523.461 50.5568 523.393L50.2841 522.189C50.1705 522.211 49.9886 522.257 49.6932 522.257C49.1023 522.257 48.5341 522.075 48.5341 520.939V515.848H50.3977V514.711ZM53.9432 518.189C53.9432 516.666 54.9148 515.802 56.2386 515.802C57.5 515.802 58.2614 516.598 58.2614 517.984V523.439H59.6023V517.893C59.6023 515.649 58.4091 514.598 56.625 514.598C55.25 514.598 54.4659 515.172 54.0568 516.075H53.9432V511.802H52.6023V523.439H53.9432V518.189ZM65.7145 523.621C67.4872 523.621 68.7827 522.734 69.1918 521.416L67.8963 521.052C67.5554 521.961 66.7656 522.416 65.7145 522.416C64.1406 522.416 63.0554 521.399 62.9929 519.53H69.3281V518.961C69.3281 515.711 67.3963 514.598 65.5781 514.598C63.2145 514.598 61.6463 516.461 61.6463 519.143C61.6463 521.825 63.1918 523.621 65.7145 523.621ZM62.9929 518.371C63.0838 517.013 64.044 515.802 65.5781 515.802C67.0327 515.802 67.9645 516.893 67.9645 518.371H62.9929ZM75.8679 523.439H77.2088V517.984C77.2088 516.706 78.1406 515.802 79.1861 515.802C80.2031 515.802 80.9134 516.467 80.9134 517.461V523.439H82.277V517.757C82.277 516.632 82.9815 515.802 84.2088 515.802C85.1634 515.802 85.9815 516.308 85.9815 517.598V523.439H87.3224V517.598C87.3224 515.547 86.2202 514.598 84.6634 514.598C83.4134 514.598 82.4986 515.172 82.0497 516.075H81.9588C81.527 515.143 80.7656 514.598 79.6179 514.598C78.4815 514.598 77.6406 515.143 77.277 516.075H77.1634V514.711H75.8679V523.439ZM93.4332 523.621C95.206 523.621 96.5014 522.734 96.9105 521.416L95.6151 521.052C95.2741 521.961 94.4844 522.416 93.4332 522.416C91.8594 522.416 90.7741 521.399 90.7116 519.53H97.0469V518.961C97.0469 515.711 95.1151 514.598 93.2969 514.598C90.9332 514.598 89.3651 516.461 89.3651 519.143C89.3651 521.825 90.9105 523.621 93.4332 523.621ZM90.7116 518.371C90.8026 517.013 91.7628 515.802 93.2969 515.802C94.7514 515.802 95.6832 516.893 95.6832 518.371H90.7116ZM100.428 518.189C100.428 516.666 101.371 515.802 102.655 515.802C103.899 515.802 104.655 516.615 104.655 517.984V523.439H105.996V517.893C105.996 515.666 104.808 514.598 103.041 514.598C101.723 514.598 100.905 515.189 100.496 516.075H100.382V514.711H99.0866V523.439H100.428V518.189ZM112.241 514.711H110.378V512.621H109.037V514.711H107.719V515.848H109.037V521.302C109.037 522.825 110.264 523.552 111.401 523.552C111.901 523.552 112.219 523.461 112.401 523.393L112.128 522.189C112.014 522.211 111.832 522.257 111.537 522.257C110.946 522.257 110.378 522.075 110.378 520.939V515.848H112.241V514.711ZM117.71 523.621C120.074 523.621 121.665 521.825 121.665 519.121C121.665 516.393 120.074 514.598 117.71 514.598C115.347 514.598 113.756 516.393 113.756 519.121C113.756 521.825 115.347 523.621 117.71 523.621ZM117.71 522.416C115.915 522.416 115.097 520.871 115.097 519.121C115.097 517.371 115.915 515.802 117.71 515.802C119.506 515.802 120.324 517.371 120.324 519.121C120.324 520.871 119.506 522.416 117.71 522.416ZM123.712 523.439H125.053V517.916C125.053 516.74 125.984 515.871 127.257 515.871C127.592 515.871 127.842 515.933 128.03 516.03L128.484 514.893C128.212 514.7 127.854 514.575 127.371 514.575C126.314 514.575 125.411 515.166 125.098 516.03H125.007V514.711H123.712V523.439ZM135.17 526.825C136.398 526.825 137.239 526.189 137.739 524.848L141.489 514.711H140.034L137.625 521.666H137.534L135.125 514.711H133.67L136.898 523.484L136.602 524.302C136.131 525.609 135.511 525.734 134.534 525.484L134.193 526.666C134.33 526.734 134.716 526.825 135.17 526.825ZM146.491 523.621C148.855 523.621 150.446 521.825 150.446 519.121C150.446 516.393 148.855 514.598 146.491 514.598C144.128 514.598 142.537 516.393 142.537 519.121C142.537 521.825 144.128 523.621 146.491 523.621ZM146.491 522.416C144.696 522.416 143.878 520.871 143.878 519.121C143.878 517.371 144.696 515.802 146.491 515.802C148.287 515.802 149.105 517.371 149.105 519.121C149.105 520.871 148.287 522.416 146.491 522.416ZM157.993 519.871C157.993 521.507 156.743 522.257 155.743 522.257C154.629 522.257 153.834 521.439 153.834 520.166V514.711H152.493V520.257C152.493 522.484 153.675 523.552 155.311 523.552C156.629 523.552 157.493 522.848 157.902 521.961H157.993V523.439H159.334V514.711H157.993V519.871ZM167.631 518.189C167.631 516.666 168.602 515.802 169.926 515.802C171.188 515.802 171.949 516.598 171.949 517.984V523.439H173.29V517.893C173.29 515.649 172.097 514.598 170.312 514.598C168.938 514.598 168.153 515.172 167.744 516.075H167.631V511.802H166.29V523.439H167.631V518.189ZM178.311 523.643C179.834 523.643 180.629 522.825 180.902 522.257H180.97V523.439H182.311V517.689C182.311 514.916 180.197 514.598 179.084 514.598C177.766 514.598 176.266 515.052 175.584 516.643L176.857 517.098C177.152 516.461 177.851 515.78 179.129 515.78C180.362 515.78 180.97 516.433 180.97 517.552V517.598C180.97 518.246 180.311 518.189 178.72 518.393C177.101 518.603 175.334 518.961 175.334 520.961C175.334 522.666 176.652 523.643 178.311 523.643ZM178.516 522.439C177.447 522.439 176.675 521.961 176.675 521.03C176.675 520.007 177.607 519.689 178.652 519.552C179.22 519.484 180.743 519.325 180.97 519.052V520.28C180.97 521.371 180.107 522.439 178.516 522.439ZM191.582 514.711H190.128L187.719 521.666H187.628L185.219 514.711H183.764L186.991 523.439H188.355L191.582 514.711ZM196.699 523.621C198.472 523.621 199.767 522.734 200.176 521.416L198.881 521.052C198.54 521.961 197.75 522.416 196.699 522.416C195.125 522.416 194.04 521.399 193.977 519.53H200.312V518.961C200.312 515.711 198.381 514.598 196.562 514.598C194.199 514.598 192.631 516.461 192.631 519.143C192.631 521.825 194.176 523.621 196.699 523.621ZM193.977 518.371C194.068 517.013 195.028 515.802 196.562 515.802C198.017 515.802 198.949 516.893 198.949 518.371H193.977ZM210.511 523.621C212.284 523.621 213.58 522.734 213.989 521.416L212.693 521.052C212.352 521.961 211.562 522.416 210.511 522.416C208.938 522.416 207.852 521.399 207.79 519.53H214.125V518.961C214.125 515.711 212.193 514.598 210.375 514.598C208.011 514.598 206.443 516.461 206.443 519.143C206.443 521.825 207.989 523.621 210.511 523.621ZM207.79 518.371C207.881 517.013 208.841 515.802 210.375 515.802C211.83 515.802 212.761 516.893 212.761 518.371H207.79ZM218.733 523.643C220.256 523.643 221.051 522.825 221.324 522.257H221.392V523.439H222.733V517.689C222.733 514.916 220.619 514.598 219.506 514.598C218.188 514.598 216.688 515.052 216.006 516.643L217.278 517.098C217.574 516.461 218.273 515.78 219.551 515.78C220.784 515.78 221.392 516.433 221.392 517.552V517.598C221.392 518.246 220.733 518.189 219.142 518.393C217.523 518.603 215.756 518.961 215.756 520.961C215.756 522.666 217.074 523.643 218.733 523.643ZM218.938 522.439C217.869 522.439 217.097 521.961 217.097 521.03C217.097 520.007 218.028 519.689 219.074 519.552C219.642 519.484 221.165 519.325 221.392 519.052V520.28C221.392 521.371 220.528 522.439 218.938 522.439ZM225.18 523.439H226.521V517.916C226.521 516.74 227.453 515.871 228.726 515.871C229.061 515.871 229.311 515.933 229.499 516.03L229.953 514.893C229.68 514.7 229.322 514.575 228.839 514.575C227.783 514.575 226.879 515.166 226.567 516.03H226.476V514.711H225.18V523.439ZM232.662 511.802H231.321V523.439H232.662V511.802ZM235.118 523.439H236.459V514.711H235.118V523.439ZM235.8 513.257C236.322 513.257 236.754 512.848 236.754 512.348C236.754 511.848 236.322 511.439 235.8 511.439C235.277 511.439 234.845 511.848 234.845 512.348C234.845 512.848 235.277 513.257 235.8 513.257ZM242.574 523.621C244.347 523.621 245.642 522.734 246.051 521.416L244.756 521.052C244.415 521.961 243.625 522.416 242.574 522.416C241 522.416 239.915 521.399 239.852 519.53H246.188V518.961C246.188 515.711 244.256 514.598 242.438 514.598C240.074 514.598 238.506 516.461 238.506 519.143C238.506 521.825 240.051 523.621 242.574 523.621ZM239.852 518.371C239.943 517.013 240.903 515.802 242.438 515.802C243.892 515.802 244.824 516.893 244.824 518.371H239.852ZM248.227 523.439H249.568V517.916C249.568 516.74 250.5 515.871 251.773 515.871C252.108 515.871 252.358 515.933 252.545 516.03L253 514.893C252.727 514.7 252.369 514.575 251.886 514.575C250.83 514.575 249.926 515.166 249.614 516.03H249.523V514.711H248.227V523.439ZM265.05 516.666C264.629 515.427 263.686 514.598 261.959 514.598C260.118 514.598 258.754 515.643 258.754 517.121C258.754 518.325 259.47 519.132 261.072 519.507L262.527 519.848C263.408 520.052 263.822 520.473 263.822 521.075C263.822 521.825 263.027 522.439 261.777 522.439C260.68 522.439 259.993 521.967 259.754 521.03L258.482 521.348C258.794 522.831 260.016 523.621 261.8 523.621C263.828 523.621 265.209 522.513 265.209 521.007C265.209 519.791 264.447 519.024 262.891 518.643L261.595 518.325C260.561 518.069 260.095 517.723 260.095 517.052C260.095 516.302 260.891 515.757 261.959 515.757C263.129 515.757 263.612 516.405 263.845 517.007L265.05 516.666ZM270.886 523.621C272.659 523.621 273.955 522.734 274.364 521.416L273.068 521.052C272.727 521.961 271.938 522.416 270.886 522.416C269.312 522.416 268.227 521.399 268.165 519.53H274.5V518.961C274.5 515.711 272.568 514.598 270.75 514.598C268.386 514.598 266.818 516.461 266.818 519.143C266.818 521.825 268.364 523.621 270.886 523.621ZM268.165 518.371C268.256 517.013 269.216 515.802 270.75 515.802C272.205 515.802 273.136 516.893 273.136 518.371H268.165ZM277.881 511.802H276.54V523.439H277.881V511.802ZM283.996 523.621C285.768 523.621 287.064 522.734 287.473 521.416L286.178 521.052C285.837 521.961 285.047 522.416 283.996 522.416C282.422 522.416 281.337 521.399 281.274 519.53H287.609V518.961C287.609 515.711 285.678 514.598 283.859 514.598C281.496 514.598 279.928 516.461 279.928 519.143C279.928 521.825 281.473 523.621 283.996 523.621ZM281.274 518.371C281.365 517.013 282.325 515.802 283.859 515.802C285.314 515.802 286.246 516.893 286.246 518.371H281.274ZM293.195 523.621C295.126 523.621 296.399 522.439 296.626 520.893H295.286C295.036 521.848 294.24 522.416 293.195 522.416C291.604 522.416 290.581 521.098 290.581 519.075C290.581 517.098 291.626 515.802 293.195 515.802C294.376 515.802 295.081 516.53 295.286 517.325H296.626C296.399 515.689 295.013 514.598 293.172 514.598C290.808 514.598 289.24 516.461 289.24 519.121C289.24 521.734 290.74 523.621 293.195 523.621ZM302.382 514.711H300.518V512.621H299.178V514.711H297.859V515.848H299.178V521.302C299.178 522.825 300.405 523.552 301.541 523.552C302.041 523.552 302.359 523.461 302.541 523.393L302.268 522.189C302.155 522.211 301.973 522.257 301.678 522.257C301.087 522.257 300.518 522.075 300.518 520.939V515.848H302.382V514.711ZM307.964 523.621C309.737 523.621 311.033 522.734 311.442 521.416L310.146 521.052C309.805 521.961 309.016 522.416 307.964 522.416C306.391 522.416 305.305 521.399 305.243 519.53H311.578V518.961C311.578 515.711 309.646 514.598 307.828 514.598C305.464 514.598 303.896 516.461 303.896 519.143C303.896 521.825 305.442 523.621 307.964 523.621ZM305.243 518.371C305.334 517.013 306.294 515.802 307.828 515.802C309.283 515.802 310.214 516.893 310.214 518.371H305.243ZM316.913 523.621C318.595 523.621 319.163 522.575 319.459 522.098H319.618V523.439H320.913V511.802H319.572V516.098H319.459C319.163 515.643 318.641 514.598 316.936 514.598C314.732 514.598 313.209 516.348 313.209 519.098C313.209 521.871 314.732 523.621 316.913 523.621ZM317.095 522.416C315.413 522.416 314.55 520.939 314.55 519.075C314.55 517.234 315.391 515.802 317.095 515.802C318.732 515.802 319.595 517.121 319.595 519.075C319.595 521.052 318.709 522.416 317.095 522.416ZM116.35 542.643C117.873 542.643 118.668 541.825 118.941 541.257H119.009V542.439H120.35V536.689C120.35 533.916 118.237 533.598 117.123 533.598C115.805 533.598 114.305 534.052 113.623 535.643L114.896 536.098C115.191 535.461 115.89 534.78 117.168 534.78C118.401 534.78 119.009 535.433 119.009 536.552V536.598C119.009 537.246 118.35 537.189 116.759 537.393C115.14 537.603 113.373 537.961 113.373 539.961C113.373 541.666 114.691 542.643 116.35 542.643ZM116.555 541.439C115.487 541.439 114.714 540.961 114.714 540.03C114.714 539.007 115.646 538.689 116.691 538.552C117.259 538.484 118.782 538.325 119.009 538.052V539.28C119.009 540.371 118.146 541.439 116.555 541.439ZM124.138 537.189C124.138 535.666 125.082 534.802 126.366 534.802C127.61 534.802 128.366 535.615 128.366 536.984V542.439H129.707V536.893C129.707 534.666 128.519 533.598 126.752 533.598C125.434 533.598 124.616 534.189 124.207 535.075H124.093V533.711H122.798V542.439H124.138V537.189ZM135.452 542.621C137.134 542.621 137.702 541.575 137.998 541.098H138.157V542.439H139.452V530.802H138.112V535.098H137.998C137.702 534.643 137.18 533.598 135.475 533.598C133.271 533.598 131.748 535.348 131.748 538.098C131.748 540.871 133.271 542.621 135.452 542.621ZM135.634 541.416C133.952 541.416 133.089 539.939 133.089 538.075C133.089 536.234 133.93 534.802 135.634 534.802C137.271 534.802 138.134 536.121 138.134 538.075C138.134 540.052 137.248 541.416 135.634 541.416ZM146.594 545.711H147.935V541.098H148.049C148.344 541.575 148.913 542.621 150.594 542.621C152.776 542.621 154.299 540.871 154.299 538.098C154.299 535.348 152.776 533.598 150.572 533.598C148.867 533.598 148.344 534.643 148.049 535.098H147.89V533.711H146.594V545.711ZM147.913 538.075C147.913 536.121 148.776 534.802 150.413 534.802C152.117 534.802 152.958 536.234 152.958 538.075C152.958 539.939 152.094 541.416 150.413 541.416C148.799 541.416 147.913 540.052 147.913 538.075ZM156.344 542.439H157.685V536.916C157.685 535.74 158.617 534.871 159.89 534.871C160.225 534.871 160.475 534.933 160.663 535.03L161.117 533.893C160.844 533.7 160.487 533.575 160.004 533.575C158.947 533.575 158.043 534.166 157.731 535.03H157.64V533.711H156.344V542.439ZM165.765 542.621C168.129 542.621 169.719 540.825 169.719 538.121C169.719 535.393 168.129 533.598 165.765 533.598C163.401 533.598 161.81 535.393 161.81 538.121C161.81 540.825 163.401 542.621 165.765 542.621ZM165.765 541.416C163.969 541.416 163.151 539.871 163.151 538.121C163.151 536.371 163.969 534.802 165.765 534.802C167.56 534.802 168.379 536.371 168.379 538.121C168.379 539.871 167.56 541.416 165.765 541.416ZM175.312 542.621C177.244 542.621 178.516 541.439 178.744 539.893H177.403C177.153 540.848 176.357 541.416 175.312 541.416C173.721 541.416 172.698 540.098 172.698 538.075C172.698 536.098 173.744 534.802 175.312 534.802C176.494 534.802 177.198 535.53 177.403 536.325H178.744C178.516 534.689 177.13 533.598 175.289 533.598C172.925 533.598 171.357 535.461 171.357 538.121C171.357 540.734 172.857 542.621 175.312 542.621ZM184.363 542.621C186.136 542.621 187.431 541.734 187.84 540.416L186.545 540.052C186.204 540.961 185.414 541.416 184.363 541.416C182.789 541.416 181.704 540.399 181.641 538.53H187.977V537.961C187.977 534.711 186.045 533.598 184.227 533.598C181.863 533.598 180.295 535.461 180.295 538.143C180.295 540.825 181.84 542.621 184.363 542.621ZM181.641 537.371C181.732 536.013 182.692 534.802 184.227 534.802C185.681 534.802 186.613 535.893 186.613 537.371H181.641ZM193.675 542.621C195.448 542.621 196.744 541.734 197.153 540.416L195.857 540.052C195.516 540.961 194.727 541.416 193.675 541.416C192.102 541.416 191.016 540.399 190.954 538.53H197.289V537.961C197.289 534.711 195.357 533.598 193.539 533.598C191.175 533.598 189.607 535.461 189.607 538.143C189.607 540.825 191.153 542.621 193.675 542.621ZM190.954 537.371C191.045 536.013 192.005 534.802 193.539 534.802C194.994 534.802 195.925 535.893 195.925 537.371H190.954ZM202.624 542.621C204.306 542.621 204.874 541.575 205.17 541.098H205.329V542.439H206.624V530.802H205.283V535.098H205.17C204.874 534.643 204.352 533.598 202.647 533.598C200.442 533.598 198.92 535.348 198.92 538.098C198.92 540.871 200.442 542.621 202.624 542.621ZM202.806 541.416C201.124 541.416 200.261 539.939 200.261 538.075C200.261 536.234 201.102 534.802 202.806 534.802C204.442 534.802 205.306 536.121 205.306 538.075C205.306 540.052 204.42 541.416 202.806 541.416ZM210.244 542.53C210.806 542.53 211.266 542.069 211.266 541.507C211.266 540.944 210.806 540.484 210.244 540.484C209.681 540.484 209.221 540.944 209.221 541.507C209.221 542.069 209.681 542.53 210.244 542.53Z" fill="#504F4F"/>
</svg>
