<svg width="541" height="360" viewBox="0 0 541 360" fill="none" xmlns="http://www.w3.org/2000/svg">
<path opacity="0.2" d="M68.0994 318.614C68.0994 318.614 20.8592 263.664 74.0792 203.861C116.97 155.621 103.279 137.009 101.295 104.501C99.6216 76.9897 130.87 36.3025 177.663 34.2721C254.34 30.9457 273.405 55.5409 314.117 53.7985C354.829 52.0561 373.238 37.8145 420.521 43.4305C508.271 53.8345 496.413 136.843 483.652 198.886C470.892 260.928 509.288 282.118 481.64 318.658" fill="#B5D0FF"/>
<path d="M71.4323 302.268C71.4323 302.268 36.5197 255.187 47.5056 245.136C58.4915 235.085 74.4402 270.494 71.4323 302.268Z" fill="#617FF1"/>
<path d="M51.0808 251.709C57.3216 261.266 62.322 271.574 65.9619 282.388C67.5488 287.092 68.9025 291.858 70.023 296.687C71.0689 301.223 71.7542 305.817 72.6991 310.367C72.7126 310.418 72.7443 310.462 72.7882 310.492C72.832 310.521 72.8851 310.533 72.9374 310.526C72.9897 310.519 73.0376 310.493 73.0721 310.453C73.1066 310.413 73.1253 310.362 73.1247 310.31C72.4034 300.726 69.7344 290.963 66.6327 281.891C63.0613 271.076 57.9735 260.82 51.5208 251.428C51.3332 251.169 50.9004 251.428 51.0808 251.687V251.709Z" fill="#7878C4"/>
<path d="M50.0119 257.384C52.9621 259.472 55.7825 261.856 58.7472 263.864C58.9348 263.987 59.1079 263.72 58.978 263.569C56.5173 260.835 53.545 258.607 50.2283 257.01C50.1785 256.981 50.1194 256.974 50.064 256.989C50.0085 257.003 49.9612 257.04 49.9325 257.089C49.9038 257.139 49.8961 257.198 49.911 257.253C49.9258 257.309 49.9621 257.356 50.0119 257.384Z" fill="#7878C4"/>
<path d="M51.1749 260.781C54.1251 262.869 56.9456 265.245 59.9102 267.261C60.0978 267.39 60.2709 267.124 60.1411 266.965C57.6707 264.229 54.6886 262.001 51.3624 260.406C51.3127 260.378 51.2536 260.37 51.1981 260.385C51.1427 260.4 51.0954 260.436 51.0667 260.485C51.038 260.535 51.0302 260.594 51.0451 260.649C51.06 260.705 51.0963 260.752 51.146 260.781H51.1749Z" fill="#7878C4"/>
<path d="M78.8704 297.108C78.8704 297.108 112.528 249.134 101.311 239.371C90.0944 229.608 75.0257 265.435 78.8704 297.108Z" fill="#617FF1"/>
<path d="M97.5663 244.619C90.9346 254.85 85.8726 266.014 82.5481 277.739C79.7277 287.394 77.4627 297.755 77.1237 307.842C77.1237 308.08 77.5132 308.144 77.5493 307.9C78.2706 303.126 78.7756 298.331 79.6412 293.579C80.5829 288.409 81.7866 283.291 83.2478 278.243C86.6367 266.514 91.6013 255.298 98.0063 244.9C98.1794 244.619 97.7466 244.374 97.5663 244.648V244.619Z" fill="#7878C4"/>
<path d="M79.4922 274.178C79.2262 278.179 79.4906 282.198 80.2784 286.13C80.2908 286.174 80.3185 286.211 80.3563 286.236C80.3941 286.26 80.4395 286.27 80.4843 286.264C80.529 286.258 80.57 286.236 80.5998 286.202C80.6296 286.168 80.6461 286.125 80.6463 286.08C80.6473 284.211 80.551 282.344 80.3578 280.485C80.2207 278.39 80.1486 276.273 79.925 274.178C79.925 274.121 79.9022 274.066 79.8616 274.026C79.821 273.985 79.766 273.962 79.7086 273.962C79.6512 273.962 79.5962 273.985 79.5556 274.026C79.515 274.066 79.4922 274.121 79.4922 274.178Z" fill="#0E7C74"/>
<path d="M76.008 280.001C76.008 280.001 42.1053 232.186 53.3076 222.401C64.5099 212.616 79.7084 248.314 76.008 280.001Z" fill="#AAB9F4"/>
<path d="M56.7487 227.917C68.4993 246.702 75.0345 268.179 77.2635 290.139C77.7107 294.546 77.9054 298.959 78.2373 303.38C78.2466 303.432 78.2738 303.478 78.314 303.512C78.3542 303.545 78.4049 303.563 78.4573 303.563C78.5096 303.563 78.5603 303.545 78.6005 303.512C78.6408 303.478 78.6679 303.432 78.6773 303.38C78.8792 294.891 77.7972 286.244 76.3546 277.899C74.5348 267.018 71.4483 256.386 67.1576 246.219C64.3993 239.745 61.0603 233.532 57.1815 227.658C57.0084 227.391 56.5756 227.658 56.7487 227.917Z" fill="#7878C4"/>
<path d="M73.9866 293.753C73.9866 293.753 94.8331 265.155 88.168 259.143C81.5029 253.131 72.0102 274.587 73.9866 293.753Z" fill="#AAB9F4"/>
<path d="M86.2236 262.72C81.0966 270.312 77.3938 278.77 75.2954 287.683C73.6724 294.263 72.338 301.499 72.6265 308.311C72.6359 308.362 72.663 308.408 72.7032 308.442C72.7434 308.475 72.7941 308.494 72.8465 308.494C72.8989 308.494 72.9496 308.475 72.9898 308.442C73.03 308.408 73.0571 308.362 73.0665 308.311C73.9033 301.435 74.3938 294.631 76.0745 287.899C78.251 279.093 81.826 270.692 86.6636 263.015C86.8368 262.735 86.404 262.49 86.2236 262.756V262.72Z" fill="#7878C4"/>
<path d="M87.6516 293.208L87.4857 294.302L87.1395 296.628L83.8142 318.933H63.9486L60.6161 296.628L60.2698 294.302L60.1111 293.208H87.6516Z" fill="#617FF1"/>
<path d="M87.3271 294.34L86.9808 296.665H60.4574L60.1111 294.34H87.3271Z" fill="#7878C4"/>
<path d="M87.7709 295.33H59.4586C59.0318 295.324 58.624 295.153 58.3222 294.851C58.0204 294.55 57.8484 294.143 57.8428 293.717C57.8428 293.282 58.016 292.864 58.3245 292.556C58.6329 292.248 59.0512 292.076 59.4874 292.076H87.7997C88.2359 292.076 88.6542 292.248 88.9627 292.556C89.2711 292.864 89.4444 293.282 89.4444 293.717C89.4416 293.933 89.3959 294.146 89.3101 294.344C89.2243 294.543 89.1 294.722 88.9444 294.872C88.7888 295.022 88.605 295.139 88.4036 295.218C88.2022 295.297 87.9871 295.335 87.7709 295.33Z" fill="#AAB9F4"/>
<path d="M52.1719 319.245H487.771" stroke="#1438C7" stroke-width="2" stroke-linecap="round" stroke-linejoin="round"/>
<path d="M107.746 286.415C108.228 286.745 108.799 286.92 109.384 286.919H111.973" stroke="#9ACEE2" stroke-miterlimit="10" stroke-linecap="round"/>
<path d="M395.826 133.585H400.154" stroke="#9ACEE2" stroke-miterlimit="10" stroke-linecap="round"/>
<path d="M461.399 233.208H457.071" stroke="#9ACEE2" stroke-miterlimit="10" stroke-linecap="round"/>
<path opacity="0.5" d="M333.146 238.868H330.044V247.573H333.146V238.868Z" fill="#94C1F7"/>
<path d="M117.954 211.299L120.976 215.05L126.343 209.434" stroke="white" stroke-width="1.38" stroke-linecap="round" stroke-linejoin="round"/>
<path d="M216.689 288.773C216.792 289.56 216.66 290.36 216.308 291.071C215.955 291.782 215.4 292.373 214.711 292.769C214.022 293.165 213.232 293.349 212.438 293.296C211.645 293.243 210.886 292.957 210.256 292.473C209.626 291.989 209.154 291.33 208.899 290.578C208.645 289.827 208.619 289.017 208.826 288.251C209.033 287.485 209.463 286.797 210.061 286.275C210.66 285.753 211.4 285.419 212.188 285.317C212.711 285.249 213.243 285.283 213.752 285.42C214.261 285.557 214.739 285.792 215.157 286.113C215.575 286.434 215.926 286.834 216.189 287.291C216.451 287.747 216.622 288.251 216.689 288.773Z" fill="#9999F1"/>
<path d="M210.956 289.326L212.723 290.643L214.454 287.547" stroke="white" stroke-width="1.06" stroke-linecap="round" stroke-linejoin="round"/>
<path d="M226.729 77.4755C226.978 78.2299 226.997 79.0411 226.783 79.8061C226.57 80.5712 226.133 81.2557 225.529 81.7728C224.925 82.29 224.181 82.6166 223.391 82.7111C222.601 82.8057 221.801 82.6639 221.092 82.3039C220.382 81.9439 219.796 81.3818 219.407 80.6888C219.019 79.9959 218.845 79.2033 218.908 78.4116C218.971 77.6198 219.268 76.8646 219.761 76.2417C220.255 75.6187 220.923 75.156 221.68 74.9123C222.69 74.5853 223.789 74.6714 224.736 75.1519C225.682 75.6324 226.399 76.4681 226.729 77.4755Z" fill="#9999F1"/>
<path d="M221.164 79.3788L223.14 80.3436L224.258 76.9811" stroke="white" stroke-width="1.06" stroke-linecap="round" stroke-linejoin="round"/>
<path d="M423.735 150.874C423.742 151.168 423.661 151.457 423.503 151.704C423.345 151.951 423.117 152.146 422.847 152.263C422.578 152.381 422.279 152.415 421.99 152.362C421.701 152.309 421.434 152.172 421.224 151.967C421.013 151.762 420.869 151.499 420.809 151.212C420.749 150.925 420.776 150.626 420.887 150.354C420.998 150.082 421.187 149.85 421.431 149.686C421.675 149.522 421.962 149.434 422.256 149.434C422.449 149.43 422.64 149.463 422.819 149.534C422.998 149.604 423.162 149.709 423.3 149.843C423.437 149.977 423.547 150.138 423.622 150.315C423.696 150.492 423.735 150.682 423.735 150.874Z" fill="#9999F1"/>
<path opacity="0.3" d="M374.966 50.1197C374.973 50.4145 374.891 50.7048 374.731 50.9529C374.572 51.2011 374.341 51.3958 374.07 51.512C373.798 51.6281 373.498 51.6604 373.207 51.6046C372.917 51.5488 372.65 51.4075 372.441 51.1989C372.233 50.9904 372.091 50.7241 372.035 50.4345C371.979 50.1448 372.011 49.8451 372.128 49.574C372.244 49.3029 372.439 49.0728 372.688 48.9134C372.937 48.754 373.227 48.6726 373.523 48.6797C373.905 48.6797 374.272 48.8314 374.543 49.1014C374.814 49.3715 374.966 49.7378 374.966 50.1197Z" fill="#9999F1"/>
<path d="M134.013 184.619C134.013 185.084 133.875 185.539 133.616 185.927C133.356 186.314 132.988 186.616 132.557 186.794C132.126 186.972 131.652 187.019 131.194 186.928C130.737 186.837 130.316 186.613 129.986 186.283C129.657 185.954 129.432 185.535 129.341 185.078C129.25 184.621 129.297 184.148 129.475 183.718C129.654 183.287 129.956 182.92 130.344 182.661C130.732 182.402 131.188 182.264 131.654 182.264C131.964 182.263 132.272 182.323 132.558 182.441C132.845 182.559 133.105 182.733 133.324 182.952C133.544 183.17 133.717 183.43 133.836 183.716C133.954 184.003 134.014 184.309 134.013 184.619Z" fill="#9999F1"/>
<path opacity="0.3" d="M492.639 207.374C492.639 208.086 492.427 208.782 492.031 209.374C491.635 209.966 491.071 210.427 490.412 210.699C489.753 210.972 489.028 211.043 488.329 210.904C487.629 210.765 486.986 210.423 486.482 209.919C485.978 209.416 485.634 208.774 485.495 208.076C485.356 207.378 485.427 206.654 485.7 205.996C485.973 205.338 486.435 204.776 487.028 204.38C487.622 203.985 488.319 203.774 489.032 203.774C489.989 203.774 490.906 204.153 491.583 204.828C492.259 205.503 492.639 206.419 492.639 207.374Z" fill="#9999F1"/>
<path opacity="0.3" d="M95.6788 157.562C95.6788 158.274 95.4672 158.97 95.0709 159.562C94.6746 160.154 94.1114 160.616 93.4523 160.888C92.7933 161.161 92.0681 161.232 91.3685 161.093C90.6689 160.954 90.0262 160.611 89.5218 160.108C89.0174 159.604 88.6739 158.963 88.5348 158.265C88.3956 157.566 88.467 156.842 88.74 156.185C89.013 155.527 89.4752 154.965 90.0684 154.569C90.6615 154.173 91.3588 153.962 92.0721 153.962C93.0287 153.962 93.946 154.342 94.6224 155.017C95.2988 155.692 95.6788 156.608 95.6788 157.562Z" fill="#9999F1"/>
<path opacity="0.3" d="M462.923 240.083C462.924 240.549 462.787 241.005 462.529 241.393C462.271 241.781 461.903 242.084 461.472 242.263C461.041 242.443 460.566 242.49 460.108 242.4C459.65 242.31 459.229 242.087 458.899 241.758C458.568 241.429 458.343 241.009 458.251 240.552C458.16 240.095 458.206 239.622 458.384 239.191C458.563 238.76 458.865 238.392 459.253 238.133C459.641 237.874 460.097 237.736 460.564 237.736C460.874 237.735 461.18 237.795 461.466 237.912C461.752 238.03 462.013 238.203 462.232 238.421C462.451 238.639 462.625 238.898 462.743 239.183C462.862 239.468 462.923 239.774 462.923 240.083Z" fill="#9999F1"/>
<path opacity="0.3" d="M278.053 57.7901C278.06 58.2579 277.927 58.7171 277.672 59.1093C277.416 59.5015 277.05 59.8089 276.619 59.9922C276.187 60.1755 275.711 60.2265 275.251 60.1386C274.791 60.0506 274.367 59.8279 274.034 59.4986C273.701 59.1694 273.474 58.7486 273.382 58.29C273.289 57.8314 273.336 57.3557 273.516 56.9236C273.695 56.4916 274 56.1227 274.39 55.8641C274.781 55.6055 275.24 55.4689 275.708 55.4717C276.325 55.4754 276.916 55.7202 277.354 56.1536C277.793 56.587 278.043 57.1745 278.053 57.7901Z" fill="#9999F1"/>
<path opacity="0.2" d="M322.286 46.4982C322.287 46.9641 322.15 47.42 321.892 47.8081C321.633 48.1963 321.265 48.4992 320.835 48.6785C320.404 48.8578 319.929 48.9054 319.471 48.8154C319.013 48.7254 318.592 48.5017 318.262 48.1727C317.931 47.8437 317.706 47.4242 317.614 46.9673C317.522 46.5104 317.569 46.0367 317.747 45.606C317.925 45.1754 318.228 44.8073 318.616 44.5482C319.004 44.2892 319.46 44.151 319.927 44.151C320.236 44.15 320.543 44.21 320.829 44.3275C321.115 44.4451 321.375 44.6178 321.594 44.8359C321.814 45.0539 321.987 45.313 322.106 45.5983C322.225 45.8835 322.286 46.1893 322.286 46.4982Z" fill="#9999F1"/>
<path d="M88.9415 126.519C88.8165 126.519 88.6965 126.47 88.6074 126.383C88.5183 126.295 88.4673 126.176 88.4655 126.051V122.732C88.4673 122.607 88.5183 122.488 88.6074 122.401C88.6965 122.313 88.8165 122.264 88.9415 122.264C89.0031 122.264 89.0641 122.276 89.1209 122.3C89.1778 122.323 89.2295 122.358 89.2731 122.401C89.3166 122.445 89.3511 122.496 89.3747 122.553C89.3983 122.61 89.4104 122.671 89.4104 122.732V126.051C89.4104 126.113 89.3983 126.174 89.3747 126.23C89.3511 126.287 89.3166 126.339 89.2731 126.382C89.2295 126.426 89.1778 126.46 89.1209 126.484C89.0641 126.507 89.0031 126.519 88.9415 126.519Z" fill="#9999F1"/>
<path d="M391.765 82.3684C391.64 82.3684 391.52 82.3193 391.431 82.2318C391.342 82.1442 391.291 82.0252 391.289 81.9004V78.5812C391.291 78.4564 391.342 78.3374 391.431 78.2498C391.52 78.1623 391.64 78.1132 391.765 78.1132C391.89 78.1132 392.009 78.1625 392.097 78.2503C392.185 78.338 392.234 78.4571 392.234 78.5812V81.9004C392.234 82.0245 392.185 82.1436 392.097 82.2313C392.009 82.3191 391.89 82.3684 391.765 82.3684Z" fill="#9999F1"/>
<path fill-rule="evenodd" clip-rule="evenodd" d="M125.707 224.333C125.502 224.333 125.297 224.258 125.135 224.107C122.548 221.675 119.552 219.832 116.23 218.628C115.797 218.47 115.573 217.993 115.73 217.56C115.887 217.127 116.366 216.903 116.799 217.062C120.337 218.342 123.526 220.305 126.28 222.892C126.615 223.208 126.631 223.735 126.315 224.07C126.151 224.245 125.929 224.333 125.707 224.333Z" fill="white"/>
<path fill-rule="evenodd" clip-rule="evenodd" d="M100.851 217.897C100.478 217.897 100.138 217.645 100.042 217.267C99.9295 216.82 100.2 216.367 100.647 216.255C102.845 215.701 105.119 215.42 107.407 215.42C107.868 215.42 108.242 215.793 108.242 216.253C108.242 216.713 107.868 217.087 107.407 217.087C105.257 217.087 103.12 217.35 101.056 217.87C100.987 217.888 100.918 217.897 100.851 217.897Z" fill="white"/>
<path fill-rule="evenodd" clip-rule="evenodd" d="M450.834 91.8623H442.353C439.078 91.8623 436.414 89.2023 436.414 85.9326V77.4656C436.414 74.1961 439.078 71.536 442.353 71.536H450.834C454.109 71.536 456.773 74.1961 456.773 77.4656V85.9326C456.773 89.2023 454.109 91.8623 450.834 91.8623ZM442.353 73.8694C440.367 73.8694 438.751 75.4827 438.751 77.4656V85.9326C438.751 87.9156 440.367 89.5286 442.353 89.5286H450.834C452.82 89.5286 454.436 87.9156 454.436 85.9326V77.4656C454.436 75.4827 452.82 73.8694 450.834 73.8694H442.353Z" fill="#B1D3FF"/>
<path fill-rule="evenodd" clip-rule="evenodd" d="M410.932 91.8623H402.45C399.176 91.8623 396.512 89.2023 396.512 85.9326V77.4656C396.512 74.1961 399.176 71.536 402.45 71.536H410.932C414.205 71.536 416.87 74.1961 416.87 77.4656V85.9326C416.87 89.2023 414.205 91.8623 410.932 91.8623ZM402.45 73.8694C400.465 73.8694 398.849 75.4827 398.849 77.4656V85.9326C398.849 87.9156 400.465 89.5286 402.45 89.5286H410.932C412.916 89.5286 414.532 87.9156 414.532 85.9326V77.4656C414.532 75.4827 412.916 73.8694 410.932 73.8694H402.45Z" fill="#B1D3FF"/>
<path fill-rule="evenodd" clip-rule="evenodd" d="M407.219 86.9329C407.202 86.9329 407.187 86.9324 407.171 86.9317C406.877 86.9174 406.603 86.7745 406.424 86.5412L400.33 78.6031C399.992 78.1648 400.076 77.5371 400.515 77.2011C400.954 76.8652 401.582 76.9477 401.919 77.3863L407.294 84.3867L421.329 69.3744C421.706 68.9704 422.34 68.9489 422.744 69.3255C423.148 69.7024 423.17 70.3353 422.793 70.7389L407.952 86.615C407.762 86.8182 407.496 86.9329 407.219 86.9329Z" fill="#F37168"/>
<path fill-rule="evenodd" clip-rule="evenodd" d="M51.4303 214.676H124.005V95.9088H51.4303V214.676Z" fill="#617FF1"/>
<path fill-rule="evenodd" clip-rule="evenodd" d="M55.2309 210.15H121.619V98.3287H55.2309V210.15Z" fill="white"/>
<path fill-rule="evenodd" clip-rule="evenodd" d="M75.0887 143.169C77.5874 137.802 81.8164 136.083 88.7611 136.083C97.0301 136.083 101.324 139.074 102.541 143.428C87.7329 143.631 75.0887 143.169 75.0887 143.169Z" fill="#9BD6E8"/>
<path fill-rule="evenodd" clip-rule="evenodd" d="M85.8716 109.98C82.3711 110.961 82.5245 112.924 81.3582 114.747C80.1918 116.57 77.6562 117.785 77.3519 119C77.0477 120.216 78.1328 122.747 76.8449 124.165C75.557 125.583 75.1206 126.292 75.6278 127.709C76.1349 129.127 77.2506 131.355 77.3519 131.658C77.4534 131.962 78.8733 134.089 80.5976 134.393C82.3217 134.697 85.5673 135.203 87.1902 135.912C88.8128 136.62 94.0305 135.004 96.9269 135.105C99.823 135.207 101.795 133.076 101.592 131.658C101.39 130.241 103.728 127.405 103.722 124.975C103.716 122.365 100.679 120.418 99.8681 118.696C99.0566 116.975 99.9696 113.937 96.9269 112.138C95.0039 111 93.6812 111.102 92.1599 110.595C90.6386 110.089 88.1028 109.354 85.8716 109.98Z" fill="#3A384D"/>
<path fill-rule="evenodd" clip-rule="evenodd" d="M90.1328 140.367C89.341 141.534 88.7606 141.583 87.9014 140.367C87.2183 139.401 85.8729 137.206 85.8729 136.092V124.975C85.8729 123.861 86.7857 122.95 87.9014 122.95H90.1328C91.2484 122.95 92.1612 123.861 92.1612 124.975V136.092C92.1612 137.206 90.8428 139.321 90.1328 140.367Z" fill="#F09959"/>
<path fill-rule="evenodd" clip-rule="evenodd" d="M90.1328 122.95H87.9014C86.7857 122.95 85.8729 123.861 85.8729 124.975V134.894C88.3783 135.69 90.665 134.107 92.1612 132.324V124.975C92.1612 123.861 91.2484 122.95 90.1328 122.95Z" fill="#E38540"/>
<path fill-rule="evenodd" clip-rule="evenodd" d="M95.7614 123.062C95.7614 128.13 92.7419 132.238 89.0169 132.238C85.2919 132.238 82.272 128.13 82.272 123.062C82.272 117.995 85.2919 113.886 89.0169 113.886C92.7419 113.886 95.7614 117.995 95.7614 123.062Z" fill="#F09959"/>
<path fill-rule="evenodd" clip-rule="evenodd" d="M92.1596 115.76C87.8998 122.95 81.6115 122.241 81.6115 122.241C81.6115 122.241 81.7638 112.722 86.7588 112.216C91.754 111.709 94.6952 113.711 95.7095 117.014C96.7236 120.317 95.7095 122.494 95.7095 122.494C95.7095 122.494 94.0866 121.228 93.2753 119.203C92.464 117.178 92.1596 115.76 92.1596 115.76Z" fill="#3A384D"/>
<path fill-rule="evenodd" clip-rule="evenodd" d="M82.9619 122.921C83.5927 124.247 83.3864 125.662 82.501 126.082C81.6156 126.502 80.3863 125.767 79.7554 124.441C79.1247 123.115 79.3311 121.7 80.2165 121.28C81.1019 120.86 82.3312 121.595 82.9619 122.921Z" fill="#F09959"/>
<path fill-rule="evenodd" clip-rule="evenodd" d="M94.7663 122.921C94.1354 124.247 94.3418 125.662 95.2273 126.082C96.1128 126.502 97.3419 125.767 97.9728 124.441C98.6036 123.115 98.3971 121.7 97.5117 121.28C96.6263 120.86 95.3971 121.595 94.7663 122.921Z" fill="#F09959"/>
<path fill-rule="evenodd" clip-rule="evenodd" d="M91.5531 128.039C91.5531 128.039 90.4178 129.508 89.0175 129.508C87.6171 129.508 86.4819 128.039 86.4819 128.039H91.5531Z" fill="white"/>
<path fill-rule="evenodd" clip-rule="evenodd" d="M97.0455 157.725H80.0128C78.9235 157.725 78.0322 156.835 78.0322 155.748C78.0322 154.66 78.9235 153.77 80.0128 153.77H97.0455C98.1348 153.77 99.026 154.66 99.026 155.748C99.026 156.835 98.1348 157.725 97.0455 157.725Z" fill="#99BBEB"/>
<path fill-rule="evenodd" clip-rule="evenodd" d="M100.164 163.801H76.8944C75.8051 163.801 74.914 162.911 74.914 161.823C74.914 160.736 75.8051 159.846 76.8944 159.846H100.164C101.254 159.846 102.145 160.736 102.145 161.823C102.145 162.911 101.254 163.801 100.164 163.801Z" fill="#99BBEB"/>
<path fill-rule="evenodd" clip-rule="evenodd" d="M116.831 185.651H60.2271C59.5951 185.651 59.0779 185.135 59.0779 184.504C59.0779 183.873 59.5951 183.356 60.2271 183.356H116.831C117.463 183.356 117.98 183.873 117.98 184.504C117.98 185.135 117.463 185.651 116.831 185.651Z" fill="#99BBEB"/>
<path fill-rule="evenodd" clip-rule="evenodd" d="M116.831 190.984H60.2271C59.5951 190.984 59.0779 190.467 59.0779 189.837C59.0779 189.205 59.5951 188.689 60.2271 188.689H116.831C117.463 188.689 117.98 189.205 117.98 189.837C117.98 190.467 117.463 190.984 116.831 190.984Z" fill="#99BBEB"/>
<path fill-rule="evenodd" clip-rule="evenodd" d="M116.831 196.317H60.2271C59.5951 196.317 59.0779 195.801 59.0779 195.169C59.0779 194.539 59.5951 194.022 60.2271 194.022H116.831C117.463 194.022 117.98 194.539 117.98 195.169C117.98 195.801 117.463 196.317 116.831 196.317Z" fill="#99BBEB"/>
<path fill-rule="evenodd" clip-rule="evenodd" d="M68.1435 104.541C67.9361 104.541 67.761 104.716 67.761 104.923V142.44C67.761 142.646 67.9361 142.821 68.1435 142.821H108.914C109.121 142.821 109.296 142.646 109.296 142.44V104.923C109.296 104.716 109.121 104.541 108.914 104.541H68.1435ZM108.914 144.488H68.1435C67.0122 144.488 66.0917 143.569 66.0917 142.44V104.923C66.0917 103.793 67.0122 102.874 68.1435 102.874H108.914C110.045 102.874 110.966 103.793 110.966 104.923V142.44C110.966 143.569 110.045 144.488 108.914 144.488Z" fill="#99BBEB"/>
<path fill-rule="evenodd" clip-rule="evenodd" d="M74.0265 168.96L75.2067 171.347L77.8461 171.73L75.9362 173.589L76.3871 176.214L74.0265 174.975L71.6657 176.214L72.1166 173.589L70.2067 171.73L72.8461 171.347L74.0265 168.96Z" fill="#99BBEB"/>
<path fill-rule="evenodd" clip-rule="evenodd" d="M83.6941 168.96L84.8743 171.347L87.5137 171.73L85.604 173.589L86.0547 176.214L83.6941 174.975L81.3333 176.214L81.7842 173.589L79.8743 171.73L82.5137 171.347L83.6941 168.96Z" fill="#99BBEB"/>
<path fill-rule="evenodd" clip-rule="evenodd" d="M93.3632 168.96L94.5436 171.347L97.183 171.73L95.2731 173.589L95.724 176.214L93.3632 174.975L91.0026 176.214L91.4533 173.589L89.5436 171.73L92.1828 171.347L93.3632 168.96Z" fill="#99BBEB"/>
<path fill-rule="evenodd" clip-rule="evenodd" d="M103.029 168.96L104.21 171.347L106.849 171.73L104.939 173.589L105.39 176.214L103.029 174.975L100.669 176.214L101.119 173.589L99.2097 171.73L101.849 171.347L103.029 168.96Z" fill="#99BBEB"/>
<path fill-rule="evenodd" clip-rule="evenodd" d="M213.227 214.676H285.8V95.9088H213.227V214.676Z" fill="#6C78AC"/>
<path fill-rule="evenodd" clip-rule="evenodd" d="M217.026 210.15H283.414V98.3287H217.026V210.15Z" fill="white"/>
<path fill-rule="evenodd" clip-rule="evenodd" d="M240.037 122.457C240.037 127.776 243.244 136.36 250.811 136.084C258.38 135.809 260.052 127.627 260.346 125.318C260.638 123.009 240.037 122.457 240.037 122.457Z" fill="#7A4E34"/>
<path fill-rule="evenodd" clip-rule="evenodd" d="M236.883 143.169C239.381 137.802 243.611 136.083 250.556 136.083C258.824 136.083 263.117 139.074 264.334 143.428C249.527 143.631 236.883 143.169 236.883 143.169Z" fill="#D54A41"/>
<path fill-rule="evenodd" clip-rule="evenodd" d="M251.928 140.367C251.135 141.534 250.556 141.583 249.696 140.367C249.013 139.401 247.668 137.206 247.668 136.092V124.975C247.668 123.861 248.581 122.95 249.696 122.95H251.928C253.043 122.95 253.956 123.861 253.956 124.975V136.092C253.956 137.206 252.637 139.321 251.928 140.367Z" fill="#F09959"/>
<path fill-rule="evenodd" clip-rule="evenodd" d="M251.928 122.95H249.696C248.581 122.95 247.668 123.861 247.668 124.975V134.894C250.173 135.69 252.46 134.107 253.956 132.324V124.975C253.956 123.861 253.043 122.95 251.928 122.95Z" fill="#E38540"/>
<path fill-rule="evenodd" clip-rule="evenodd" d="M257.559 123.062C257.559 128.13 254.539 132.238 250.813 132.238C247.088 132.238 244.069 128.13 244.069 123.062C244.069 117.995 247.088 113.886 250.813 113.886C254.539 113.886 257.559 117.995 257.559 123.062Z" fill="#F09959"/>
<path fill-rule="evenodd" clip-rule="evenodd" d="M254.519 116.088C253.718 118.91 251.962 118.877 249.513 119.804C247.064 120.73 245.894 121.663 245.092 123.468C244.069 125.77 245.556 132.481 245.556 132.481C245.556 132.481 239.355 127.848 240.071 120.562C240.789 113.275 245.092 110.453 249.141 110.453C253.19 110.453 254.731 112.917 254.731 112.917C254.731 112.917 256.888 112.926 258.928 115.339C261.671 118.582 260.826 126.458 258.928 129.28C257.03 132.102 255.765 132.987 255.806 132.86C255.848 132.734 257.577 126.254 256.651 122.246C255.723 118.239 254.519 116.088 254.519 116.088Z" fill="#7A4E34"/>
<path fill-rule="evenodd" clip-rule="evenodd" d="M253.347 128.039C253.347 128.039 252.211 129.508 250.811 129.508C249.412 129.508 248.275 128.039 248.275 128.039H253.347Z" fill="white"/>
<path fill-rule="evenodd" clip-rule="evenodd" d="M258.841 157.725H241.809C240.719 157.725 239.827 156.835 239.827 155.748C239.827 154.66 240.719 153.77 241.809 153.77H258.841C259.929 153.77 260.821 154.66 260.821 155.748C260.821 156.835 259.929 157.725 258.841 157.725Z" fill="#99BBEB"/>
<path fill-rule="evenodd" clip-rule="evenodd" d="M261.959 163.801H238.69C237.6 163.801 236.709 162.911 236.709 161.823C236.709 160.736 237.6 159.846 238.69 159.846H261.959C263.049 159.846 263.941 160.736 263.941 161.823C263.941 162.911 263.049 163.801 261.959 163.801Z" fill="#99BBEB"/>
<path fill-rule="evenodd" clip-rule="evenodd" d="M278.626 185.651H222.023C221.39 185.651 220.873 185.135 220.873 184.504C220.873 183.873 221.39 183.356 222.023 183.356H278.626C279.258 183.356 279.776 183.873 279.776 184.504C279.776 185.135 279.258 185.651 278.626 185.651Z" fill="#99BBEB"/>
<path fill-rule="evenodd" clip-rule="evenodd" d="M278.626 190.984H222.023C221.39 190.984 220.873 190.467 220.873 189.837C220.873 189.205 221.39 188.689 222.023 188.689H278.626C279.258 188.689 279.776 189.205 279.776 189.837C279.776 190.467 279.258 190.984 278.626 190.984Z" fill="#99BBEB"/>
<path fill-rule="evenodd" clip-rule="evenodd" d="M278.626 196.317H222.023C221.39 196.317 220.873 195.801 220.873 195.169C220.873 194.539 221.39 194.022 222.023 194.022H278.626C279.258 194.022 279.776 194.539 279.776 195.169C279.776 195.801 279.258 196.317 278.626 196.317Z" fill="#99BBEB"/>
<path fill-rule="evenodd" clip-rule="evenodd" d="M229.94 104.541C229.733 104.541 229.557 104.716 229.557 104.923V142.44C229.557 142.646 229.733 142.821 229.94 142.821H270.71C270.917 142.821 271.093 142.646 271.093 142.44V104.923C271.093 104.716 270.917 104.541 270.71 104.541H229.94ZM270.71 144.488H229.94C228.808 144.488 227.888 143.569 227.888 142.44V104.923C227.888 103.793 228.808 102.874 229.94 102.874H270.71C271.842 102.874 272.762 103.793 272.762 104.923V142.44C272.762 143.569 271.842 144.488 270.71 144.488Z" fill="#99BBEB"/>
<path fill-rule="evenodd" clip-rule="evenodd" d="M235.823 168.96L237.003 171.347L239.642 171.73L237.732 173.589L238.183 176.214L235.823 174.975L233.462 176.214L233.913 173.589L232.003 171.73L234.642 171.347L235.823 168.96Z" fill="#99BBEB"/>
<path fill-rule="evenodd" clip-rule="evenodd" d="M245.492 168.96L246.672 171.347L249.311 171.73L247.402 173.589L247.852 176.214L245.492 174.975L243.13 176.214L243.582 173.589L241.672 171.73L244.312 171.347L245.492 168.96Z" fill="#99BBEB"/>
<path fill-rule="evenodd" clip-rule="evenodd" d="M255.158 168.96L256.338 171.347L258.977 171.73L257.068 173.589L257.518 176.214L255.158 174.975L252.797 176.214L253.248 173.589L251.338 171.73L253.978 171.347L255.158 168.96Z" fill="#99BBEB"/>
<path fill-rule="evenodd" clip-rule="evenodd" d="M264.827 168.96L266.007 171.347L268.647 171.73L266.737 173.589L267.188 176.214L264.827 174.975L262.465 176.214L262.916 173.589L261.006 171.73L263.645 171.347L264.827 168.96Z" fill="#99BBEB"/>
<path fill-rule="evenodd" clip-rule="evenodd" d="M213.227 213.488H124.005V96.3496H212.117C212.048 97.482 212.012 98.6232 212.012 99.7728C212.012 100.911 212.05 102.041 212.115 103.164L213.227 103.522V213.488Z" fill="#D7E8FA"/>
<path fill-rule="evenodd" clip-rule="evenodd" d="M213.226 103.522L212.114 103.164C212.049 102.041 212.01 100.911 212.01 99.7728C212.01 98.6232 212.047 97.482 212.116 96.3496H213.226V103.522Z" fill="#9DC5FB"/>
<path fill-rule="evenodd" clip-rule="evenodd" d="M124.004 213.488H106.851L107.081 210.15H121.618V98.3287H114.815L114.952 96.3496H124.004V213.488Z" fill="#99BBEB"/>
<path fill-rule="evenodd" clip-rule="evenodd" d="M121.619 210.15H107.082L108.039 196.317H116.831C117.463 196.317 117.98 195.801 117.98 195.169C117.98 194.539 117.463 194.022 116.831 194.022H108.197L108.408 190.984H116.831C117.463 190.984 117.98 190.467 117.98 189.837C117.98 189.205 117.463 188.689 116.831 188.689H108.566L108.776 185.651H116.831C117.463 185.651 117.98 185.135 117.98 184.504C117.98 183.873 117.463 183.356 116.831 183.356H108.935L114.816 98.3287H121.619V210.15Z" fill="#EBF1FB"/>
<path fill-rule="evenodd" clip-rule="evenodd" d="M116.831 185.651H108.776L108.935 183.356H116.831C117.463 183.356 117.98 183.873 117.98 184.504C117.98 185.135 117.463 185.651 116.831 185.651Z" fill="#99BBEB"/>
<path fill-rule="evenodd" clip-rule="evenodd" d="M116.83 190.984H108.406L108.565 188.689H116.83C117.462 188.689 117.979 189.205 117.979 189.837C117.979 190.467 117.462 190.984 116.83 190.984Z" fill="#99BBEB"/>
<path fill-rule="evenodd" clip-rule="evenodd" d="M116.83 196.317H108.037L108.196 194.022H116.83C117.462 194.022 117.979 194.539 117.979 195.169C117.979 195.801 117.462 196.317 116.83 196.317Z" fill="#99BBEB"/>
<path fill-rule="evenodd" clip-rule="evenodd" d="M221.385 213.488H213.227V96.3496H225.515L225.445 98.3287H217.026V210.15H221.502L221.385 213.488Z" fill="#99BBEB"/>
<path fill-rule="evenodd" clip-rule="evenodd" d="M221.501 210.15H217.026V98.3287H225.444L222.446 183.356H222.024C221.391 183.356 220.873 183.873 220.873 184.504C220.873 185.135 221.391 185.651 222.024 185.651H222.366L222.257 188.689H222.024C221.391 188.689 220.873 189.205 220.873 189.837C220.873 190.467 221.391 190.984 222.024 190.984H222.177L222.07 194.022H222.024C221.391 194.022 220.873 194.539 220.873 195.169C220.873 195.789 221.373 196.299 221.989 196.316L221.501 210.15Z" fill="#EBF1FB"/>
<path fill-rule="evenodd" clip-rule="evenodd" d="M222.365 185.651H222.023C221.39 185.651 220.873 185.135 220.873 184.504C220.873 183.873 221.39 183.356 222.023 183.356H222.445L222.365 185.651Z" fill="#99BBEB"/>
<path fill-rule="evenodd" clip-rule="evenodd" d="M222.176 190.984H222.023C221.39 190.984 220.873 190.467 220.873 189.837C220.873 189.205 221.39 188.689 222.023 188.689H222.257L222.176 190.984Z" fill="#99BBEB"/>
<path fill-rule="evenodd" clip-rule="evenodd" d="M221.988 196.316C221.372 196.299 220.873 195.789 220.873 195.169C220.873 194.539 221.39 194.022 222.023 194.022H222.07L221.988 196.316Z" fill="#99BBEB"/>
<path fill-rule="evenodd" clip-rule="evenodd" d="M118.881 236.401H218.007V74.1833H118.881V236.401Z" fill="#6C78AC"/>
<path fill-rule="evenodd" clip-rule="evenodd" d="M124 236H215V77H124V236Z" fill="white"/>
<path fill-rule="evenodd" clip-rule="evenodd" d="M160.96 109.569C160.897 109.379 159.309 100.282 159.119 96.7436C158.93 93.2056 164.815 92.7003 164.815 92.7003C164.815 92.7003 169.622 90.11 173.103 91.4367C176.584 92.7635 178.952 94.9957 180.533 97.7755C182.116 100.555 179.143 109.219 179.143 109.219L160.96 109.569Z" fill="#2E2D3D"/>
<path fill-rule="evenodd" clip-rule="evenodd" d="M150.048 138.799C150.026 138.65 150.456 135.069 150.471 134.924C151.272 127.385 160.58 125.265 169.867 125.265C180.779 125.265 188.183 127.259 189.365 135.093C189.4 135.322 190.029 138.912 189.997 139.153C169.772 139.43 150.048 138.799 150.048 138.799Z" fill="#D5E1E8"/>
<path fill-rule="evenodd" clip-rule="evenodd" d="M171.743 131.116C170.662 132.71 169.869 132.776 168.695 131.116C167.762 129.797 164.647 126.786 164.647 125.265L165.926 110.093C165.926 108.571 167.173 107.327 168.695 107.327H171.743C173.268 107.327 174.515 108.571 174.515 110.093L175.109 125.265C175.109 126.786 172.713 129.687 171.743 131.116Z" fill="#F09959"/>
<path fill-rule="evenodd" clip-rule="evenodd" d="M171.743 107.327H168.695C167.172 107.327 165.925 108.571 165.925 110.093L164.815 123.552C168.237 124.64 172.858 122.429 174.901 119.993L174.514 110.093C174.514 108.571 173.267 107.327 171.743 107.327Z" fill="#E38540"/>
<path fill-rule="evenodd" clip-rule="evenodd" d="M159.76 126.371L164.646 135.387C164.646 135.387 167.26 133.24 167.514 133.661C167.768 134.082 167.05 139.397 167.05 139.397C167.05 139.397 172.871 139.476 173.125 139.223C173.379 138.971 171.943 133.45 172.534 133.45C173.125 133.45 174.901 135.051 174.901 135.051L180.356 126.371L179.158 126.079L170.218 130.881L160.66 126.185L159.76 126.371Z" fill="#BDCCD4"/>
<path fill-rule="evenodd" clip-rule="evenodd" d="M165.348 130.526L168.977 132.956L167.852 139.409L172.745 139.136L171.523 133.267L174.531 130.526L173.117 129.196H166.76L165.348 130.526Z" fill="#D54A41"/>
<path fill-rule="evenodd" clip-rule="evenodd" d="M164.899 121.952L160.412 126.215C160.412 126.215 164.985 134.335 165.237 134.335C165.49 134.335 169.118 129.858 169.118 129.858L171.44 129.818L175.109 133.661L179.371 126.131L175.024 121.53C175.024 121.53 171.311 128.691 170.637 128.859C169.963 129.028 169.958 129.112 169.412 128.691C168.866 128.269 164.899 121.952 164.899 121.952Z" fill="#D5E1E8"/>
<path fill-rule="evenodd" clip-rule="evenodd" d="M179.431 107.48C179.431 114.402 175.306 120.013 170.218 120.013C165.13 120.013 161.006 114.402 161.006 107.48C161.006 100.559 165.13 94.9476 170.218 94.9476C175.306 94.9476 179.431 100.559 179.431 107.48Z" fill="#F09959"/>
<path fill-rule="evenodd" clip-rule="evenodd" d="M161.95 107.287C162.812 109.098 162.529 111.032 161.319 111.605C160.111 112.179 158.431 111.175 157.57 109.364C156.708 107.553 156.991 105.619 158.199 105.046C159.409 104.473 161.089 105.476 161.95 107.287Z" fill="#F09959"/>
<path fill-rule="evenodd" clip-rule="evenodd" d="M178.073 107.287C177.212 109.098 177.494 111.032 178.703 111.605C179.911 112.179 181.591 111.175 182.452 109.364C183.314 107.553 183.033 105.619 181.823 105.046C180.614 104.473 178.935 105.476 178.073 107.287Z" fill="#F09959"/>
<path fill-rule="evenodd" clip-rule="evenodd" d="M174.305 112.623C174.305 112.623 172.475 115.582 170.218 115.582C167.961 115.582 166.131 112.623 166.131 112.623H174.305Z" fill="white"/>
<path fill-rule="evenodd" clip-rule="evenodd" d="M164.814 98.9549C168.61 96.3015 170.318 96.7437 173.166 101.103C176.014 105.462 179.431 105.539 179.431 105.539L179.874 101.019C179.874 101.019 175.632 92.8267 169.938 93.9007C164.245 94.9748 161.006 100.092 161.006 100.092C161.006 100.092 160.729 109.684 161.524 110.011C162.319 110.338 162.409 106.915 162.978 106.22C163.549 105.525 162.409 102.24 163.168 100.724C163.928 99.2076 164.814 98.9549 164.814 98.9549Z" fill="#2E2D3D"/>
<path fill-rule="evenodd" clip-rule="evenodd" d="M177.025 103.883C178.351 105.332 177.848 111.085 178.544 111.022C179.241 110.959 179.494 105.525 179.304 104.957C179.114 104.388 177.025 103.883 177.025 103.883Z" fill="#2E2D3D"/>
<path fill-rule="evenodd" clip-rule="evenodd" d="M190.71 158.615H148.395C146.908 158.615 145.691 157.4 145.691 155.914C145.691 154.429 146.908 153.213 148.395 153.213H190.71C192.199 153.213 193.416 154.429 193.416 155.914C193.416 157.4 192.199 158.615 190.71 158.615Z" fill="#1A2F84"/>
<path fill-rule="evenodd" clip-rule="evenodd" d="M185.445 166.914H153.662C152.173 166.914 150.956 165.698 150.956 164.213C150.956 162.727 152.173 161.512 153.662 161.512H185.445C186.932 161.512 188.149 162.727 188.149 164.213C188.149 165.698 186.932 166.914 185.445 166.914Z" fill="#1A2F84"/>
<path fill-rule="evenodd" clip-rule="evenodd" d="M208.21 196.757H130.897C130.034 196.757 129.328 196.052 129.328 195.19C129.328 194.329 130.034 193.624 130.897 193.624H208.21C209.073 193.624 209.779 194.329 209.779 195.19C209.779 196.052 209.073 196.757 208.21 196.757Z" fill="#1A2F84"/>
<path fill-rule="evenodd" clip-rule="evenodd" d="M208.21 204.041H130.897C130.034 204.041 129.328 203.336 129.328 202.474C129.328 201.612 130.034 200.907 130.897 200.907H208.21C209.073 200.907 209.779 201.612 209.779 202.474C209.779 203.336 209.073 204.041 208.21 204.041Z" fill="#1A2F84"/>
<path fill-rule="evenodd" clip-rule="evenodd" d="M208.21 211.326H130.897C130.034 211.326 129.328 210.62 129.328 209.758C129.328 208.896 130.034 208.191 130.897 208.191H208.21C209.073 208.191 209.779 208.896 209.779 209.758C209.779 210.62 209.073 211.326 208.21 211.326Z" fill="#1A2F84"/>
<path fill-rule="evenodd" clip-rule="evenodd" d="M141.71 85.6688C141.254 85.6688 140.883 86.0395 140.883 86.4952V137.737C140.883 138.193 141.254 138.564 141.71 138.564H197.396C197.853 138.564 198.224 138.193 198.224 137.737V86.4952C198.224 86.0395 197.853 85.6688 197.396 85.6688H141.71ZM197.396 140.23H141.71C140.333 140.23 139.213 139.112 139.213 137.737V86.4952C139.213 85.1204 140.333 84.002 141.71 84.002H197.396C198.773 84.002 199.893 85.1204 199.893 86.4952V137.737C199.893 139.112 198.773 140.23 197.396 140.23Z" fill="#99BBEB"/>
<path fill-rule="evenodd" clip-rule="evenodd" d="M143.038 173.96L144.65 177.221L148.254 177.744L145.647 180.283L146.263 183.868L143.038 182.175L139.813 183.868L140.429 180.283L137.821 177.744L141.426 177.221L143.038 173.96Z" fill="#99BBEB"/>
<path fill-rule="evenodd" clip-rule="evenodd" d="M156.242 173.96L157.855 177.221L161.461 177.744L158.852 180.283L159.468 183.868L156.242 182.175L153.019 183.868L153.635 180.283L151.026 177.744L154.632 177.221L156.242 173.96Z" fill="#99BBEB"/>
<path fill-rule="evenodd" clip-rule="evenodd" d="M169.448 173.96L171.06 177.221L174.666 177.744L172.057 180.283L172.673 183.868L169.448 182.175L166.224 183.868L166.84 180.283L164.231 177.744L167.837 177.221L169.448 173.96Z" fill="#99BBEB"/>
<path fill-rule="evenodd" clip-rule="evenodd" d="M182.653 173.96L184.264 177.221L187.87 177.744L185.261 180.283L185.877 183.868L182.653 182.175L179.428 183.868L180.044 180.283L177.435 177.744L181.041 177.221L182.653 173.96Z" fill="#99BBEB"/>
<path fill-rule="evenodd" clip-rule="evenodd" d="M196.068 173.96L197.679 177.221L201.285 177.744L198.676 180.283L199.292 183.868L196.068 182.175L192.843 183.868L193.459 180.283L190.85 177.744L194.455 177.221L196.068 173.96Z" fill="#99BBEB"/>
<path fill-rule="evenodd" clip-rule="evenodd" d="M377.205 231.187H250.007C249.242 231.187 248.623 230.569 248.623 229.805V227.734C248.623 226.97 249.242 226.352 250.007 226.352H377.205C377.969 226.352 378.589 226.97 378.589 227.734V229.805C378.589 230.569 377.969 231.187 377.205 231.187Z" fill="#2E5B9A"/>
<path fill-rule="evenodd" clip-rule="evenodd" d="M409.958 161.547C411.68 167.613 407.472 173.865 402.834 175.178C398.197 176.492 394.888 172.369 393.166 166.303C391.441 160.236 393.803 154.253 398.441 152.94C403.078 151.627 408.233 155.48 409.958 161.547Z" fill="#F09959"/>
<path fill-rule="evenodd" clip-rule="evenodd" d="M383.959 279.103C383.959 279.103 395.844 297.532 397.449 298.332C399.054 299.134 403.067 299.334 401.561 302.339C400.057 305.344 399.454 317.163 398.05 317.763C396.647 318.364 384.609 319.766 386.413 317.763C388.22 315.759 389.33 316.761 390.241 313.156C391.153 309.551 392.433 302.74 390.727 301.337C389.023 299.935 378.589 287.315 378.589 287.315L383.959 279.103Z" fill="#F09959"/>
<path fill-rule="evenodd" clip-rule="evenodd" d="M324.147 287.016C324.147 287.016 309.702 310.789 307.026 312.926C304.352 315.063 295.523 318.268 302.746 318.801C309.969 319.336 313.447 316.398 317.994 315.063C322.543 313.728 328.16 312.926 326.02 309.452C323.88 305.981 324.768 298.4 329.382 293.593C333.997 288.785 324.147 287.016 324.147 287.016Z" fill="#F09959"/>
<path fill-rule="evenodd" clip-rule="evenodd" d="M397.867 231.892C397.867 231.892 362.106 230.959 347.929 242.576C339.635 255.13 319.573 292.17 318.012 296.252C319.082 297.32 325.102 299.249 327.778 298.982C335.669 289.586 346.101 281.464 350.249 274.094C355.361 265.014 356.937 260.472 365.23 259.672C373.523 258.87 392.25 256.198 397.867 256.198C403.485 256.198 397.867 231.892 397.867 231.892Z" fill="#263238"/>
<path fill-rule="evenodd" clip-rule="evenodd" d="M429.052 318.866H427.177L413.736 262.87H417.859L429.052 318.866Z" fill="#2E5B9A"/>
<path fill-rule="evenodd" clip-rule="evenodd" d="M372.898 318.866H374.773L390.198 260.892H386.074L372.898 318.866Z" fill="#2E5B9A"/>
<path fill-rule="evenodd" clip-rule="evenodd" d="M418.239 229.447L397.449 233.031C397.449 233.031 369.82 233.284 357.191 235.632C345.701 237.769 344.006 250.803 357.191 268.752C364.68 278.949 371.012 287.081 383.959 296.252C387.253 293.838 388.513 292.925 389.423 287.115C388.486 285.831 386.061 277.803 385.308 276.231C378.145 261.284 368.586 255.848 368.452 254.377C370.058 251.773 410.969 267.951 419.102 258.435C426.87 249.348 418.239 229.447 418.239 229.447Z" fill="#263238"/>
<path fill-rule="evenodd" clip-rule="evenodd" d="M419.103 182.451C413.627 181.684 408.052 182.723 402.835 186.493C398.278 191.132 393.121 198.781 393.437 211.4C393.837 227.425 390.953 228.454 393.962 232.861C406.514 238.036 427.98 260.27 422.926 236.434C419.265 219.173 430.953 206.308 421.525 187.161C420.757 185.603 419.797 184.092 419.103 182.451Z" fill="#F37168"/>
<path fill-rule="evenodd" clip-rule="evenodd" d="M393.432 217.43C393.189 225.785 392.007 228.245 392.91 230.865C398.026 231.387 407.386 233.431 409.725 236.701C412.401 240.439 415.077 240.974 413.828 238.214C412.58 235.454 409.279 231.537 414.363 218.093C419.446 204.648 421.853 195.567 416.86 186.218L393.432 217.43Z" fill="#D54A41"/>
<path fill-rule="evenodd" clip-rule="evenodd" d="M419.103 182.451C415.732 174.482 414.904 165.527 414.904 165.527L406.075 168.131C406.075 168.131 411.091 179.349 406.277 183.355C405.252 184.207 404.065 185.241 402.835 186.493C408.052 182.723 413.627 181.684 419.103 182.451Z" fill="#F09959"/>
<path fill-rule="evenodd" clip-rule="evenodd" d="M415.169 167.65C414.647 167.185 413.992 166.605 413.305 165.999L406.105 168.123L406.09 168.162C406.263 168.559 408.096 172.832 408.338 176.942C410.483 175.642 412.834 173.523 415.52 169.821C415.375 169 415.259 168.267 415.169 167.65Z" fill="#E38540"/>
<path fill-rule="evenodd" clip-rule="evenodd" d="M412.898 184.958C403.805 188.133 404.813 197.696 396.446 211.8C392.114 219.1 388.093 218.99 388.093 218.99C388.093 218.99 377.936 219.072 365.653 217.572C357.961 216.633 357.472 218.92 362.822 220.828C373.611 224.68 384.809 228.827 393.837 227.825C402.866 226.824 418.308 203.824 419.103 197.837C420.204 189.557 417.477 183.359 412.898 184.958Z" fill="#F09959"/>
<path fill-rule="evenodd" clip-rule="evenodd" d="M408.214 265.204C407.648 265.204 407.071 265.197 406.476 265.182C399.066 265 394.021 263.977 389.97 263.154C385.237 262.194 382.63 261.665 379.597 263.112C378.431 263.667 377.037 263.175 376.48 262.012C375.924 260.85 376.416 259.457 377.582 258.902C382.027 256.78 385.75 257.535 390.9 258.58C394.773 259.367 399.594 260.345 406.592 260.517C414.424 260.712 419.198 259.552 421.619 256.872C423.776 254.483 424.407 250.471 423.606 244.246C423.332 242.114 423.056 240.343 422.814 238.779C422.132 234.367 421.679 231.452 422.238 226.947C422.758 222.763 424.145 217.192 427.36 206.384C427.727 205.149 429.026 204.446 430.265 204.813C431.502 205.179 432.208 206.478 431.84 207.713C425.851 227.85 426.155 229.81 427.433 238.066C427.68 239.658 427.959 241.461 428.241 243.651C429.23 251.328 428.23 256.523 425.091 259.997C421.859 263.575 416.614 265.204 408.214 265.204Z" fill="#2E5B9A"/>
<path fill-rule="evenodd" clip-rule="evenodd" d="M325.129 307.052C315.543 311.733 310.384 314.416 307.31 314.159C306.586 314.099 305.985 314.026 305.481 313.946C302.062 315.964 296.605 318.348 302.745 318.801C309.968 319.336 313.445 316.398 317.992 315.063C322.541 313.728 328.159 312.926 326.019 309.452C325.608 308.787 325.311 307.971 325.129 307.052Z" fill="#D54A41"/>
<path fill-rule="evenodd" clip-rule="evenodd" d="M398.495 298.724C398.26 306.301 397.216 313.809 392.575 315.228C391.345 315.604 390.223 315.658 389.232 315.526C388.501 316.428 387.611 316.438 386.414 317.763C384.609 319.766 396.647 318.364 398.051 317.763C399.455 317.163 400.057 305.344 401.562 302.339C402.799 299.87 400.311 299.295 398.495 298.724Z" fill="#D54A41"/>
<path fill-rule="evenodd" clip-rule="evenodd" d="M361.572 227.014H331.121C330.212 227.014 329.385 226.487 329.001 225.664L316.696 199.221C316.152 198.052 316.66 196.666 317.83 196.122C319.002 195.579 320.391 196.086 320.935 197.254L332.612 222.347H361.572C362.864 222.347 363.909 223.392 363.909 224.68C363.909 225.97 362.864 227.014 361.572 227.014Z" fill="#75A1DE"/>
<path fill-rule="evenodd" clip-rule="evenodd" d="M367.943 217.837C361.79 217.748 355.687 214.086 352.656 214.62C349.624 215.155 339.726 222.01 340.975 222.277C342.222 222.543 350.07 218.483 350.337 218.422C350.606 218.36 352.3 221.233 356.49 222.29C360.682 223.345 356.52 219.153 369.511 223.072C377.96 225.619 367.943 217.837 367.943 217.837Z" fill="#F09959"/>
<path fill-rule="evenodd" clip-rule="evenodd" d="M418.197 175.178L419.102 182.451C419.102 182.451 411.141 182.924 407.178 185.15C403.216 187.376 397.369 193.807 397.369 193.807L402.146 185.595L402.834 180.342L418.197 175.178Z" fill="#F2E5DE"/>
<path fill-rule="evenodd" clip-rule="evenodd" d="M414.809 184.082C408.896 182.975 406.16 188.266 402.326 196.902C398.491 205.539 391.945 216.028 390.643 217.38C389.343 218.733 368.706 217.38 368.706 217.38C368.706 217.38 368.082 223.345 368.706 224.058C369.331 224.77 372.898 224.68 372.898 224.68C372.898 224.68 374.325 225.819 375.663 226.719C377 227.619 388.325 229.31 393.586 229.044C398.848 228.777 403.663 228.332 404.376 227.53C405.09 226.729 419.446 204.648 420.338 196.724C421.229 188.8 417.827 184.646 414.809 184.082Z" fill="#F2E5DE"/>
<path fill-rule="evenodd" clip-rule="evenodd" d="M397.369 147.756C386.185 148.29 387.939 165.09 387.939 165.09C387.939 165.09 390.844 165.986 396.93 164.984C396.463 163.181 396.663 158.574 396.663 158.574C396.663 158.574 397.369 162.313 398.268 164.583C399.555 165.172 401.01 164.65 403.484 164.053C404.756 169.391 408.347 171.647 410.805 172.418C413.522 173.271 416.397 174.288 419.607 172.685C422.817 171.083 421.053 154.701 419.347 151.406C416.789 146.461 412.536 142.036 405.179 144.373C401.489 145.545 397.369 147.756 397.369 147.756Z" fill="#303C60"/>
<path fill-rule="evenodd" clip-rule="evenodd" d="M416.82 167.708L421.393 174.377C421.393 174.377 416.325 187.02 431.065 192.747C442.609 197.234 441.248 205.138 436.033 213.086C430.816 221.035 439.153 227.977 439.153 227.977C439.153 227.977 440.425 219.172 451.642 217.51C466.935 215.243 471.265 194.744 459.841 184.493C450.39 176.01 447.513 183.035 441.115 175.423C434.718 167.811 422.638 172.952 422.638 172.952L418.211 166.507L416.82 167.708Z" fill="#303C60"/>
<path fill-rule="evenodd" clip-rule="evenodd" d="M465.103 205.144C465.036 205.144 464.969 205.128 464.908 205.094C464.711 204.986 464.639 204.739 464.746 204.543C468.592 197.526 465.453 189.025 463.876 186.722C463.707 186.478 463.549 186.231 463.382 185.969C461.831 183.553 459.901 180.545 449.603 178.694C447.124 178.248 445.116 176.777 442.991 175.219C438.599 172 433.622 168.352 422.808 173.321C422.605 173.415 422.363 173.326 422.269 173.122C422.176 172.918 422.264 172.677 422.468 172.584C433.716 167.414 438.899 171.213 443.471 174.564C445.52 176.065 447.453 177.483 449.748 177.895C460.394 179.809 462.43 182.982 464.066 185.531C464.232 185.788 464.387 186.03 464.547 186.264C466.2 188.676 469.487 197.582 465.46 204.933C465.385 205.068 465.246 205.144 465.103 205.144Z" fill="#303C60"/>
<path fill-rule="evenodd" clip-rule="evenodd" d="M414.378 174.542C413.647 174.542 412.854 174.478 412.003 174.351C408.09 173.765 402.84 171.545 402.429 159.077C402.421 158.853 402.598 158.665 402.821 158.657C403.05 158.653 403.234 158.826 403.242 159.05C403.411 164.189 404.432 167.992 406.277 170.352C407.678 172.145 409.536 173.16 412.123 173.548C415.746 174.089 418.146 173.422 419.258 171.563C419.373 171.371 419.624 171.308 419.815 171.423C420.007 171.538 420.071 171.787 419.956 171.98C418.936 173.684 417.064 174.542 414.378 174.542Z" fill="#303C60"/>
<path fill-rule="evenodd" clip-rule="evenodd" d="M262.256 318.866H265.261L276.951 229.645H270.34L262.256 318.866Z" fill="#2E5B9A"/>
<path fill-rule="evenodd" clip-rule="evenodd" d="M364.23 318.866H361.225L349.534 229.645H356.147L364.23 318.866Z" fill="#2E5B9A"/>
<path fill-rule="evenodd" clip-rule="evenodd" d="M482.079 243.554C487.277 248.295 485.017 253.033 481.174 261.837C477.331 270.639 476.654 303.139 476.654 303.139L479.819 302.687C479.819 302.687 479.366 269.284 483.662 260.257C487.955 251.228 489.765 246.715 493.608 249.648C497.45 252.583 482.079 243.554 482.079 243.554Z" fill="#74B570"/>
<path fill-rule="evenodd" clip-rule="evenodd" d="M479.222 237.417C479.853 234.609 483.603 231.569 488.618 228.992C487.871 233.134 485.481 239.908 487.955 241.298C491.292 243.171 488.28 233.714 489.567 228.515C494.277 226.22 499.941 224.344 505.156 223.41C505.149 223.43 505.142 223.447 505.136 223.467C502.196 230.916 498.353 233.849 499.936 234.977C501.126 235.827 505.004 227.224 510.124 222.813C513.968 222.608 517.218 223.128 519.143 224.649C522.116 226.999 524.111 229.084 521.121 236.239C519.414 237.459 517.2 238.333 514.629 238.589C507.848 239.266 504.683 239.493 509.431 241.749C511.755 242.854 515.651 241.686 518.811 240.976C517.786 242.861 516.526 244.995 514.995 247.426C514.025 248.966 512.955 250.306 511.818 251.463C509.633 251.881 507.727 251.886 506.718 251.455C503.553 250.1 495.415 245.811 493.38 247.616C491.39 249.385 508.453 250.503 507.269 254.995C498.999 259.752 489.536 257.488 487.863 253.12C485.616 247.253 477.321 245.873 479.222 237.417Z" fill="#9CD499"/>
<path fill-rule="evenodd" clip-rule="evenodd" d="M496.321 269.511C487.278 262.739 478.009 269.059 473.263 276.281C468.516 283.503 471.906 299.754 471.906 299.754C471.906 299.754 473.714 299.754 473.714 299.077C473.714 298.4 468.741 279.893 480.497 271.541C487.85 266.317 493.156 268.832 493.833 271.316C494.511 273.798 490.895 278.313 490.895 278.313L496.321 269.511Z" fill="#74B570"/>
<path fill-rule="evenodd" clip-rule="evenodd" d="M475.523 255.592C484.565 255.592 487.504 269.586 485.017 277.711C482.53 285.835 479.139 300.957 479.139 300.957L476.879 298.7C476.879 298.7 485.469 277.484 483.434 268.006C481.399 258.525 476.426 256.945 475.523 256.945C474.618 256.945 475.523 255.592 475.523 255.592Z" fill="#9CD499"/>
<path fill-rule="evenodd" clip-rule="evenodd" d="M483.107 277.773C483.743 276.933 484.528 276.238 485.486 275.776C485.361 276.449 485.206 277.096 485.017 277.711C483.883 281.413 482.563 286.566 481.461 291.082C481.361 290.503 481.208 289.612 480.969 288.238C480.912 287.913 480.869 287.56 480.837 287.186C481.723 284.18 482.56 280.904 483.107 277.773Z" fill="#74B570"/>
<path fill-rule="evenodd" clip-rule="evenodd" d="M485.579 277.841C502.758 270.619 493.707 260.707 508.853 267.252C509.92 267.714 511.22 268.877 512.521 270.479C511.172 270.861 509.539 271.136 507.723 270.864C503.201 270.187 504.783 273.797 512.244 274.701C513.649 274.871 514.791 275.106 515.739 275.438C519.293 282.253 520.894 291.22 513.374 294.337C511.892 294.952 510.06 295.302 508.02 295.433C505.7 293.592 508.588 282.935 505.01 284.406C501.575 285.818 506.085 293.542 505.468 295.487C502.077 295.425 498.323 294.873 494.735 293.985C493.317 293.192 492.233 292.127 491.899 290.725C490.769 285.986 498.228 283.051 498.455 278.989C498.662 275.254 495.72 287.206 487.926 288.965C480.878 285.678 477.548 281.218 485.579 277.841Z" fill="#9CD499"/>
<path fill-rule="evenodd" clip-rule="evenodd" d="M473.338 265.07C475.146 261.234 470.398 260.332 470.625 263.265C470.826 265.865 470.847 272.186 468.176 273.906C463.571 273.407 457.304 271.554 452.568 268.731C452.508 268.349 452.565 267.956 452.767 267.554C454.802 263.49 467.913 260.105 463.843 258.752C460.603 257.673 454.923 264.039 450.348 267.245C447.6 265.164 445.759 262.682 445.759 259.912C445.759 256.162 450.323 251.918 456.224 249.888C458.88 250.156 461.345 251.606 465.2 253.787C470.892 257.007 469.575 251.8 464.193 248.71C468.839 248.95 473.472 250.931 476.889 255.667C476.889 255.667 476.565 257.69 478.71 260.822C484.565 269.362 477.809 274.349 469.734 274.024C470.191 271.774 472.088 267.722 473.338 265.07Z" fill="#9CD499"/>
<path fill-rule="evenodd" clip-rule="evenodd" d="M495.776 269.127C500.196 272.537 505.108 276.526 511.136 279.234C517.164 281.943 515.958 290.77 515.958 290.77C515.958 290.77 516.862 283.146 511.838 280.538C506.815 277.929 503.5 274.821 499.682 274.218C495.863 273.616 493.754 273.014 493.754 273.014C493.754 273.014 494.96 270.607 494.255 269.704C493.552 268.801 495.776 269.127 495.776 269.127Z" fill="#74B570"/>
<path fill-rule="evenodd" clip-rule="evenodd" d="M517.565 229.075C501.389 233.389 489.534 243.723 487.324 246.23C485.113 248.738 485.113 249.44 485.113 249.44L486.821 252.65L487.624 252.25C487.624 252.25 486.319 249.54 489.734 246.03C495.625 239.974 502.795 235.196 507.72 233.089C512.643 230.982 517.565 229.075 517.565 229.075Z" fill="#74B570"/>
<path fill-rule="evenodd" clip-rule="evenodd" d="M472.914 318.475H479.094C483.489 318.475 487.052 314.918 487.052 310.529V296.352H464.956V310.529C464.956 314.918 468.52 318.475 472.914 318.475Z" fill="#75A1DE"/>
<path fill-rule="evenodd" clip-rule="evenodd" d="M464.956 300.44H487.052V298.887H464.956V300.44Z" fill="white"/>
<path fill-rule="evenodd" clip-rule="evenodd" d="M464.956 302.632H487.052V301.719H464.956V302.632Z" fill="white"/>
<path fill-rule="evenodd" clip-rule="evenodd" d="M517.433 143.381V138.117C517.433 137.006 516.532 136.105 515.418 136.105H511.076C509.963 136.105 509.061 137.006 509.061 138.117V143.381C509.061 144.493 509.963 145.394 511.076 145.394H515.418C516.532 145.394 517.433 144.493 517.433 143.381Z" fill="#9EC8FF"/>
<path fill-rule="evenodd" clip-rule="evenodd" d="M517.433 160.27V155.006C517.433 153.895 516.532 152.994 515.418 152.994H511.076C509.963 152.994 509.061 153.895 509.061 155.006V160.27C509.061 161.382 509.963 162.283 511.076 162.283H515.418C516.532 162.283 517.433 161.382 517.433 160.27Z" fill="#9EC8FF"/>
<path fill-rule="evenodd" clip-rule="evenodd" d="M517.433 177.16V171.896C517.433 170.784 516.532 169.883 515.418 169.883H511.076C509.963 169.883 509.061 170.784 509.061 171.896V177.16C509.061 178.271 509.963 179.172 511.076 179.172H515.418C516.532 179.172 517.433 178.271 517.433 177.16Z" fill="#9EC8FF"/>
</svg>
