<svg width="544" height="475" viewBox="0 0 544 475" fill="none" xmlns="http://www.w3.org/2000/svg">
<circle cx="23" cy="35" r="23" fill="#0A1F73"/>
<path d="M16.1078 38.664V35.208L22.6598 26.424H26.7398V35.832H29.3078V38.664H26.7398V42H23.4758V38.664H16.1078ZM23.4758 35.832V29.88L19.0358 35.832H23.4758Z" fill="white"/>
<path d="M25.4913 69C70.9041 160.057 -42.3044 327.237 89 384" stroke="#C8CEDB" stroke-width="3.87064" stroke-dasharray="3.1 7.74"/>
<path d="M234.686 34.478V17.462H230.774L225.326 30.446L219.806 17.462H215.966V34.478H218.774V21.998L224.03 34.478H226.526L231.83 21.95V34.478H234.686ZM237.74 31.31C237.74 33.158 239.252 34.838 241.7 34.838C243.596 34.838 244.748 33.878 245.3 32.99C245.3 33.926 245.396 34.406 245.42 34.478H248.012C247.988 34.358 247.868 33.662 247.868 32.606V26.798C247.868 24.47 246.5 22.43 242.9 22.43C240.02 22.43 238.196 24.23 237.98 26.246L240.524 26.822C240.644 25.646 241.46 24.71 242.924 24.71C244.46 24.71 245.132 25.502 245.132 26.486C245.132 26.894 244.94 27.23 244.268 27.326L241.268 27.782C239.276 28.07 237.74 29.222 237.74 31.31ZM242.228 32.654C241.124 32.654 240.524 31.934 240.524 31.142C240.524 30.182 241.22 29.702 242.084 29.558L245.132 29.102V29.63C245.132 31.91 243.788 32.654 242.228 32.654ZM262.178 22.79H258.482L253.994 27.518V17.102H251.234V34.478H253.994V31.214L255.434 29.702L258.866 34.478H262.274L257.378 27.734L262.178 22.79ZM265.67 27.35C265.766 26.102 266.774 24.758 268.526 24.758C270.446 24.758 271.358 25.982 271.406 27.35H265.67ZM271.718 30.398C271.334 31.55 270.47 32.438 268.79 32.438C267.062 32.438 265.67 31.166 265.598 29.39H274.142C274.166 29.342 274.214 28.958 274.214 28.502C274.214 24.806 272.102 22.43 268.502 22.43C265.55 22.43 262.814 24.878 262.814 28.574C262.814 32.534 265.622 34.838 268.79 34.838C271.598 34.838 273.446 33.182 274.07 31.142L271.718 30.398ZM285.947 25.286V20.006H288.947C290.771 20.006 291.875 21.038 291.875 22.67C291.875 24.278 290.771 25.286 288.947 25.286H285.947ZM289.379 27.83C292.643 27.83 294.803 25.646 294.803 22.646C294.803 19.67 292.643 17.462 289.379 17.462H283.067V34.478H285.947V27.83H289.379ZM295.982 31.31C295.982 33.158 297.494 34.838 299.942 34.838C301.838 34.838 302.99 33.878 303.542 32.99C303.542 33.926 303.638 34.406 303.662 34.478H306.254C306.23 34.358 306.11 33.662 306.11 32.606V26.798C306.11 24.47 304.742 22.43 301.142 22.43C298.262 22.43 296.438 24.23 296.222 26.246L298.766 26.822C298.886 25.646 299.702 24.71 301.166 24.71C302.702 24.71 303.374 25.502 303.374 26.486C303.374 26.894 303.182 27.23 302.51 27.326L299.51 27.782C297.518 28.07 295.982 29.222 295.982 31.31ZM300.47 32.654C299.366 32.654 298.766 31.934 298.766 31.142C298.766 30.182 299.462 29.702 300.326 29.558L303.374 29.102V29.63C303.374 31.91 302.03 32.654 300.47 32.654ZM312.747 39.206L320.187 22.79H317.235L314.091 30.182L310.731 22.79H307.587L312.579 33.086L309.771 39.206H312.747ZM324.986 34.478V27.542C324.986 26.054 325.922 24.95 327.41 24.95C328.994 24.95 329.666 26.006 329.666 27.35V34.478H332.402V27.542C332.402 26.102 333.362 24.95 334.826 24.95C336.386 24.95 337.082 25.982 337.082 27.35V34.478H339.77V26.894C339.77 23.798 337.754 22.454 335.642 22.454C334.13 22.454 332.762 22.982 331.85 24.518C331.226 23.15 329.882 22.454 328.346 22.454C327.026 22.454 325.562 23.078 324.89 24.278V22.79H322.226V34.478H324.986ZM345.123 27.35C345.219 26.102 346.227 24.758 347.979 24.758C349.899 24.758 350.811 25.982 350.859 27.35H345.123ZM351.171 30.398C350.787 31.55 349.923 32.438 348.243 32.438C346.515 32.438 345.123 31.166 345.051 29.39H353.595C353.619 29.342 353.667 28.958 353.667 28.502C353.667 24.806 351.555 22.43 347.955 22.43C345.003 22.43 342.267 24.878 342.267 28.574C342.267 32.534 345.075 34.838 348.243 34.838C351.051 34.838 352.899 33.182 353.523 31.142L351.171 30.398ZM359.111 27.734C359.111 26.198 359.951 24.974 361.535 24.974C363.287 24.974 363.935 26.126 363.935 27.566V34.478H366.719V27.086C366.719 24.518 365.351 22.454 362.495 22.454C361.199 22.454 359.807 23.006 359.039 24.35V22.79H356.327V34.478H359.111V27.734ZM373.637 19.214H371.117V20.966C371.117 21.998 370.565 22.79 369.317 22.79H368.717V25.262H370.877V31.142C370.877 33.326 372.221 34.622 374.381 34.622C375.389 34.622 375.917 34.43 376.085 34.358V32.054C375.965 32.078 375.509 32.15 375.125 32.15C374.093 32.15 373.637 31.718 373.637 30.686V25.262H376.061V22.79H373.637V19.214Z" fill="#333333"/>
<path d="M153.94 57.3636V69H155.259V60.1591H155.372L159.009 69H160.281L163.918 60.1591H164.031V69H165.349V57.3636H163.668L159.713 67.0227H159.577L155.622 57.3636H153.94ZM170.92 69.2045C172.443 69.2045 173.239 68.3864 173.511 67.8182H173.58V69H174.92V63.25C174.92 60.4773 172.807 60.1591 171.693 60.1591C170.375 60.1591 168.875 60.6136 168.193 62.2045L169.466 62.6591C169.761 62.0227 170.46 61.3409 171.739 61.3409C172.972 61.3409 173.58 61.9943 173.58 63.1136V63.1591C173.58 63.8068 172.92 63.75 171.33 63.9545C169.71 64.1648 167.943 64.5227 167.943 66.5227C167.943 68.2273 169.261 69.2045 170.92 69.2045ZM171.125 68C170.057 68 169.284 67.5227 169.284 66.5909C169.284 65.5682 170.216 65.25 171.261 65.1136C171.83 65.0455 173.352 64.8864 173.58 64.6136V65.8409C173.58 66.9318 172.716 68 171.125 68ZM177.368 69H178.709V65.733L179.646 64.8636L182.913 69H184.618L180.658 64L184.345 60.2727H182.686L178.868 64.1591H178.709V57.3636H177.368V69ZM189.371 69.1818C191.143 69.1818 192.439 68.2955 192.848 66.9773L191.553 66.6136C191.212 67.5227 190.422 67.9773 189.371 67.9773C187.797 67.9773 186.712 66.9602 186.649 65.0909H192.984V64.5227C192.984 61.2727 191.053 60.1591 189.234 60.1591C186.871 60.1591 185.303 62.0227 185.303 64.7045C185.303 67.3864 186.848 69.1818 189.371 69.1818ZM186.649 63.9318C186.74 62.5739 187.7 61.3636 189.234 61.3636C190.689 61.3636 191.621 62.4545 191.621 63.9318H186.649ZM199.524 72.2727H200.865V67.6591H200.979C201.274 68.1364 201.842 69.1818 203.524 69.1818C205.706 69.1818 207.229 67.4318 207.229 64.6591C207.229 61.9091 205.706 60.1591 203.501 60.1591C201.797 60.1591 201.274 61.2045 200.979 61.6591H200.82V60.2727H199.524V72.2727ZM200.842 64.6364C200.842 62.6818 201.706 61.3636 203.342 61.3636C205.047 61.3636 205.888 62.7955 205.888 64.6364C205.888 66.5 205.024 67.9773 203.342 67.9773C201.729 67.9773 200.842 66.6136 200.842 64.6364ZM211.842 69.2045C213.365 69.2045 214.161 68.3864 214.433 67.8182H214.501V69H215.842V63.25C215.842 60.4773 213.729 60.1591 212.615 60.1591C211.297 60.1591 209.797 60.6136 209.115 62.2045L210.388 62.6591C210.683 62.0227 211.382 61.3409 212.661 61.3409C213.893 61.3409 214.501 61.9943 214.501 63.1136V63.1591C214.501 63.8068 213.842 63.75 212.251 63.9545C210.632 64.1648 208.865 64.5227 208.865 66.5227C208.865 68.2273 210.183 69.2045 211.842 69.2045ZM212.047 68C210.979 68 210.206 67.5227 210.206 66.5909C210.206 65.5682 211.138 65.25 212.183 65.1136C212.751 65.0455 214.274 64.8864 214.501 64.6136V65.8409C214.501 66.9318 213.638 68 212.047 68ZM218.795 72.3864C220.023 72.3864 220.864 71.75 221.364 70.4091L225.114 60.2727H223.659L221.25 67.2273H221.159L218.75 60.2727H217.295L220.523 69.0455L220.227 69.8636C219.756 71.1705 219.136 71.2955 218.159 71.0455L217.818 72.2273C217.955 72.2955 218.341 72.3864 218.795 72.3864ZM226.884 69H228.224V63.5455C228.224 62.267 229.156 61.3636 230.202 61.3636C231.219 61.3636 231.929 62.0284 231.929 63.0227V69H233.293V63.3182C233.293 62.1932 233.997 61.3636 235.224 61.3636C236.179 61.3636 236.997 61.8693 236.997 63.1591V69H238.338V63.1591C238.338 61.108 237.236 60.1591 235.679 60.1591C234.429 60.1591 233.514 60.733 233.065 61.6364H232.974C232.543 60.7045 231.781 60.1591 230.634 60.1591C229.497 60.1591 228.656 60.7045 228.293 61.6364H228.179V60.2727H226.884V69ZM244.449 69.1818C246.222 69.1818 247.517 68.2955 247.926 66.9773L246.631 66.6136C246.29 67.5227 245.5 67.9773 244.449 67.9773C242.875 67.9773 241.79 66.9602 241.727 65.0909H248.062V64.5227C248.062 61.2727 246.131 60.1591 244.312 60.1591C241.949 60.1591 240.381 62.0227 240.381 64.7045C240.381 67.3864 241.926 69.1818 244.449 69.1818ZM241.727 63.9318C241.818 62.5739 242.778 61.3636 244.312 61.3636C245.767 61.3636 246.699 62.4545 246.699 63.9318H241.727ZM251.443 63.75C251.443 62.2273 252.386 61.3636 253.67 61.3636C254.915 61.3636 255.67 62.1761 255.67 63.5455V69H257.011V63.4545C257.011 61.2273 255.824 60.1591 254.057 60.1591C252.739 60.1591 251.92 60.75 251.511 61.6364H251.398V60.2727H250.102V69H251.443V63.75ZM263.257 60.2727H261.393V58.1818H260.053V60.2727H258.734V61.4091H260.053V66.8636C260.053 68.3864 261.28 69.1136 262.416 69.1136C262.916 69.1136 263.234 69.0227 263.416 68.9545L263.143 67.75C263.03 67.7727 262.848 67.8182 262.553 67.8182C261.962 67.8182 261.393 67.6364 261.393 66.5V61.4091H263.257V60.2727ZM273.661 60.2727H271.706V59.3864C271.706 58.5227 272.07 58.0682 272.956 58.0682C273.342 58.0682 273.57 58.1591 273.706 58.2045L274.092 57.0455C273.888 56.9545 273.479 56.8182 272.82 56.8182C271.57 56.8182 270.365 57.5682 270.365 59.0682V60.2727H268.956V61.4091H270.365V69H271.706V61.4091H273.661V60.2727ZM278.726 69.1818C281.089 69.1818 282.68 67.3864 282.68 64.6818C282.68 61.9545 281.089 60.1591 278.726 60.1591C276.362 60.1591 274.771 61.9545 274.771 64.6818C274.771 67.3864 276.362 69.1818 278.726 69.1818ZM278.726 67.9773C276.93 67.9773 276.112 66.4318 276.112 64.6818C276.112 62.9318 276.93 61.3636 278.726 61.3636C280.521 61.3636 281.339 62.9318 281.339 64.6818C281.339 66.4318 280.521 67.9773 278.726 67.9773ZM284.727 69H286.068V63.4773C286.068 62.3011 287 61.4318 288.273 61.4318C288.608 61.4318 288.858 61.4943 289.045 61.5909L289.5 60.4545C289.227 60.2614 288.869 60.1364 288.386 60.1364C287.33 60.1364 286.426 60.7273 286.114 61.5909H286.023V60.2727H284.727V69ZM299.163 60.2727H297.3V58.1818H295.959V60.2727H294.641V61.4091H295.959V66.8636C295.959 68.3864 297.186 69.1136 298.322 69.1136C298.822 69.1136 299.141 69.0227 299.322 68.9545L299.05 67.75C298.936 67.7727 298.754 67.8182 298.459 67.8182C297.868 67.8182 297.3 67.6364 297.3 66.5V61.4091H299.163V60.2727ZM302.709 63.75C302.709 62.2273 303.68 61.3636 305.004 61.3636C306.266 61.3636 307.027 62.1591 307.027 63.5455V69H308.368V63.4545C308.368 61.2102 307.175 60.1591 305.391 60.1591C304.016 60.1591 303.232 60.733 302.822 61.6364H302.709V57.3636H301.368V69H302.709V63.75ZM314.48 69.1818C316.253 69.1818 317.548 68.2955 317.957 66.9773L316.662 66.6136C316.321 67.5227 315.531 67.9773 314.48 67.9773C312.906 67.9773 311.821 66.9602 311.759 65.0909H318.094V64.5227C318.094 61.2727 316.162 60.1591 314.344 60.1591C311.98 60.1591 310.412 62.0227 310.412 64.7045C310.412 67.3864 311.957 69.1818 314.48 69.1818ZM311.759 63.9318C311.849 62.5739 312.81 61.3636 314.344 61.3636C315.798 61.3636 316.73 62.4545 316.73 63.9318H311.759ZM324.634 69H325.974V63.5455C325.974 62.267 326.906 61.3636 327.952 61.3636C328.969 61.3636 329.679 62.0284 329.679 63.0227V69H331.043V63.3182C331.043 62.1932 331.747 61.3636 332.974 61.3636C333.929 61.3636 334.747 61.8693 334.747 63.1591V69H336.088V63.1591C336.088 61.108 334.986 60.1591 333.429 60.1591C332.179 60.1591 331.264 60.733 330.815 61.6364H330.724C330.293 60.7045 329.531 60.1591 328.384 60.1591C327.247 60.1591 326.406 60.7045 326.043 61.6364H325.929V60.2727H324.634V69ZM342.199 69.1818C343.972 69.1818 345.267 68.2955 345.676 66.9773L344.381 66.6136C344.04 67.5227 343.25 67.9773 342.199 67.9773C340.625 67.9773 339.54 66.9602 339.477 65.0909H345.812V64.5227C345.812 61.2727 343.881 60.1591 342.062 60.1591C339.699 60.1591 338.131 62.0227 338.131 64.7045C338.131 67.3864 339.676 69.1818 342.199 69.1818ZM339.477 63.9318C339.568 62.5739 340.528 61.3636 342.062 61.3636C343.517 61.3636 344.449 62.4545 344.449 63.9318H339.477ZM349.193 63.75C349.193 62.2273 350.136 61.3636 351.42 61.3636C352.665 61.3636 353.42 62.1761 353.42 63.5455V69H354.761V63.4545C354.761 61.2273 353.574 60.1591 351.807 60.1591C350.489 60.1591 349.67 60.75 349.261 61.6364H349.148V60.2727H347.852V69H349.193V63.75ZM361.007 60.2727H359.143V58.1818H357.803V60.2727H356.484V61.4091H357.803V66.8636C357.803 68.3864 359.03 69.1136 360.166 69.1136C360.666 69.1136 360.984 69.0227 361.166 68.9545L360.893 67.75C360.78 67.7727 360.598 67.8182 360.303 67.8182C359.712 67.8182 359.143 67.6364 359.143 66.5V61.4091H361.007V60.2727ZM366.476 69.1818C368.839 69.1818 370.43 67.3864 370.43 64.6818C370.43 61.9545 368.839 60.1591 366.476 60.1591C364.112 60.1591 362.521 61.9545 362.521 64.6818C362.521 67.3864 364.112 69.1818 366.476 69.1818ZM366.476 67.9773C364.68 67.9773 363.862 66.4318 363.862 64.6818C363.862 62.9318 364.68 61.3636 366.476 61.3636C368.271 61.3636 369.089 62.9318 369.089 64.6818C369.089 66.4318 368.271 67.9773 366.476 67.9773ZM372.477 69H373.818V63.4773C373.818 62.3011 374.75 61.4318 376.023 61.4318C376.358 61.4318 376.608 61.4943 376.795 61.5909L377.25 60.4545C376.977 60.2614 376.619 60.1364 376.136 60.1364C375.08 60.1364 374.176 60.7273 373.864 61.5909H373.773V60.2727H372.477V69ZM385.686 69.2045C387.209 69.2045 388.004 68.3864 388.277 67.8182H388.345V69H389.686V63.25C389.686 60.4773 387.572 60.1591 386.459 60.1591C385.141 60.1591 383.641 60.6136 382.959 62.2045L384.232 62.6591C384.527 62.0227 385.226 61.3409 386.504 61.3409C387.737 61.3409 388.345 61.9943 388.345 63.1136V63.1591C388.345 63.8068 387.686 63.75 386.095 63.9545C384.476 64.1648 382.709 64.5227 382.709 66.5227C382.709 68.2273 384.027 69.2045 385.686 69.2045ZM385.891 68C384.822 68 384.05 67.5227 384.05 66.5909C384.05 65.5682 384.982 65.25 386.027 65.1136C386.595 65.0455 388.118 64.8864 388.345 64.6136V65.8409C388.345 66.9318 387.482 68 385.891 68ZM393.474 63.75C393.474 62.2273 394.418 61.3636 395.702 61.3636C396.946 61.3636 397.702 62.1761 397.702 63.5455V69H399.043V63.4545C399.043 61.2273 397.855 60.1591 396.088 60.1591C394.77 60.1591 393.952 60.75 393.543 61.6364H393.429V60.2727H392.134V69H393.474V63.75ZM404.788 69.1818C406.47 69.1818 407.038 68.1364 407.334 67.6591H407.493V69H408.788V57.3636H407.447V61.6591H407.334C407.038 61.2045 406.516 60.1591 404.811 60.1591C402.607 60.1591 401.084 61.9091 401.084 64.6591C401.084 67.4318 402.607 69.1818 404.788 69.1818ZM404.97 67.9773C403.288 67.9773 402.425 66.5 402.425 64.6364C402.425 62.7955 403.266 61.3636 404.97 61.3636C406.607 61.3636 407.47 62.6818 407.47 64.6364C407.47 66.6136 406.584 67.9773 404.97 67.9773ZM419.726 60.2727H417.862V58.1818H416.521V60.2727H415.203V61.4091H416.521V66.8636C416.521 68.3864 417.749 69.1136 418.885 69.1136C419.385 69.1136 419.703 69.0227 419.885 68.9545L419.612 67.75C419.499 67.7727 419.317 67.8182 419.021 67.8182C418.43 67.8182 417.862 67.6364 417.862 66.5V61.4091H419.726V60.2727ZM423.271 63.75C423.271 62.2273 424.243 61.3636 425.567 61.3636C426.828 61.3636 427.589 62.1591 427.589 63.5455V69H428.93V63.4545C428.93 61.2102 427.737 60.1591 425.953 60.1591C424.578 60.1591 423.794 60.733 423.385 61.6364H423.271V57.3636H421.93V69H423.271V63.75ZM435.043 69.1818C436.815 69.1818 438.111 68.2955 438.52 66.9773L437.224 66.6136C436.884 67.5227 436.094 67.9773 435.043 67.9773C433.469 67.9773 432.384 66.9602 432.321 65.0909H438.656V64.5227C438.656 61.2727 436.724 60.1591 434.906 60.1591C432.543 60.1591 430.974 62.0227 430.974 64.7045C430.974 67.3864 432.52 69.1818 435.043 69.1818ZM432.321 63.9318C432.412 62.5739 433.372 61.3636 434.906 61.3636C436.361 61.3636 437.293 62.4545 437.293 63.9318H432.321ZM200.69 81.2273C200.27 79.9886 199.327 79.1591 197.599 79.1591C195.759 79.1591 194.395 80.2045 194.395 81.6818C194.395 82.8864 195.111 83.6932 196.713 84.0682L198.168 84.4091C199.048 84.6136 199.463 85.0341 199.463 85.6364C199.463 86.3864 198.668 87 197.418 87C196.321 87 195.634 86.5284 195.395 85.5909L194.122 85.9091C194.435 87.392 195.656 88.1818 197.44 88.1818C199.469 88.1818 200.849 87.0739 200.849 85.5682C200.849 84.3523 200.088 83.5852 198.531 83.2045L197.236 82.8864C196.202 82.6307 195.736 82.2841 195.736 81.6136C195.736 80.8636 196.531 80.3182 197.599 80.3182C198.77 80.3182 199.253 80.9659 199.486 81.5682L200.69 81.2273ZM206.527 88.1818C208.3 88.1818 209.595 87.2955 210.004 85.9773L208.709 85.6136C208.368 86.5227 207.578 86.9773 206.527 86.9773C204.953 86.9773 203.868 85.9602 203.805 84.0909H210.141V83.5227C210.141 80.2727 208.209 79.1591 206.391 79.1591C204.027 79.1591 202.459 81.0227 202.459 83.7045C202.459 86.3864 204.004 88.1818 206.527 88.1818ZM203.805 82.9318C203.896 81.5739 204.857 80.3636 206.391 80.3636C207.845 80.3636 208.777 81.4545 208.777 82.9318H203.805ZM212.18 88H213.521V82.4773C213.521 81.2955 214.453 80.4318 215.726 80.4318C216.084 80.4318 216.453 80.5 216.544 80.5227V79.1591C216.391 79.1477 216.038 79.1364 215.839 79.1364C214.794 79.1364 213.885 79.7273 213.567 80.5909H213.476V79.2727H212.18V88ZM225.536 79.2727H224.081L221.672 86.2273H221.581L219.172 79.2727H217.717L220.945 88H222.308L225.536 79.2727ZM227.852 88H229.193V79.2727H227.852V88ZM228.534 77.8182C229.057 77.8182 229.489 77.4091 229.489 76.9091C229.489 76.4091 229.057 76 228.534 76C228.011 76 227.58 76.4091 227.58 76.9091C227.58 77.4091 228.011 77.8182 228.534 77.8182ZM235.195 88.1818C237.126 88.1818 238.399 87 238.626 85.4545H237.286C237.036 86.4091 236.24 86.9773 235.195 86.9773C233.604 86.9773 232.581 85.6591 232.581 83.6364C232.581 81.6591 233.626 80.3636 235.195 80.3636C236.376 80.3636 237.081 81.0909 237.286 81.8864H238.626C238.399 80.25 237.013 79.1591 235.172 79.1591C232.808 79.1591 231.24 81.0227 231.24 83.6818C231.24 86.2955 232.74 88.1818 235.195 88.1818ZM244.246 88.1818C246.018 88.1818 247.314 87.2955 247.723 85.9773L246.428 85.6136C246.087 86.5227 245.297 86.9773 244.246 86.9773C242.672 86.9773 241.587 85.9602 241.524 84.0909H247.859V83.5227C247.859 80.2727 245.928 79.1591 244.109 79.1591C241.746 79.1591 240.178 81.0227 240.178 83.7045C240.178 86.3864 241.723 88.1818 244.246 88.1818ZM241.524 82.9318C241.615 81.5739 242.575 80.3636 244.109 80.3636C245.564 80.3636 246.496 81.4545 246.496 82.9318H241.524ZM256.081 81.2273C255.661 79.9886 254.717 79.1591 252.99 79.1591C251.149 79.1591 249.786 80.2045 249.786 81.6818C249.786 82.8864 250.501 83.6932 252.104 84.0682L253.558 84.4091C254.439 84.6136 254.854 85.0341 254.854 85.6364C254.854 86.3864 254.058 87 252.808 87C251.712 87 251.024 86.5284 250.786 85.5909L249.513 85.9091C249.825 87.392 251.047 88.1818 252.831 88.1818C254.859 88.1818 256.24 87.0739 256.24 85.5682C256.24 84.3523 255.479 83.5852 253.922 83.2045L252.626 82.8864C251.592 82.6307 251.126 82.2841 251.126 81.6136C251.126 80.8636 251.922 80.3182 252.99 80.3182C254.161 80.3182 254.643 80.9659 254.876 81.5682L256.081 81.2273ZM263.577 91.3864C264.804 91.3864 265.645 90.75 266.145 89.4091L269.895 79.2727H268.44L266.031 86.2273H265.94L263.531 79.2727H262.077L265.304 88.0455L265.009 88.8636C264.537 90.1705 263.918 90.2955 262.94 90.0455L262.599 91.2273C262.736 91.2955 263.122 91.3864 263.577 91.3864ZM274.898 88.1818C277.261 88.1818 278.852 86.3864 278.852 83.6818C278.852 80.9545 277.261 79.1591 274.898 79.1591C272.534 79.1591 270.943 80.9545 270.943 83.6818C270.943 86.3864 272.534 88.1818 274.898 88.1818ZM274.898 86.9773C273.102 86.9773 272.284 85.4318 272.284 83.6818C272.284 81.9318 273.102 80.3636 274.898 80.3636C276.693 80.3636 277.511 81.9318 277.511 83.6818C277.511 85.4318 276.693 86.9773 274.898 86.9773ZM286.399 84.4318C286.399 86.0682 285.149 86.8182 284.149 86.8182C283.036 86.8182 282.24 86 282.24 84.7273V79.2727H280.899V84.8182C280.899 87.0455 282.081 88.1136 283.717 88.1136C285.036 88.1136 285.899 87.4091 286.308 86.5227H286.399V88H287.74V79.2727H286.399V84.4318ZM296.037 82.75C296.037 81.2273 297.009 80.3636 298.332 80.3636C299.594 80.3636 300.355 81.1591 300.355 82.5455V88H301.696V82.4545C301.696 80.2102 300.503 79.1591 298.719 79.1591C297.344 79.1591 296.56 79.733 296.151 80.6364H296.037V76.3636H294.696V88H296.037V82.75ZM306.717 88.2045C308.24 88.2045 309.036 87.3864 309.308 86.8182H309.376V88H310.717V82.25C310.717 79.4773 308.604 79.1591 307.49 79.1591C306.172 79.1591 304.672 79.6136 303.99 81.2045L305.263 81.6591C305.558 81.0227 306.257 80.3409 307.536 80.3409C308.768 80.3409 309.376 80.9943 309.376 82.1136V82.1591C309.376 82.8068 308.717 82.75 307.126 82.9545C305.507 83.1648 303.74 83.5227 303.74 85.5227C303.74 87.2273 305.058 88.2045 306.717 88.2045ZM306.922 87C305.854 87 305.081 86.5227 305.081 85.5909C305.081 84.5682 306.013 84.25 307.058 84.1136C307.626 84.0455 309.149 83.8864 309.376 83.6136V84.8409C309.376 85.9318 308.513 87 306.922 87ZM319.989 79.2727H318.534L316.125 86.2273H316.034L313.625 79.2727H312.17L315.398 88H316.761L319.989 79.2727ZM325.105 88.1818C326.878 88.1818 328.173 87.2955 328.582 85.9773L327.287 85.6136C326.946 86.5227 326.156 86.9773 325.105 86.9773C323.531 86.9773 322.446 85.9602 322.384 84.0909H328.719V83.5227C328.719 80.2727 326.787 79.1591 324.969 79.1591C322.605 79.1591 321.037 81.0227 321.037 83.7045C321.037 86.3864 322.582 88.1818 325.105 88.1818ZM322.384 82.9318C322.474 81.5739 323.435 80.3636 324.969 80.3636C326.423 80.3636 327.355 81.4545 327.355 82.9318H322.384ZM341.44 81.2273C341.02 79.9886 340.077 79.1591 338.349 79.1591C336.509 79.1591 335.145 80.2045 335.145 81.6818C335.145 82.8864 335.861 83.6932 337.463 84.0682L338.918 84.4091C339.798 84.6136 340.213 85.0341 340.213 85.6364C340.213 86.3864 339.418 87 338.168 87C337.071 87 336.384 86.5284 336.145 85.5909L334.872 85.9091C335.185 87.392 336.406 88.1818 338.19 88.1818C340.219 88.1818 341.599 87.0739 341.599 85.5682C341.599 84.3523 340.838 83.5852 339.281 83.2045L337.986 82.8864C336.952 82.6307 336.486 82.2841 336.486 81.6136C336.486 80.8636 337.281 80.3182 338.349 80.3182C339.52 80.3182 340.003 80.9659 340.236 81.5682L341.44 81.2273ZM347.277 88.1818C349.05 88.1818 350.345 87.2955 350.754 85.9773L349.459 85.6136C349.118 86.5227 348.328 86.9773 347.277 86.9773C345.703 86.9773 344.618 85.9602 344.555 84.0909H350.891V83.5227C350.891 80.2727 348.959 79.1591 347.141 79.1591C344.777 79.1591 343.209 81.0227 343.209 83.7045C343.209 86.3864 344.754 88.1818 347.277 88.1818ZM344.555 82.9318C344.646 81.5739 345.607 80.3636 347.141 80.3636C348.595 80.3636 349.527 81.4545 349.527 82.9318H344.555ZM354.271 76.3636H352.93V88H354.271V76.3636ZM360.386 88.1818C362.159 88.1818 363.455 87.2955 363.864 85.9773L362.568 85.6136C362.227 86.5227 361.438 86.9773 360.386 86.9773C358.812 86.9773 357.727 85.9602 357.665 84.0909H364V83.5227C364 80.2727 362.068 79.1591 360.25 79.1591C357.886 79.1591 356.318 81.0227 356.318 83.7045C356.318 86.3864 357.864 88.1818 360.386 88.1818ZM357.665 82.9318C357.756 81.5739 358.716 80.3636 360.25 80.3636C361.705 80.3636 362.636 81.4545 362.636 82.9318H357.665ZM369.585 88.1818C371.517 88.1818 372.79 87 373.017 85.4545H371.676C371.426 86.4091 370.631 86.9773 369.585 86.9773C367.994 86.9773 366.972 85.6591 366.972 83.6364C366.972 81.6591 368.017 80.3636 369.585 80.3636C370.767 80.3636 371.472 81.0909 371.676 81.8864H373.017C372.79 80.25 371.403 79.1591 369.562 79.1591C367.199 79.1591 365.631 81.0227 365.631 83.6818C365.631 86.2955 367.131 88.1818 369.585 88.1818ZM378.773 79.2727H376.909V77.1818H375.568V79.2727H374.25V80.4091H375.568V85.8636C375.568 87.3864 376.795 88.1136 377.932 88.1136C378.432 88.1136 378.75 88.0227 378.932 87.9545L378.659 86.75C378.545 86.7727 378.364 86.8182 378.068 86.8182C377.477 86.8182 376.909 86.6364 376.909 85.5V80.4091H378.773V79.2727ZM384.355 88.1818C386.128 88.1818 387.423 87.2955 387.832 85.9773L386.537 85.6136C386.196 86.5227 385.406 86.9773 384.355 86.9773C382.781 86.9773 381.696 85.9602 381.634 84.0909H387.969V83.5227C387.969 80.2727 386.037 79.1591 384.219 79.1591C381.855 79.1591 380.287 81.0227 380.287 83.7045C380.287 86.3864 381.832 88.1818 384.355 88.1818ZM381.634 82.9318C381.724 81.5739 382.685 80.3636 384.219 80.3636C385.673 80.3636 386.605 81.4545 386.605 82.9318H381.634ZM393.304 88.1818C394.986 88.1818 395.554 87.1364 395.849 86.6591H396.009V88H397.304V76.3636H395.963V80.6591H395.849C395.554 80.2045 395.031 79.1591 393.327 79.1591C391.122 79.1591 389.599 80.9091 389.599 83.6591C389.599 86.4318 391.122 88.1818 393.304 88.1818ZM393.486 86.9773C391.804 86.9773 390.94 85.5 390.94 83.6364C390.94 81.7955 391.781 80.3636 393.486 80.3636C395.122 80.3636 395.986 81.6818 395.986 83.6364C395.986 85.6136 395.099 86.9773 393.486 86.9773Z" fill="#504F4F"/>
<g clip-path="url(#clip0)">
<path d="M544 157H67V475H544V157Z" fill="white"/>
<path opacity="0.2" d="M127.043 438.443C127.043 438.443 85.3916 389.903 132.316 337.077C170.132 294.465 158.061 278.025 156.312 249.309C154.836 225.008 182.388 189.067 223.645 187.274C291.252 184.335 308.062 206.061 343.957 204.522C379.853 202.983 396.084 190.403 437.774 195.364C515.143 204.554 504.687 277.878 493.436 332.682C482.186 387.486 516.04 406.204 491.662 438.481" fill="#B5D0FF"/>
<path d="M129.982 424.003C129.982 424.003 99.1994 382.415 108.886 373.537C118.572 364.658 132.634 395.937 129.982 424.003Z" fill="#617FF1"/>
<path d="M112.038 379.343C117.541 387.785 121.949 396.891 125.159 406.443C126.558 410.598 127.751 414.808 128.739 419.074C129.662 423.081 130.266 427.138 131.099 431.158C131.111 431.203 131.139 431.242 131.177 431.268C131.216 431.293 131.263 431.304 131.309 431.298C131.355 431.292 131.397 431.269 131.428 431.234C131.458 431.199 131.475 431.153 131.474 431.107C130.838 422.642 128.485 414.018 125.75 406.004C122.601 396.45 118.115 387.391 112.426 379.095C112.261 378.866 111.879 379.095 112.038 379.324V379.343Z" fill="#7878C4"/>
<path d="M111.096 384.356C113.697 386.201 116.184 388.306 118.797 390.08C118.963 390.188 119.115 389.953 119.001 389.82C116.831 387.404 114.211 385.436 111.286 384.026C111.242 384 111.19 383.993 111.141 384.007C111.093 384.02 111.051 384.052 111.026 384.095C111 384.139 110.993 384.191 111.007 384.24C111.02 384.289 111.052 384.331 111.096 384.356Z" fill="#7878C4"/>
<path d="M112.121 387.356C114.722 389.201 117.209 391.299 119.823 393.08C119.988 393.195 120.141 392.959 120.026 392.819C117.848 390.403 115.219 388.434 112.286 387.026C112.242 387 112.19 386.993 112.141 387.007C112.093 387.02 112.051 387.052 112.026 387.096C112 387.139 111.993 387.191 112.007 387.24C112.02 387.289 112.052 387.331 112.096 387.356H112.121Z" fill="#7878C4"/>
<path d="M136.54 419.445C136.54 419.445 166.216 377.069 156.326 368.444C146.436 359.82 133.15 391.468 136.54 419.445Z" fill="#617FF1"/>
<path d="M153.024 373.08C147.177 382.118 142.714 391.979 139.783 402.336C137.296 410.865 135.299 420.017 135 428.927C135 429.137 135.343 429.194 135.375 428.978C136.011 424.761 136.456 420.526 137.22 416.328C138.05 411.762 139.111 407.24 140.4 402.781C143.388 392.421 147.765 382.513 153.412 373.328C153.565 373.08 153.183 372.864 153.024 373.105V373.08Z" fill="#7878C4"/>
<path d="M137.088 399.191C136.854 402.725 137.087 406.275 137.782 409.748C137.792 409.787 137.817 409.82 137.85 409.841C137.884 409.863 137.924 409.872 137.963 409.867C138.002 409.861 138.039 409.842 138.065 409.812C138.091 409.782 138.106 409.744 138.106 409.704C138.107 408.053 138.022 406.404 137.852 404.762C137.731 402.911 137.667 401.042 137.47 399.191C137.47 399.14 137.45 399.092 137.414 399.056C137.378 399.02 137.33 399 137.279 399C137.229 399 137.18 399.02 137.144 399.056C137.108 399.092 137.088 399.14 137.088 399.191Z" fill="#0E7C74"/>
<path d="M134.016 404.334C134.016 404.334 104.124 362.098 114.001 353.454C123.878 344.811 137.279 376.344 134.016 404.334Z" fill="#AAB9F4"/>
<path d="M117.035 358.327C127.396 374.92 133.158 393.892 135.123 413.29C135.518 417.182 135.689 421.081 135.982 424.986C135.99 425.031 136.014 425.072 136.049 425.102C136.085 425.131 136.13 425.148 136.176 425.148C136.222 425.148 136.267 425.131 136.302 425.102C136.338 425.072 136.362 425.031 136.37 424.986C136.548 417.487 135.594 409.849 134.322 402.478C132.717 392.866 129.996 383.474 126.213 374.494C123.781 368.775 120.837 363.287 117.417 358.098C117.264 357.862 116.883 358.098 117.035 358.327Z" fill="#7878C4"/>
<path d="M132.234 416.482C132.234 416.482 150.614 391.22 144.738 385.91C138.861 380.599 130.491 399.552 132.234 416.482Z" fill="#AAB9F4"/>
<path d="M143.023 389.069C138.503 395.775 135.238 403.247 133.388 411.12C131.957 416.933 130.78 423.324 131.035 429.341C131.043 429.386 131.067 429.427 131.102 429.457C131.138 429.487 131.183 429.503 131.229 429.503C131.275 429.503 131.32 429.487 131.355 429.457C131.391 429.427 131.414 429.386 131.423 429.341C132.161 423.267 132.593 417.257 134.075 411.31C135.994 403.532 139.146 396.112 143.411 389.33C143.564 389.082 143.182 388.866 143.023 389.101V389.069Z" fill="#7878C4"/>
<path d="M144.282 416L144.136 416.967L143.831 419.021L140.899 438.724H123.384L120.445 419.021L120.14 416.967L120 416H144.282Z" fill="#617FF1"/>
<path d="M143.996 417L143.691 419.054H120.305L120 417H143.996Z" fill="#7878C4"/>
<path d="M144.388 417.875H119.425C119.048 417.87 118.689 417.718 118.423 417.452C118.157 417.186 118.005 416.826 118 416.45C118 416.066 118.153 415.697 118.425 415.425C118.697 415.153 119.065 415 119.45 415H144.413C144.798 415 145.166 415.153 145.438 415.425C145.71 415.697 145.863 416.066 145.863 416.45C145.861 416.641 145.82 416.829 145.745 417.004C145.669 417.179 145.56 417.338 145.422 417.47C145.285 417.602 145.123 417.706 144.945 417.776C144.768 417.845 144.578 417.879 144.388 417.875Z" fill="#AAB9F4"/>
<path d="M113 439H497.068" stroke="#1438C7" stroke-width="2" stroke-linecap="round" stroke-linejoin="round"/>
<path d="M191 374.108C191.364 374.335 191.749 374.524 192.151 374.674C193.012 375.006 193.932 375.157 194.854 375.119C195.347 375.096 195.837 375.026 196.317 374.909C196.739 374.813 197.153 374.688 197.557 374.534C197.96 374.385 198.351 374.206 198.727 374C198.4 374.287 198.039 374.533 197.653 374.731C197.246 374.943 196.82 375.116 196.381 375.247C195.884 375.393 195.371 375.48 194.854 375.507C194.33 375.529 193.806 375.477 193.296 375.355C192.855 375.244 192.428 375.081 192.024 374.871C191.646 374.67 191.301 374.412 191 374.108Z" fill="#EAA18B"/>
<path d="M162 410C162.425 410.291 162.929 410.446 163.444 410.445H165.727" stroke="#9ACEE2" stroke-miterlimit="10" stroke-linecap="round"/>
<path d="M416 275H419.816" stroke="#9ACEE2" stroke-miterlimit="10" stroke-linecap="round"/>
<path d="M473.816 363H470" stroke="#9ACEE2" stroke-miterlimit="10" stroke-linecap="round"/>
<path opacity="0.5" d="M360.735 368H358V375.689H360.735V368Z" fill="#94C1F7"/>
<path d="M171 343.647L173.665 346.961L178.397 342" stroke="white" stroke-width="1.38" stroke-linecap="round" stroke-linejoin="round"/>
<path d="M258.055 412.083C258.146 412.778 258.029 413.484 257.718 414.113C257.408 414.741 256.918 415.263 256.311 415.613C255.704 415.963 255.006 416.125 254.307 416.078C253.608 416.031 252.938 415.779 252.383 415.351C251.827 414.924 251.411 414.341 251.186 413.678C250.962 413.014 250.94 412.298 251.122 411.621C251.304 410.945 251.683 410.337 252.211 409.876C252.739 409.415 253.391 409.12 254.086 409.03C254.547 408.97 255.016 409 255.465 409.121C255.914 409.242 256.335 409.45 256.704 409.733C257.073 410.017 257.382 410.37 257.614 410.774C257.845 411.177 257.995 411.622 258.055 412.083Z" fill="#9999F1"/>
<path d="M253 412.571L254.558 413.735L256.085 411" stroke="white" stroke-width="1.06" stroke-linecap="round" stroke-linejoin="round"/>
<path d="M266.907 225.437C267.127 226.103 267.143 226.82 266.955 227.495C266.767 228.171 266.382 228.776 265.849 229.233C265.317 229.69 264.661 229.978 263.964 230.061C263.268 230.145 262.562 230.02 261.937 229.702C261.311 229.384 260.794 228.887 260.452 228.275C260.109 227.663 259.956 226.963 260.011 226.264C260.067 225.564 260.329 224.897 260.764 224.347C261.199 223.797 261.788 223.388 262.455 223.173C263.346 222.884 264.315 222.96 265.15 223.384C265.984 223.809 266.616 224.547 266.907 225.437Z" fill="#9999F1"/>
<path d="M262 227.118L263.743 227.97L264.728 225" stroke="white" stroke-width="1.06" stroke-linecap="round" stroke-linejoin="round"/>
<path d="M440.607 290.272C440.614 290.532 440.542 290.787 440.403 291.005C440.264 291.224 440.062 291.396 439.825 291.499C439.587 291.603 439.324 291.633 439.069 291.587C438.814 291.54 438.579 291.418 438.393 291.237C438.208 291.056 438.08 290.824 438.027 290.57C437.975 290.317 437.998 290.053 438.096 289.813C438.194 289.573 438.361 289.367 438.576 289.223C438.791 289.078 439.044 289 439.303 289C439.473 288.996 439.642 289.026 439.8 289.088C439.958 289.15 440.102 289.243 440.223 289.362C440.345 289.48 440.442 289.622 440.507 289.778C440.573 289.935 440.607 290.103 440.607 290.272Z" fill="#9999F1"/>
<path opacity="0.3" d="M397.607 201.272C397.614 201.533 397.542 201.789 397.401 202.008C397.26 202.228 397.057 202.4 396.817 202.502C396.578 202.605 396.313 202.633 396.057 202.584C395.801 202.535 395.566 202.41 395.382 202.226C395.198 202.041 395.073 201.806 395.024 201.55C394.974 201.295 395.003 201.03 395.105 200.79C395.208 200.551 395.38 200.348 395.599 200.207C395.818 200.066 396.075 199.994 396.335 200C396.673 200 396.996 200.134 397.235 200.373C397.473 200.611 397.607 200.935 397.607 201.272Z" fill="#9999F1"/>
<path d="M185.159 320.08C185.159 320.491 185.037 320.893 184.809 321.235C184.58 321.577 184.256 321.844 183.876 322.001C183.496 322.159 183.077 322.2 182.674 322.119C182.271 322.039 181.9 321.841 181.609 321.55C181.318 321.259 181.12 320.889 181.04 320.485C180.96 320.082 181.001 319.664 181.158 319.284C181.316 318.904 181.582 318.579 181.924 318.351C182.266 318.122 182.668 318 183.08 318C183.353 317.999 183.624 318.052 183.877 318.157C184.129 318.261 184.359 318.414 184.552 318.607C184.745 318.801 184.899 319.03 185.003 319.283C185.107 319.536 185.16 319.806 185.159 320.08Z" fill="#9999F1"/>
<path opacity="0.3" d="M501.36 340.18C501.36 340.809 501.174 341.424 500.824 341.947C500.475 342.47 499.978 342.877 499.397 343.118C498.816 343.359 498.176 343.422 497.56 343.299C496.943 343.176 496.376 342.873 495.931 342.429C495.487 341.984 495.184 341.417 495.061 340.8C494.938 340.184 495.001 339.544 495.242 338.963C495.483 338.382 495.89 337.885 496.413 337.536C496.936 337.187 497.551 337 498.18 337C499.023 337 499.832 337.335 500.429 337.931C501.025 338.528 501.36 339.337 501.36 340.18Z" fill="#9999F1"/>
<path opacity="0.3" d="M151.36 296.18C151.36 296.809 151.173 297.424 150.824 297.947C150.475 298.47 149.978 298.877 149.397 299.118C148.816 299.359 148.176 299.422 147.56 299.299C146.943 299.176 146.376 298.873 145.931 298.429C145.487 297.984 145.184 297.417 145.061 296.8C144.938 296.184 145.001 295.544 145.242 294.963C145.483 294.382 145.89 293.885 146.413 293.536C146.936 293.187 147.551 293 148.18 293C149.023 293 149.832 293.335 150.429 293.931C151.025 294.528 151.36 295.337 151.36 296.18Z" fill="#9999F1"/>
<path opacity="0.3" d="M475.159 369.073C475.161 369.485 475.04 369.888 474.812 370.231C474.584 370.573 474.26 370.841 473.88 370.999C473.5 371.158 473.082 371.2 472.678 371.12C472.274 371.041 471.903 370.843 471.611 370.553C471.32 370.262 471.121 369.891 471.04 369.488C470.96 369.084 471 368.666 471.158 368.285C471.315 367.905 471.581 367.58 471.924 367.351C472.266 367.122 472.668 367 473.08 367C473.353 366.999 473.623 367.052 473.875 367.156C474.127 367.26 474.357 367.412 474.55 367.605C474.743 367.798 474.896 368.026 475.001 368.278C475.106 368.53 475.159 368.801 475.159 369.073Z" fill="#9999F1"/>
<path opacity="0.3" d="M312.159 208.048C312.166 208.461 312.049 208.867 311.823 209.213C311.598 209.56 311.275 209.831 310.895 209.993C310.515 210.155 310.095 210.2 309.689 210.122C309.283 210.045 308.91 209.848 308.616 209.557C308.322 209.266 308.122 208.895 308.041 208.489C307.959 208.084 308 207.664 308.159 207.283C308.317 206.901 308.586 206.575 308.93 206.347C309.274 206.118 309.679 205.998 310.092 206C310.636 206.003 311.157 206.22 311.543 206.602C311.93 206.985 312.151 207.504 312.159 208.048Z" fill="#9999F1"/>
<path opacity="0.2" d="M351.159 198.073C351.161 198.485 351.04 198.888 350.812 199.231C350.584 199.573 350.26 199.841 349.88 199.999C349.5 200.158 349.082 200.2 348.678 200.12C348.274 200.041 347.903 199.843 347.611 199.553C347.32 199.262 347.121 198.891 347.04 198.488C346.96 198.084 347 197.666 347.158 197.285C347.315 196.905 347.581 196.58 347.924 196.351C348.266 196.122 348.668 196 349.08 196C349.353 195.999 349.623 196.052 349.875 196.156C350.127 196.26 350.357 196.412 350.55 196.605C350.743 196.798 350.896 197.026 351.001 197.278C351.106 197.53 351.159 197.801 351.159 198.073Z" fill="#9999F1"/>
<path d="M145.42 268.759C145.31 268.759 145.204 268.715 145.125 268.638C145.047 268.561 145.002 268.456 145 268.345V265.413C145.002 265.303 145.047 265.198 145.125 265.121C145.204 265.043 145.31 265 145.42 265C145.474 265 145.528 265.011 145.578 265.031C145.628 265.052 145.674 265.083 145.712 265.121C145.75 265.159 145.781 265.205 145.802 265.255C145.822 265.305 145.833 265.359 145.833 265.413V268.345C145.833 268.4 145.822 268.453 145.802 268.504C145.781 268.554 145.75 268.599 145.712 268.638C145.674 268.676 145.628 268.707 145.578 268.727C145.528 268.748 145.474 268.759 145.42 268.759Z" fill="#9999F1"/>
<path d="M412.42 229.759C412.309 229.759 412.204 229.715 412.125 229.638C412.047 229.561 412.002 229.456 412 229.345V226.413C412.002 226.303 412.047 226.198 412.125 226.121C412.204 226.043 412.309 226 412.42 226C412.529 226 412.635 226.044 412.712 226.121C412.79 226.199 412.833 226.304 412.833 226.413V229.345C412.833 229.455 412.79 229.56 412.712 229.638C412.635 229.715 412.529 229.759 412.42 229.759Z" fill="#9999F1"/>
<mask id="mask0" mask-type="alpha" maskUnits="userSpaceOnUse" x="158" y="151" width="324" height="324">
<path d="M158 151H481.961V475H158V151Z" fill="white"/>
</mask>
<g mask="url(#mask0)">
<path fill-rule="evenodd" clip-rule="evenodd" d="M335.011 208.685C335.011 209.595 334.638 210.425 334.029 211.025C333.429 211.629 332.594 212 331.678 212H260.344C258.511 212 257.011 210.508 257.011 208.685C257.011 207.774 257.384 206.945 257.992 206.344C258.592 205.74 259.428 205.37 260.344 205.37H263.715C265.047 202.295 268.122 200.146 271.702 200.146C274.111 200.146 276.289 201.121 277.868 202.692C279.969 199.151 283.845 196.773 288.282 196.773C289.502 196.773 290.676 196.956 291.785 197.289C294.105 192.953 298.693 190 303.981 190C310.332 190 315.675 194.26 317.287 200.058C318.457 199.477 319.777 199.144 321.178 199.144C325.139 199.144 328.479 201.771 329.53 205.37H331.678C333.51 205.37 335.011 206.861 335.011 208.685Z" fill="#E0E6FF"/>
<path fill-rule="evenodd" clip-rule="evenodd" d="M419.011 223.589C419.011 224.251 418.738 224.855 418.294 225.291C417.855 225.731 417.245 226 416.575 226H364.447C363.107 226 362.011 224.916 362.011 223.589C362.011 222.927 362.284 222.324 362.728 221.887C363.167 221.447 363.777 221.178 364.447 221.178H366.91C367.883 218.941 370.131 217.379 372.747 217.379C374.507 217.379 376.099 218.088 377.252 219.231C378.788 216.656 381.62 214.926 384.863 214.926C385.754 214.926 386.612 215.06 387.423 215.301C389.118 212.148 392.471 210 396.336 210C400.977 210 404.881 213.098 406.059 217.315C406.914 216.892 407.878 216.65 408.902 216.65C411.796 216.65 414.238 218.56 415.006 221.178H416.575C417.914 221.178 419.011 222.262 419.011 223.589Z" fill="#E0E6FF"/>
<path fill-rule="evenodd" clip-rule="evenodd" d="M451.511 280.745C452.836 280.745 453.913 279.514 453.913 278C453.913 276.486 452.836 275.255 451.511 275.255C450.186 275.255 449.109 276.486 449.109 278C449.109 279.514 450.186 280.745 451.511 280.745ZM451.511 274C453.441 274 455.011 275.795 455.011 278C455.011 280.205 453.441 282 451.511 282C449.582 282 448.011 280.205 448.011 278C448.011 275.795 449.582 274 451.511 274Z" fill="#4F95C4"/>
<path fill-rule="evenodd" clip-rule="evenodd" d="M434.511 268.902C435.835 268.902 436.913 267.824 436.913 266.5C436.913 265.175 435.835 264.098 434.511 264.098C433.187 264.098 432.109 265.175 432.109 266.5C432.109 267.824 433.187 268.902 434.511 268.902ZM434.511 263C436.441 263 438.011 264.57 438.011 266.5C438.011 268.43 436.441 270 434.511 270C432.581 270 431.011 268.43 431.011 266.5C431.011 264.57 432.581 263 434.511 263Z" fill="#2C64A1"/>
<path fill-rule="evenodd" clip-rule="evenodd" d="M432.511 252C432.787 252 433.011 252.28 433.011 252.624V255.376C433.011 255.72 432.787 256 432.511 256C432.235 256 432.011 255.72 432.011 255.376V252.624C432.011 252.28 432.235 252 432.511 252Z" fill="#4F95C4"/>
<path fill-rule="evenodd" clip-rule="evenodd" d="M432.511 247C432.787 247 433.011 247.28 433.011 247.624V250.376C433.011 250.72 432.787 251 432.511 251C432.235 251 432.011 250.72 432.011 250.376V247.624C432.011 247.28 432.235 247 432.511 247Z" fill="#4F95C4"/>
<path fill-rule="evenodd" clip-rule="evenodd" d="M429.514 251H431.508C431.785 251 432.011 251.224 432.011 251.5C432.011 251.776 431.785 252 431.508 252H429.514C429.236 252 429.011 251.776 429.011 251.5C429.011 251.224 429.236 251 429.514 251Z" fill="#4F95C4"/>
<path fill-rule="evenodd" clip-rule="evenodd" d="M434.514 251H436.507C436.785 251 437.011 251.224 437.011 251.5C437.011 251.776 436.785 252 436.507 252H434.514C434.236 252 434.011 251.776 434.011 251.5C434.011 251.224 434.236 251 434.514 251Z" fill="#4F95C4"/>
<path fill-rule="evenodd" clip-rule="evenodd" d="M453.51 262C453.787 262 454.011 262.28 454.011 262.624V265.376C454.011 265.721 453.787 266 453.51 266C453.234 266 453.011 265.721 453.011 265.376V262.624C453.011 262.28 453.234 262 453.51 262Z" fill="#4F95C4"/>
<path fill-rule="evenodd" clip-rule="evenodd" d="M453.51 257C453.787 257 454.011 257.28 454.011 257.624V260.376C454.011 260.72 453.787 261 453.51 261C453.234 261 453.011 260.72 453.011 260.376V257.624C453.011 257.28 453.234 257 453.51 257Z" fill="#4F95C4"/>
<path fill-rule="evenodd" clip-rule="evenodd" d="M449.681 261H452.34C452.711 261 453.011 261.223 453.011 261.5C453.011 261.776 452.711 262 452.34 262H449.681C449.311 262 449.011 261.776 449.011 261.5C449.011 261.223 449.311 261 449.681 261Z" fill="#4F95C4"/>
<path fill-rule="evenodd" clip-rule="evenodd" d="M454.682 261H457.34C457.711 261 458.011 261.223 458.011 261.5C458.011 261.776 457.711 262 457.34 262H454.682C454.311 262 454.011 261.776 454.011 261.5C454.011 261.223 454.311 261 454.682 261Z" fill="#4F95C4"/>
<path fill-rule="evenodd" clip-rule="evenodd" d="M235.011 230.902C236.524 230.902 237.755 229.824 237.755 228.5C237.755 227.175 236.524 226.098 235.011 226.098C233.497 226.098 232.265 227.175 232.265 228.5C232.265 229.824 233.497 230.902 235.011 230.902ZM235.011 232C232.805 232 231.011 230.43 231.011 228.5C231.011 226.57 232.805 225 235.011 225C237.216 225 239.011 226.57 239.011 228.5C239.011 230.43 237.216 232 235.011 232Z" fill="#2C64A1"/>
<path fill-rule="evenodd" clip-rule="evenodd" d="M247.011 217.5C247.011 217.224 246.731 217 246.387 217H243.635C243.29 217 243.011 217.224 243.011 217.5C243.011 217.777 243.29 218 243.635 218H246.387C246.731 218 247.011 217.777 247.011 217.5Z" fill="#4F95C4"/>
<path fill-rule="evenodd" clip-rule="evenodd" d="M252.011 217.5C252.011 217.224 251.731 217 251.386 217H248.635C248.29 217 248.011 217.224 248.011 217.5C248.011 217.777 248.29 218 248.635 218H251.386C251.731 218 252.011 217.777 252.011 217.5Z" fill="#4F95C4"/>
<path fill-rule="evenodd" clip-rule="evenodd" d="M248.011 221.329V218.671C248.011 218.301 247.787 218 247.511 218C247.235 218 247.011 218.301 247.011 218.671V221.329C247.011 221.7 247.235 222 247.511 222C247.787 222 248.011 221.7 248.011 221.329Z" fill="#4F95C4"/>
<path fill-rule="evenodd" clip-rule="evenodd" d="M248.011 216.329V213.671C248.011 213.301 247.787 213 247.511 213C247.235 213 247.011 213.301 247.011 213.671V216.329C247.011 216.699 247.235 217 247.511 217C247.787 217 248.011 216.699 248.011 216.329Z" fill="#4F95C4"/>
<path fill-rule="evenodd" clip-rule="evenodd" d="M214.011 231.5C214.011 231.224 213.802 231 213.543 231H211.479C211.22 231 211.011 231.224 211.011 231.5C211.011 231.776 211.22 232 211.479 232H213.543C213.802 232 214.011 231.776 214.011 231.5Z" fill="#4F95C4"/>
<path fill-rule="evenodd" clip-rule="evenodd" d="M219.011 231.5C219.011 231.224 218.731 231 218.386 231H215.634C215.29 231 215.011 231.224 215.011 231.5C215.011 231.776 215.29 232 215.634 232H218.386C218.731 232 219.011 231.776 219.011 231.5Z" fill="#4F95C4"/>
<path fill-rule="evenodd" clip-rule="evenodd" d="M215.011 235.329V232.671C215.011 232.301 214.787 232 214.51 232C214.235 232 214.011 232.301 214.011 232.671V235.329C214.011 235.7 214.235 236 214.51 236C214.787 236 215.011 235.7 215.011 235.329Z" fill="#4F95C4"/>
<path fill-rule="evenodd" clip-rule="evenodd" d="M215.011 230.329V227.671C215.011 227.301 214.787 227 214.51 227C214.235 227 214.011 227.301 214.011 227.671V230.329C214.011 230.699 214.235 231 214.51 231C214.787 231 215.011 230.699 215.011 230.329Z" fill="#4F95C4"/>
<path fill-rule="evenodd" clip-rule="evenodd" d="M335.717 419C346.79 410.516 357.852 401.006 364.428 393.854C373.02 384.512 377.59 376.433 378.009 369.843C378.037 369.405 377.701 369.029 377.26 369.002C376.818 368.974 376.438 369.306 376.41 369.743C375.678 381.264 361.024 398.044 334.011 418.311L335.717 419Z" fill="#92BDD8"/>
<path fill-rule="evenodd" clip-rule="evenodd" d="M371.011 384.601C371.011 384.601 375.483 389.22 384.011 381.674C384.011 381.674 374.983 376.389 371.011 384.601Z" fill="#E0E6FF"/>
<path fill-rule="evenodd" clip-rule="evenodd" d="M367.361 389C367.361 389 372.316 384.865 365.052 376C365.052 376 359.177 384.59 367.361 389Z" fill="#617FF1"/>
<path fill-rule="evenodd" clip-rule="evenodd" d="M376.503 375C376.503 375 382.775 372.847 378.546 362C378.546 362 369.883 368.012 376.503 375Z" fill="#E0E6FF"/>
<path fill-rule="evenodd" clip-rule="evenodd" d="M359.011 398.788C359.011 398.788 361.46 404.974 372.011 400.177C372.011 400.177 365.614 391.788 359.011 398.788Z" fill="#617FF1"/>
<path fill-rule="evenodd" clip-rule="evenodd" d="M354.462 402C354.462 402 360.289 398.88 354.322 389C354.322 389 346.779 396.268 354.462 402Z" fill="#E0E6FF"/>
<path fill-rule="evenodd" clip-rule="evenodd" d="M348.011 408.231C348.011 408.231 350.35 413.417 361.011 409.594C361.011 409.594 354.758 402.512 348.011 408.231Z" fill="#617FF1"/>
<path fill-rule="evenodd" clip-rule="evenodd" d="M229.154 347C221.103 335.622 213.38 323.271 209.25 314.502C203.855 303.048 201.944 293.997 203.574 287.6C203.682 287.176 204.121 286.918 204.555 287.024C204.988 287.129 205.253 287.559 205.145 287.983C202.297 299.164 211.238 319.505 231.011 346.854L229.154 347Z" fill="#7878C4"/>
<path fill-rule="evenodd" clip-rule="evenodd" d="M205.011 303.446C205.011 303.446 199.447 306.943 194.011 296.367C194.011 296.367 203.964 293.566 205.011 303.446Z" fill="#617FF1"/>
<path fill-rule="evenodd" clip-rule="evenodd" d="M207.737 309C207.737 309 203.76 303.325 214.424 297C214.424 297 217.946 307.345 207.737 309Z" fill="#AAB9F4"/>
<path fill-rule="evenodd" clip-rule="evenodd" d="M203.818 292C203.818 292 198.675 288.06 205.741 279C205.741 279 211.956 287.335 203.818 292Z" fill="#617FF1"/>
<path fill-rule="evenodd" clip-rule="evenodd" d="M213.011 320.17C213.011 320.17 208.77 325.83 200.011 317.243C200.011 317.243 208.737 310.604 213.011 320.17Z" fill="#AAB9F4"/>
<path fill-rule="evenodd" clip-rule="evenodd" d="M216.279 325C216.279 325 211.465 320.425 220.594 313C220.594 313 225.791 321.914 216.279 325Z" fill="#AAB9F4"/>
<path fill-rule="evenodd" clip-rule="evenodd" d="M220.011 332.344C220.011 332.344 216.201 337.307 208.011 330.051C208.011 330.051 215.93 324.161 220.011 332.344Z" fill="#617FF1"/>
<path fill-rule="evenodd" clip-rule="evenodd" d="M378.707 232.004C374.223 231.901 371.204 233.682 368.581 235.463C365.305 237.689 362.649 239.914 358.535 238.464C351.128 235.853 343.942 238.723 343.229 245.632C342.516 252.543 342.378 257.669 333.996 258.216C325.615 258.763 318.872 266.969 323.54 272.589C324.701 273.989 325.961 275.502 327.198 276.984C327.537 277.389 327.873 277.792 328.204 278.189C328.28 278.282 328.356 278.375 328.434 278.465C333.409 284.427 342.105 285.802 348.541 281.465C351.146 279.71 353.091 277.231 353.181 273.736C353.466 262.793 362.337 269.638 368.498 265.055C375.596 259.778 371.956 252.106 377.634 248.753C385.532 244.089 388.793 232.237 378.707 232.004Z" fill="#617FF1"/>
<path fill-rule="evenodd" clip-rule="evenodd" d="M370.742 243.169L327.011 277.785C327.35 278.193 327.686 278.6 328.018 279L371.71 244.415C372.05 244.145 372.111 243.647 371.844 243.303C371.577 242.959 371.083 242.899 370.742 243.169Z" fill="#75ABD1"/>
<path fill-rule="evenodd" clip-rule="evenodd" d="M345.329 213.128C336.325 217.962 338.714 227.281 330.854 228.738C322.997 230.195 318.131 236.244 321.029 242.528C323.929 248.812 326.422 253.278 319.318 257.931C312.213 262.583 310.46 272.989 317.442 275.48C319.179 276.102 321.061 276.771 322.907 277.425C323.412 277.603 323.914 277.782 324.409 277.957C324.523 277.998 324.638 278.039 324.752 278.079C332.177 280.709 340.54 277.548 343.996 270.616C345.395 267.81 345.844 264.712 344.139 261.669C338.805 252.138 350.115 253.583 353.203 246.576C356.763 238.506 349.64 233.741 352.932 228.03C357.509 220.087 354.333 208.293 345.329 213.128Z" fill="#AAB9F4"/>
<path fill-rule="evenodd" clip-rule="evenodd" d="M343.506 226.487L323.011 277.471C323.504 277.648 323.995 277.825 324.479 278L344.955 227.062C345.115 226.665 344.92 226.214 344.52 226.055C344.12 225.897 343.666 226.09 343.506 226.487Z" fill="#92BDD8"/>
<path fill-rule="evenodd" clip-rule="evenodd" d="M212.806 347.768C222.075 351.698 220.69 361.222 228.501 361.899C236.31 362.575 241.667 368.125 239.479 374.673C237.289 381.222 235.311 385.92 242.708 389.858C250.107 393.793 252.87 403.992 246.316 407.163C244.685 407.955 242.918 408.807 241.184 409.641C240.71 409.869 240.239 410.096 239.775 410.319C239.667 410.372 239.559 410.424 239.452 410.475C232.479 413.83 224.005 411.504 219.932 404.935C218.283 402.276 217.532 399.234 218.886 396.033C223.12 386.007 212.24 388.562 208.519 381.884C204.231 374.192 210.692 368.739 206.904 363.372C201.637 355.907 203.537 343.837 212.806 347.768Z" fill="#617FF1"/>
<path fill-rule="evenodd" clip-rule="evenodd" d="M215.535 360.427L242.011 410.31C241.522 410.542 241.035 410.772 240.555 411L214.103 361.162C213.896 360.774 214.049 360.293 214.445 360.09C214.84 359.887 215.328 360.038 215.535 360.427Z" fill="#75ABD1"/>
<path fill-rule="evenodd" clip-rule="evenodd" d="M190.631 370.008C200.699 370.379 202.821 379.961 210.36 377.763C217.898 375.564 224.892 378.903 225.196 385.942C225.498 392.982 225.334 398.18 233.658 399.24C241.98 400.297 248.218 409.012 243.233 414.423C241.993 415.77 240.648 417.227 239.327 418.653C238.966 419.042 238.607 419.431 238.253 419.812C238.172 419.902 238.09 419.991 238.008 420.079C232.696 425.815 223.947 426.684 217.786 421.906C215.292 419.971 213.5 417.344 213.617 413.801C213.978 402.702 204.73 409.1 198.859 404.089C192.095 398.318 196.176 390.768 190.713 387.032C183.115 381.833 180.563 369.637 190.631 370.008Z" fill="#AAB9F4"/>
<path fill-rule="evenodd" clip-rule="evenodd" d="M197.317 381.201L239.011 418.833C238.648 419.225 238.287 419.616 237.932 420L196.276 382.402C195.951 382.109 195.92 381.602 196.208 381.271C196.495 380.939 196.992 380.907 197.317 381.201Z" fill="#92BDD8"/>
<path fill-rule="evenodd" clip-rule="evenodd" d="M431.958 431C433.567 423.777 441.541 429.041 447.235 424.893C454.446 419.642 450.748 412.006 456.517 408.67C464.54 404.029 467.854 392.236 457.607 392.004C447.361 391.773 444.639 401.031 437.114 398.432C429.59 395.834 422.289 398.69 421.565 405.564C420.841 412.442 420.7 417.542 412.186 418.087C404.354 418.586 397.93 425.536 400.643 431H431.958Z" fill="#617FF1"/>
<path fill-rule="evenodd" clip-rule="evenodd" d="M415.577 431L450.707 404.369C451.051 404.108 451.112 403.626 450.842 403.293C450.573 402.961 450.074 402.902 449.73 403.163L413.011 431H415.577Z" fill="#75ABD1"/>
<path fill-rule="evenodd" clip-rule="evenodd" d="M421.904 431C422.027 430.778 422.146 430.552 422.259 430.322C423.625 427.53 424.062 424.447 422.398 421.42C417.191 411.938 428.231 413.375 431.246 406.403C434.721 398.374 427.768 393.632 430.981 387.95C435.449 380.046 432.349 368.311 423.56 373.122C414.77 377.933 417.101 387.205 409.428 388.655C401.758 390.104 397.008 396.124 399.837 402.374C402.667 408.627 405.101 413.072 398.166 417.701C393.377 420.897 391.081 426.821 392.361 431H421.904Z" fill="#AAB9F4"/>
<path fill-rule="evenodd" clip-rule="evenodd" d="M405.731 431L423.953 387.054C424.117 386.659 423.918 386.212 423.509 386.055C423.099 385.898 422.635 386.089 422.471 386.483L404.011 431H405.731Z" fill="#92BDD8"/>
<path fill-rule="evenodd" clip-rule="evenodd" d="M342.816 433H230.206C227.889 433 226.011 431.119 226.011 428.799V264.201C226.011 261.881 227.889 260 230.206 260H342.816C345.133 260 347.011 261.881 347.011 264.201V428.799C347.011 431.119 345.133 433 342.816 433Z" fill="#274FED"/>
<path fill-rule="evenodd" clip-rule="evenodd" d="M334.803 423H239.218C236.895 423 235.011 421.118 235.011 418.795V249.205C235.011 246.883 236.895 245 239.218 245H334.803C337.126 245 339.011 246.883 339.011 249.205V418.796C339.011 421.118 337.126 423 334.803 423Z" fill="#002371"/>
<path fill-rule="evenodd" clip-rule="evenodd" d="M248.011 245H325.011C325.011 243.343 323.865 242 322.451 242H250.57C249.157 242 248.011 243.343 248.011 245Z" fill="#26203D"/>
<path fill-rule="evenodd" clip-rule="evenodd" d="M328.011 262.559V307.439C328.011 309.405 326.438 311 324.498 311H248.523C248.139 311 247.771 310.939 247.425 310.823C246.022 310.355 245.011 309.015 245.011 307.439V262.559C245.011 260.595 246.583 259 248.523 259H324.498C326.438 259 328.011 260.595 328.011 262.559Z" fill="#1A2F84"/>
<path fill-rule="evenodd" clip-rule="evenodd" d="M270.027 311H249.103C248.721 311 248.355 310.939 248.011 310.823L298.822 259H321.011L270.027 311Z" fill="#617FF1" fill-opacity="0.37"/>
<path fill-rule="evenodd" clip-rule="evenodd" d="M245.011 292V284.473L269.71 259H277.011L245.011 292Z" fill="#617FF1" fill-opacity="0.37"/>
<path fill-rule="evenodd" clip-rule="evenodd" d="M303.323 311H296.011L328.011 279V286.312L303.323 311Z" fill="#617FF1" fill-opacity="0.37"/>
<path fill-rule="evenodd" clip-rule="evenodd" d="M264.828 323H248.194C246.436 323 245.011 321.433 245.011 319.5C245.011 317.567 246.436 316 248.194 316H264.828C266.585 316 268.011 317.567 268.011 319.5C268.011 321.433 266.585 323 264.828 323Z" fill="#B4D2E4"/>
<path fill-rule="evenodd" clip-rule="evenodd" d="M294.828 323H278.194C276.436 323 275.011 321.433 275.011 319.5C275.011 317.567 276.436 316 278.194 316H294.828C296.585 316 298.011 317.567 298.011 319.5C298.011 321.433 296.585 323 294.828 323Z" fill="#B4D2E4"/>
<path fill-rule="evenodd" clip-rule="evenodd" d="M324.827 323H308.194C306.435 323 305.011 321.433 305.011 319.5C305.011 317.567 306.435 316 308.194 316H324.827C326.585 316 328.011 317.567 328.011 319.5C328.011 321.433 326.585 323 324.827 323Z" fill="#B4D2E4"/>
<path fill-rule="evenodd" clip-rule="evenodd" d="M266.192 343H245.829C244.825 343 244.011 342.086 244.011 340.961V331.039C244.011 329.913 244.825 329 245.829 329H266.192C267.196 329 268.011 329.913 268.011 331.039V340.961C268.011 342.086 267.196 343 266.192 343Z" fill="#B4D2E4"/>
<path fill-rule="evenodd" clip-rule="evenodd" d="M296.268 343H276.754C275.791 343 275.011 342.086 275.011 340.961V331.039C275.011 329.913 275.791 329 276.754 329H296.268C297.23 329 298.011 329.913 298.011 331.039V340.961C298.011 342.086 297.23 343 296.268 343Z" fill="#B4D2E4"/>
<path fill-rule="evenodd" clip-rule="evenodd" d="M327.192 343H306.83C305.825 343 305.011 342.086 305.011 340.961V331.039C305.011 329.913 305.825 329 306.83 329H327.192C328.196 329 329.011 329.913 329.011 331.039V340.961C329.011 342.086 328.196 343 327.192 343Z" fill="#B4D2E4"/>
<path fill-rule="evenodd" clip-rule="evenodd" d="M266.192 364H245.829C244.825 364 244.011 363.153 244.011 362.107V352.892C244.011 351.847 244.825 351 245.829 351H266.192C267.196 351 268.011 351.847 268.011 352.892V362.107C268.011 363.153 267.196 364 266.192 364Z" fill="#B4D2E4"/>
<path fill-rule="evenodd" clip-rule="evenodd" d="M296.268 364H276.754C275.791 364 275.011 363.153 275.011 362.107V352.892C275.011 351.847 275.791 351 276.754 351H296.268C297.23 351 298.011 351.847 298.011 352.892V362.107C298.011 363.153 297.23 364 296.268 364Z" fill="#B4D2E4"/>
<path fill-rule="evenodd" clip-rule="evenodd" d="M327.192 364H306.83C305.825 364 305.011 363.153 305.011 362.107V352.892C305.011 351.847 305.825 351 306.83 351H327.192C328.196 351 329.011 351.847 329.011 352.892V362.107C329.011 363.153 328.196 364 327.192 364Z" fill="#B4D2E4"/>
<path fill-rule="evenodd" clip-rule="evenodd" d="M266.192 386H245.829C244.825 386 244.011 385.088 244.011 383.962V374.038C244.011 372.912 244.825 372 245.829 372H266.192C267.196 372 268.011 372.912 268.011 374.038V383.962C268.011 385.088 267.196 386 266.192 386Z" fill="#B4D2E4"/>
<path fill-rule="evenodd" clip-rule="evenodd" d="M296.268 386H276.754C275.791 386 275.011 385.088 275.011 383.962V374.038C275.011 372.912 275.791 372 276.754 372H296.268C297.23 372 298.011 372.912 298.011 374.038V383.962C298.011 385.088 297.23 386 296.268 386Z" fill="#B4D2E4"/>
<path fill-rule="evenodd" clip-rule="evenodd" d="M327.192 386H306.83C305.825 386 305.011 385.088 305.011 383.962V374.038C305.011 372.912 305.825 372 306.83 372H327.192C328.196 372 329.011 372.912 329.011 374.038V383.962C329.011 385.088 328.196 386 327.192 386Z" fill="#B4D2E4"/>
<path fill-rule="evenodd" clip-rule="evenodd" d="M266.192 407H245.829C244.825 407 244.011 406.087 244.011 404.962V395.038C244.011 393.913 244.825 393 245.829 393H266.192C267.196 393 268.011 393.913 268.011 395.038V404.962C268.011 406.087 267.196 407 266.192 407Z" fill="#2C64A1"/>
<path fill-rule="evenodd" clip-rule="evenodd" d="M296.268 407H276.754C275.791 407 275.011 406.087 275.011 404.962V395.038C275.011 393.913 275.791 393 276.754 393H296.268C297.23 393 298.011 393.913 298.011 395.038V404.962C298.011 406.087 297.23 407 296.268 407Z" fill="#4F95C4"/>
<path fill-rule="evenodd" clip-rule="evenodd" d="M327.192 407H306.83C305.825 407 305.011 406.087 305.011 404.962V395.038C305.011 393.913 305.825 393 306.83 393H327.192C328.196 393 329.011 393.913 329.011 395.038V404.962C329.011 406.087 328.196 407 327.192 407Z" fill="#0A83BA"/>
<path fill-rule="evenodd" clip-rule="evenodd" d="M430.869 410L435.011 416.245C435.011 416.245 434.175 418.968 430.971 421L426.011 413.81L430.869 410Z" fill="#EB9684"/>
<path fill-rule="evenodd" clip-rule="evenodd" d="M404.489 332.8L407.657 370.577C407.657 370.577 412.821 376.898 416.535 383.9C419.651 389.778 433.011 410.841 433.011 410.841L426.263 416L392.599 377.225L386.011 332L404.489 332.8Z" fill="#191725"/>
<path fill-rule="evenodd" clip-rule="evenodd" d="M425.011 334C425.011 334 416.478 362.179 405.868 377.242C405.868 377.242 403.996 392.094 401.202 399.963C399.974 403.405 396.595 424 396.595 424L395.338 423.787L394.592 423.655L389.011 422.708L392.643 373.588L405.858 335.038L421.809 334.17L422.656 334.129L425.011 334Z" fill="#2F3046"/>
<path fill-rule="evenodd" clip-rule="evenodd" d="M423.011 334L403.951 377.263C403.943 377.316 400.98 389.109 399.269 397.411C397.738 404.795 395.46 417.663 394.781 424L394.011 423.868C394.699 417.47 396.933 404.816 398.5 397.256C400.217 388.947 403.189 377.138 403.215 377.016L422.135 334.041L423.011 334Z" fill="#191725"/>
<path fill-rule="evenodd" clip-rule="evenodd" d="M382.275 270L374.011 287L382.749 286.209C382.749 286.209 383.582 275.92 382.275 270Z" fill="#0A83BA"/>
<path fill-rule="evenodd" clip-rule="evenodd" d="M426.011 335.331C421.453 336.982 416.857 338.194 412.222 338.968C412.006 339 411.798 339.039 411.589 339.071C411.478 339.091 411.361 339.104 411.25 339.123C411.002 339.162 410.748 339.2 410.507 339.233C410.227 339.271 409.953 339.31 409.672 339.349C406.51 339.768 403.329 339.981 400.128 340C399.476 340 398.837 339.994 398.185 339.981H398.061C397.898 339.974 397.735 339.974 397.565 339.968C397.468 339.961 397.37 339.961 397.272 339.955C393.536 339.839 389.774 339.439 385.993 338.775C385.908 337.949 385.797 336.724 385.66 335.183C385.634 334.892 385.608 334.596 385.589 334.286C385.393 332.081 385.165 329.327 384.917 326.219C384.898 325.954 384.878 325.683 384.852 325.412C384.689 323.342 384.513 321.13 384.343 318.815C384.324 318.544 384.298 318.28 384.278 318.009C384.102 315.636 383.92 313.172 383.744 310.67C383.633 309.142 383.529 307.6 383.424 306.059C383.32 304.492 383.216 302.925 383.118 301.371C383.098 301.029 383.072 300.693 383.053 300.352C382.127 285.629 381.566 272.073 382.466 270.48C383.092 269.377 384.63 268.01 386.456 266.611C386.684 266.436 386.906 266.269 387.14 266.095C387.923 265.514 394.449 262.677 395.264 262.103L402.331 261L409.425 262.728C409.731 262.87 410.038 263.006 410.344 263.154C412.991 264.373 415.605 265.669 417.157 266.856C417.379 267.023 417.581 267.191 417.757 267.359C417.9 267.494 418.024 267.623 418.128 267.752C418.22 267.868 418.324 268.068 418.428 268.352C419.563 271.37 421.082 283.481 422.471 296.689C422.503 297.005 422.529 297.321 422.568 297.637C422.601 297.953 422.634 298.269 422.666 298.585C422.699 298.907 422.731 299.223 422.764 299.539C422.803 299.958 422.849 300.377 422.894 300.803C422.92 301.087 422.953 301.384 422.979 301.667C422.992 301.816 423.005 301.957 423.025 302.099C423.038 302.203 423.044 302.312 423.057 302.415C423.116 303.028 423.175 303.641 423.233 304.253C423.292 304.782 423.344 305.304 423.396 305.833C423.898 311.025 424.368 316.1 424.765 320.582C424.883 321.853 424.994 323.071 425.091 324.232C425.111 324.497 425.137 324.768 425.157 325.025C425.567 329.804 425.874 333.512 426.011 335.331Z" fill="#4F95C4"/>
<path fill-rule="evenodd" clip-rule="evenodd" d="M425.011 320.279C419.118 328.85 411.718 335 411.718 335L410.011 322.685C412.393 317.839 417.925 307.325 422.821 297C422.854 297.321 422.886 297.641 422.919 297.962C422.951 298.289 422.984 298.61 423.016 298.93C423.055 299.355 423.101 299.781 423.146 300.212C423.172 300.5 423.205 300.801 423.231 301.089C423.244 301.24 423.257 301.384 423.276 301.528C423.289 301.632 423.295 301.743 423.308 301.848C423.367 302.47 423.425 303.091 423.484 303.713C423.542 304.249 423.594 304.779 423.646 305.316C424.147 310.583 424.614 315.732 425.011 320.279Z" fill="#0A83BA"/>
<path fill-rule="evenodd" clip-rule="evenodd" d="M393.917 283L386.011 283.222C386.011 283.222 386.547 292.613 390.707 291.968C394.868 291.323 393.917 283 393.917 283Z" fill="#0A83BA"/>
<path fill-rule="evenodd" clip-rule="evenodd" d="M416.675 324.907L416.673 324.907C409.04 325.577 402.226 322.485 397.854 319.773C393.125 316.84 390.149 313.7 390.119 313.67C389.975 313.516 389.975 313.268 390.119 313.115C390.263 312.962 390.496 312.962 390.64 313.115C390.669 313.145 393.591 316.225 398.243 319.107C402.52 321.756 409.179 324.779 416.612 324.125C416.816 324.108 416.993 324.268 417.009 324.484C417.027 324.699 416.877 324.889 416.675 324.907Z" fill="#0A83BA"/>
<path fill-rule="evenodd" clip-rule="evenodd" d="M409.067 327.922C402.456 328.571 395.537 324.959 395.223 324.793C395.039 324.695 394.959 324.448 395.045 324.239C395.131 324.032 395.351 323.942 395.534 324.039C395.616 324.083 403.757 328.329 410.573 326.849C410.775 326.802 410.966 326.952 411.004 327.178C411.042 327.404 410.912 327.622 410.712 327.665C410.169 327.783 409.619 327.867 409.067 327.922Z" fill="#0A83BA"/>
<path fill-rule="evenodd" clip-rule="evenodd" d="M397.011 316.484L401.2 327L405.011 316.889L400.451 274.692L400.278 273.103L398.465 273L397.011 316.484Z" fill="#FFFFFE"/>
<path fill-rule="evenodd" clip-rule="evenodd" d="M398.011 275.688L399.401 277L401.011 275.096L400.759 273.127L398.116 273L398.011 275.688Z" fill="#ECECEB"/>
<path fill-rule="evenodd" clip-rule="evenodd" d="M403.011 271.313L399.169 275L396.011 271.013L398.326 267L403.011 271.313Z" fill="#FFFFFE"/>
<path fill-rule="evenodd" clip-rule="evenodd" d="M403.509 260L404.763 260.662C405.109 260.844 405.446 261.036 405.768 261.249C406.736 261.892 407.104 262.358 406.991 263.633C406.973 263.83 406.943 264.002 406.903 264.139L405.595 274L398.011 266.409C398.011 266.409 402.79 264.453 403.509 260Z" fill="#0A83BA"/>
<path fill-rule="evenodd" clip-rule="evenodd" d="M395.457 261C395.457 261 393.327 263.831 394.237 266.855L395.682 272L398.011 266.219C398.011 266.219 395.948 265.017 395.457 261Z" fill="#0A83BA"/>
<path fill-rule="evenodd" clip-rule="evenodd" d="M407.958 241.998C408.479 247.988 405.146 252.435 399.149 252.955C393.152 253.476 388.587 249.401 388.066 243.412C387.545 237.423 390.702 232.577 396.698 232.057C403.89 231.433 407.436 236.009 407.958 241.998Z" fill="#313152"/>
<path fill-rule="evenodd" clip-rule="evenodd" d="M408.186 246C408.186 246 409.417 244.252 408.871 240.082C408.327 235.913 406.8 234.846 406.8 234.846C406.8 234.846 408.316 231.698 406.593 230.958C404.871 230.219 403.525 231.222 403.525 231.222C403.525 231.222 404.564 229.269 403.34 229.107C402.116 228.947 400.485 230.196 400.485 230.196C400.485 230.196 391.664 227.76 389.159 229.84C386.654 231.92 388.917 237.277 389.676 237.835L408.186 246Z" fill="#313152"/>
<path fill-rule="evenodd" clip-rule="evenodd" d="M407.187 244.268C407.187 244.268 408.827 241.905 410.384 243.631C411.941 245.358 410.516 250.926 407.011 249.867L407.187 244.268Z" fill="#E57563"/>
<path fill-rule="evenodd" clip-rule="evenodd" d="M407.324 249C407.451 248.988 407.559 248.886 407.583 248.743C407.947 246.632 409.829 245.612 409.847 245.601C409.991 245.526 410.051 245.337 409.982 245.179C409.913 245.022 409.741 244.956 409.597 245.031C409.509 245.078 407.435 246.196 407.016 248.625C406.987 248.798 407.089 248.963 407.246 248.995L407.324 249Z" fill="#BA4F49"/>
<path fill-rule="evenodd" clip-rule="evenodd" d="M408.846 247.998L408.941 247.904C409.02 247.749 409.034 247.46 408.973 247.26C408.963 247.226 408.719 246.439 408.25 246.026C408.157 245.942 408.054 246.07 408.021 246.309C407.988 246.548 408.038 246.81 408.132 246.893C408.494 247.212 408.685 247.815 408.687 247.822C408.726 247.95 408.787 248.011 408.846 247.998Z" fill="#BA4F49"/>
<path fill-rule="evenodd" clip-rule="evenodd" d="M389.716 245.998C389.716 245.998 387.574 243.846 386.33 245.861C385.087 247.877 387.648 253.34 391.011 251.696L389.716 245.998Z" fill="#E57563"/>
<path fill-rule="evenodd" clip-rule="evenodd" d="M389.785 249.999C389.676 250.01 389.571 249.941 389.531 249.824C388.938 248.097 387.209 247.539 387.192 247.533C387.06 247.492 386.983 247.342 387.02 247.198C387.057 247.054 387.194 246.969 387.326 247.01C387.406 247.035 389.311 247.644 389.995 249.632C390.043 249.773 389.978 249.929 389.85 249.983L389.785 249.999Z" fill="#BA4F49"/>
<path fill-rule="evenodd" clip-rule="evenodd" d="M388.225 249L388.116 248.978C388.02 248.925 387.983 248.802 388.033 248.703C388.042 248.686 388.246 248.296 388.718 248.026C388.813 247.971 388.933 248.006 388.986 248.104C389.039 248.203 389.004 248.326 388.91 248.38C388.545 248.59 388.384 248.889 388.382 248.893C388.35 248.956 388.289 248.994 388.225 249Z" fill="#BA4F49"/>
<path fill-rule="evenodd" clip-rule="evenodd" d="M395.011 256.323L395.513 262.003C395.513 262.003 395.205 267.385 399.597 266.978C401.931 266.761 404.011 261.88 404.011 261.88L403.492 256L395.011 256.323Z" fill="#EB9582"/>
<path fill-rule="evenodd" clip-rule="evenodd" d="M395.011 256.305L395.213 258.687C396.771 260.173 399.327 260.351 403.011 259.456L402.717 256L395.011 256.305Z" fill="#E57563"/>
<path fill-rule="evenodd" clip-rule="evenodd" d="M388.063 242.761C388.35 244.866 388.786 247.492 389.379 249.571C389.528 250.09 389.686 250.576 389.853 251.009C391.362 254.918 394.86 261.543 402.71 257.983C406.177 256.412 407.489 252.326 407.876 248.252C408.138 245.485 407.972 242.727 407.763 240.763C407.548 238.758 406.279 237.019 404.427 236.181C399.409 233.91 394.451 235.344 391.239 236.893C389.01 237.967 387.732 240.335 388.063 242.761Z" fill="#EB9582"/>
<path fill-rule="evenodd" clip-rule="evenodd" d="M401.02 245.055C401.095 245.606 401.598 246.029 402.146 245.998C402.694 245.968 403.076 245.496 403.001 244.945C402.927 244.394 402.423 243.971 401.875 244.002C401.328 244.032 400.945 244.504 401.02 245.055Z" fill="#313152"/>
<path fill-rule="evenodd" clip-rule="evenodd" d="M393.02 246.055C393.095 246.607 393.599 247.029 394.146 246.998C394.693 246.968 395.077 246.496 395.001 245.945C394.926 245.393 394.422 244.971 393.875 245.002C393.328 245.032 392.946 245.504 393.02 246.055Z" fill="#313152"/>
<path fill-rule="evenodd" clip-rule="evenodd" d="M392.072 242.742C392.072 242.742 394.227 241.534 396.011 242.2L395.922 243.291C395.922 243.291 393.381 243.297 392.155 244C392.009 243.598 391.96 243.182 392.072 242.742Z" fill="#313152"/>
<path fill-rule="evenodd" clip-rule="evenodd" d="M404.856 241.363C404.856 241.363 402.617 240.378 401.011 241.654L401.259 243C401.259 243 403.688 242.381 404.965 242.959C405.044 242.419 405.029 241.886 404.856 241.363Z" fill="#313152"/>
<path fill-rule="evenodd" clip-rule="evenodd" d="M398.369 249.999C399.013 250.014 399.66 249.862 399.762 249.837C399.958 249.789 400.06 249.642 399.987 249.511C399.915 249.378 399.694 249.311 399.497 249.359C399.147 249.444 398.312 249.571 397.961 249.42C397.893 249.39 397.802 249.333 397.786 249.178C397.694 248.286 398.215 245.315 398.221 245.285C398.245 245.145 398.096 245.018 397.885 245.002C397.676 244.985 397.488 245.085 397.462 245.225C397.441 245.349 396.928 248.274 397.022 249.213C397.06 249.566 397.328 249.753 397.546 249.848C397.785 249.951 398.077 249.992 398.369 249.999Z" fill="#E57563"/>
<path fill-rule="evenodd" clip-rule="evenodd" d="M402.011 252C401.884 252.977 401.315 254.799 398.785 254.985C396.248 255.171 395.37 253.608 395.011 252.514L402.011 252Z" fill="#FFFFFE"/>
<path fill-rule="evenodd" clip-rule="evenodd" d="M399.593 256.992C398.856 257.054 398.198 256.745 398.17 256.732C398.029 256.663 397.97 256.497 398.041 256.359C398.11 256.222 398.281 256.165 398.424 256.233C398.428 256.236 398.969 256.488 399.544 256.439C400.071 256.395 400.549 256.058 400.554 256.055C400.681 255.964 400.86 255.988 400.954 256.111C401.048 256.235 401.022 256.408 400.896 256.5C400.871 256.518 400.289 256.933 399.593 256.992Z" fill="#E57563"/>
<path fill-rule="evenodd" clip-rule="evenodd" d="M388.671 246L389.855 245.903C389.62 244.79 389.928 243.398 390.202 242.464C390.822 240.347 389.017 239.584 390.315 238.443C391.612 237.299 395.118 237.455 397.522 237.184C399.94 236.91 403.84 236.623 404.805 236.752C405.772 236.879 405.389 238.41 405.148 239.591C404.903 240.77 406.532 241.92 406.896 243.091C407 243.427 407.032 243.937 407.025 244.493L408.011 244.412C407.995 242.951 407.888 241.599 407.767 240.505C407.551 238.59 406.282 236.929 404.43 236.128C399.411 233.959 394.452 235.329 391.24 236.809C389.01 237.835 387.732 240.096 388.063 242.414C388.221 243.516 388.423 244.767 388.671 246Z" fill="#313152"/>
<path fill-rule="evenodd" clip-rule="evenodd" d="M393.791 244.477C392.4 244.598 391.367 245.828 391.487 247.219C391.609 248.61 392.838 249.644 394.23 249.523C395.621 249.402 396.654 248.172 396.533 246.781C396.412 245.39 395.183 244.356 393.791 244.477ZM394.27 249.989C392.622 250.132 391.165 248.908 391.022 247.26C390.879 245.612 392.103 244.155 393.751 244.011C395.398 243.868 396.856 245.092 396.999 246.74C397.143 248.388 395.918 249.845 394.27 249.989Z" fill="#FFFFFE"/>
<path fill-rule="evenodd" clip-rule="evenodd" d="M401.792 243.477C400.401 243.598 399.367 244.828 399.488 246.219C399.609 247.61 400.839 248.643 402.23 248.523C403.621 248.402 404.655 247.172 404.534 245.781C404.413 244.39 403.183 243.356 401.792 243.477ZM402.27 248.989C400.623 249.131 399.166 247.908 399.022 246.26C398.879 244.612 400.103 243.154 401.752 243.011C403.4 242.868 404.856 244.092 404.999 245.74C405.143 247.388 403.919 248.845 402.27 248.989Z" fill="#FFFFFE"/>
<path fill-rule="evenodd" clip-rule="evenodd" d="M391.793 245.999C391.732 246.003 391.67 245.99 391.619 245.959C391.605 245.95 390.103 245.042 388.323 245.473C388.198 245.504 388.063 245.453 388.023 245.36C387.981 245.267 388.05 245.167 388.175 245.136C390.211 244.643 391.856 245.644 391.925 245.687C392.026 245.75 392.04 245.861 391.955 245.936C391.913 245.974 391.854 245.995 391.793 245.999Z" fill="#FFFFFE"/>
<path fill-rule="evenodd" clip-rule="evenodd" d="M405.252 244.999C405.18 245.006 405.106 244.974 405.058 244.906C404.982 244.799 404.999 244.644 405.096 244.56C405.175 244.491 407.072 242.862 408.806 243.009C408.928 243.02 409.019 243.138 409.01 243.274C409 243.409 408.894 243.51 408.771 243.5C407.211 243.367 405.388 244.932 405.37 244.948L405.252 244.999Z" fill="#FFFFFE"/>
<path fill-rule="evenodd" clip-rule="evenodd" d="M399.578 245.674C399.571 245.664 398.817 244.613 397.928 244.708C397.049 244.802 396.519 245.989 396.513 246L396.011 245.67C396.038 245.607 396.689 244.136 397.879 244.009C399.061 243.883 399.972 245.161 400.011 245.216L399.578 245.674Z" fill="#FFFFFE"/>
<path fill-rule="evenodd" clip-rule="evenodd" d="M418 285.037L414.559 332.415C414.405 334.545 412.563 336.146 410.448 335.989L330.57 330.104C329.618 330.034 328.77 329.617 328.142 328.989C327.378 328.221 326.936 327.134 327.021 325.964L330.461 278.586C330.617 276.456 332.457 274.854 334.571 275.01L414.449 280.896C416.564 281.052 418.155 282.906 418 285.037Z" fill="#1469C5"/>
<path fill-rule="evenodd" clip-rule="evenodd" d="M418.011 290.469L417.242 301L329.011 294.531L329.779 284L418.011 290.469Z" fill="#313152"/>
<path fill-rule="evenodd" clip-rule="evenodd" d="M408.486 328L388.011 326.618L388.535 320L409.011 321.382L408.486 328Z" fill="#4F95C4"/>
<path fill-rule="evenodd" clip-rule="evenodd" d="M339.39 307.999L334.381 307.612C334.161 307.594 333.996 307.392 334.012 307.16L334.203 304.392C334.219 304.159 334.411 303.984 334.631 304.001L339.64 304.389C339.86 304.406 340.025 304.608 340.01 304.84L339.818 307.609C339.802 307.841 339.61 308.016 339.39 307.999Z" fill="#4F95C4"/>
<path fill-rule="evenodd" clip-rule="evenodd" d="M351.287 308.999L345.443 308.612C345.186 308.594 344.993 308.392 345.012 308.159L345.235 305.391C345.254 305.159 345.477 304.984 345.735 305.001L351.578 305.388C351.835 305.406 352.028 305.608 352.01 305.84L351.786 308.609C351.767 308.841 351.544 309.016 351.287 308.999Z" fill="#4F95C4"/>
<path fill-rule="evenodd" clip-rule="evenodd" d="M363.287 309.999L357.443 309.515C357.187 309.493 356.994 309.24 357.012 308.949L357.236 305.489C357.254 305.198 357.478 304.98 357.735 305.001L363.579 305.485C363.836 305.507 364.028 305.76 364.009 306.05L363.786 309.51C363.767 309.801 363.543 310.019 363.287 309.999Z" fill="#4F95C4"/>
<path fill-rule="evenodd" clip-rule="evenodd" d="M375.287 310.999L369.443 310.514C369.185 310.493 368.993 310.24 369.012 309.949L369.235 306.49C369.254 306.199 369.477 305.981 369.734 306.001L375.579 306.486C375.835 306.508 376.028 306.76 376.009 307.051L375.786 310.51C375.767 310.801 375.544 311.019 375.287 310.999Z" fill="#4F95C4"/>
<path fill-rule="evenodd" clip-rule="evenodd" d="M387.287 311.999L381.443 311.514C381.186 311.493 380.993 311.24 381.012 310.949L381.235 307.49C381.254 307.199 381.478 306.981 381.734 307.001L387.578 307.486C387.835 307.507 388.028 307.76 388.01 308.051L387.786 311.51C387.767 311.801 387.544 312.019 387.287 311.999Z" fill="#4F95C4"/>
<path fill-rule="evenodd" clip-rule="evenodd" d="M398.287 311.999L392.443 311.612C392.187 311.594 391.994 311.392 392.012 311.16C392.012 311.16 392.217 308.625 392.236 308.392C392.254 308.159 392.477 307.984 392.735 308.001L398.579 308.388C398.836 308.406 399.029 308.608 399.009 308.841L398.787 311.609C398.767 311.841 398.544 312.016 398.287 311.999Z" fill="#4F95C4"/>
<path fill-rule="evenodd" clip-rule="evenodd" d="M410.288 312.999L404.443 312.612C404.187 312.594 403.994 312.392 404.012 312.16L404.236 309.391C404.254 309.159 404.478 308.984 404.735 309.001L410.579 309.388C410.835 309.406 411.028 309.608 411.01 309.84L410.786 312.609C410.767 312.841 410.544 313.016 410.288 312.999Z" fill="#4F95C4"/>
<path fill-rule="evenodd" clip-rule="evenodd" d="M418.011 285.097L417.864 287L330.011 280.903L330.157 279L418.011 285.097Z" fill="#4F95C4"/>
<path fill-rule="evenodd" clip-rule="evenodd" d="M342.657 324.996L333.462 324.323C332.6 324.26 331.952 323.509 332.015 322.646L332.688 313.453C332.751 312.59 333.501 311.941 334.364 312.004L343.558 312.677C344.421 312.74 345.069 313.49 345.007 314.354L344.334 323.547C344.271 324.411 343.52 325.059 342.657 324.996Z" fill="#4F95C4"/>
<path fill-rule="evenodd" clip-rule="evenodd" d="M383.793 324.997L347.992 322.311C347.41 322.268 346.972 321.748 347.014 321.15L347.095 320.006C347.138 319.409 347.645 318.959 348.229 319.003L384.029 321.689C384.612 321.732 385.05 322.252 385.008 322.85L384.926 323.994C384.884 324.591 384.376 325.041 383.793 324.997Z" fill="#4F95C4"/>
<path fill-rule="evenodd" clip-rule="evenodd" d="M328.146 329C327.442 328.291 327.01 327.312 327.011 326.246C327.011 326.151 327.014 326.055 327.021 325.959L328.231 309.251L333.698 304.483L333.499 307.236C333.48 307.493 333.671 307.716 333.925 307.735L339.712 308.162C339.724 308.164 339.735 308.164 339.746 308.164C339.986 308.164 340.189 307.977 340.206 307.732L340.428 304.677C340.446 304.42 340.255 304.197 340.001 304.179L334.512 303.773L343.586 295.86L364.385 297.397L352.053 308.151L352.242 305.55C352.26 305.293 352.069 305.07 351.815 305.051L346.029 304.624C346.017 304.623 346.006 304.623 345.995 304.623C345.755 304.623 345.552 304.809 345.534 305.054L345.313 308.109C345.294 308.365 345.485 308.589 345.74 308.608L351.077 309.002L344.85 314.432C344.845 313.649 344.245 312.989 343.458 312.93L334.64 312.279C334.602 312.277 334.565 312.275 334.528 312.275C333.749 312.275 333.089 312.884 333.032 313.682L332.387 322.584C332.329 323.379 332.889 324.076 333.656 324.195L328.146 329ZM375.604 287.612L354.805 286.077L358.598 282.768L379.397 284.304L375.604 287.612ZM381.548 282.429L360.75 280.892L365.213 277L381.922 278.234L382.32 278.263L386.011 278.536L381.548 282.429Z" fill="#2C7CB3"/>
<path fill-rule="evenodd" clip-rule="evenodd" d="M364.798 297L344.011 295.507L355.223 286L376.011 287.492L364.798 297Z" fill="#45516F"/>
<path fill-rule="evenodd" clip-rule="evenodd" d="M339.42 308C339.41 308 339.4 308 339.39 307.999L334.381 307.61C334.161 307.592 333.996 307.389 334.012 307.155L334.185 304.646L334.889 304L339.64 304.37C339.86 304.386 340.025 304.59 340.01 304.823L339.818 307.607C339.803 307.83 339.627 308 339.42 308Z" fill="#6AA5CD"/>
<path fill-rule="evenodd" clip-rule="evenodd" d="M350.833 309L345.443 308.64C345.186 308.623 344.993 308.419 345.012 308.184L345.235 305.394C345.254 305.17 345.458 305 345.701 305C345.712 305 345.723 305 345.735 305.001L351.578 305.391C351.835 305.409 352.028 305.613 352.01 305.847L351.819 308.223L350.833 309Z" fill="#6AA5CD"/>
<path fill-rule="evenodd" clip-rule="evenodd" d="M378.949 285L359.011 283.199L361.073 281L381.011 282.801L378.949 285Z" fill="#6AA5CD"/>
<path fill-rule="evenodd" clip-rule="evenodd" d="M333.338 324C332.539 323.88 331.955 323.179 332.015 322.379L332.688 313.416C332.748 312.613 333.435 312 334.248 312C334.287 312 334.325 312.002 334.364 312.005L343.559 312.66C344.379 312.719 345.005 313.383 345.011 314.172L333.338 324Z" fill="#6AA5CD"/>
<path fill-rule="evenodd" clip-rule="evenodd" d="M355.719 332L346.011 331.187L355.302 322L365.011 322.813L355.719 332Z" fill="#2C7CB3"/>
<path fill-rule="evenodd" clip-rule="evenodd" d="M414.011 281L404.011 280L414.011 281Z" fill="#6AA5CD"/>
<path fill-rule="evenodd" clip-rule="evenodd" d="M369.041 320L359.011 319.259L369.55 310.058L375.204 310.476C375.216 310.477 375.227 310.477 375.238 310.477C375.474 310.477 375.673 310.293 375.691 310.051L375.909 307.038C375.928 306.785 375.739 306.564 375.489 306.546L373.723 306.415L382.666 298.608L392.696 299.35L383.753 307.157L381.43 306.985C381.419 306.984 381.407 306.983 381.396 306.983C381.161 306.983 380.96 307.168 380.943 307.41L380.773 309.758L369.041 320ZM403.753 289.696L393.723 288.955L397.463 285.691L407.492 286.433L403.753 289.696ZM409.612 284.582L399.582 283.84L403.981 280L414.011 280.742L409.612 284.582Z" fill="#2C7CB3"/>
<path fill-rule="evenodd" clip-rule="evenodd" d="M392.999 300L383.011 299.215L394.022 289L404.011 289.785L392.999 300Z" fill="#45516F"/>
<path fill-rule="evenodd" clip-rule="evenodd" d="M375.271 311C375.259 311 375.246 311 375.233 310.999L369.011 310.588L373.603 307L375.547 307.129C375.823 307.147 376.03 307.364 376.009 307.613L375.769 310.58C375.75 310.819 375.531 311 375.271 311Z" fill="#6AA5CD"/>
<path fill-rule="evenodd" clip-rule="evenodd" d="M381.011 310L381.182 307.461C381.199 307.199 381.401 307 381.638 307C381.649 307 381.661 307.001 381.672 307.001L384.011 307.188L381.011 310Z" fill="#6AA5CD"/>
<path fill-rule="evenodd" clip-rule="evenodd" d="M407.917 287L398.011 286.141L400.104 284L410.011 284.859L407.917 287Z" fill="#6AA5CD"/>
<path fill-rule="evenodd" clip-rule="evenodd" d="M365.433 323L355.011 322.208L358.588 319L369.011 319.791L365.433 323Z" fill="#6AA5CD"/>
<path fill-rule="evenodd" clip-rule="evenodd" d="M360.011 330.081L359.052 331C359.052 331 356.303 330.835 356.045 329.886C355.95 329.537 356.05 329.159 356.39 329L360.011 330.081Z" fill="#E57563"/>
<path fill-rule="evenodd" clip-rule="evenodd" d="M361.179 336.971C359.634 337.154 358.089 336.454 357.387 335.165C357.015 334.479 356.854 333.602 357.208 332.51C358.272 329.235 360.247 326.931 361.612 327.613C362.124 327.868 362.023 329.804 361.324 331.202C361.324 331.202 362.33 329.69 362.816 327.939C363.302 326.188 365.639 327.036 365.044 329.243C364.449 331.449 364.189 331.77 364.189 331.77C364.189 331.77 365.278 330.097 365.429 329.006C365.58 327.916 367.428 328.218 367.022 330.346C366.835 331.331 366.612 332.462 366.612 332.462C366.612 332.462 367.147 331.058 367.431 330.33C367.716 329.604 368.798 329.15 368.955 330.745C369.078 331.999 369.159 335.411 367.338 335.971C366.099 336.353 363.02 336.754 361.179 336.971Z" fill="#EB9582"/>
<path fill-rule="evenodd" clip-rule="evenodd" d="M391.012 334.126C390.938 332.991 393.447 333.06 394.678 332.39C395.908 331.716 398.775 329.482 398.233 328.907C397.692 328.333 396.864 327.908 396.314 327.546C395.763 327.186 395.351 326.134 395.953 326.011C396.557 325.892 398.492 326.738 399.283 327.338C399.563 327.554 400.083 328.258 400.422 328.627C400.955 329.211 401.611 329.587 402.33 329.661C402.994 328.988 403.711 328.226 404.174 327.861C405.202 327.923 408.696 330.317 407.891 332.308C406.995 333.518 405.641 334.901 405.641 334.901C400.795 339.227 397.949 339.015 396.779 338.992C395.608 338.968 395.379 337.737 395.379 337.737C394.305 337.483 394.297 336.468 394.297 336.468C392.631 336.054 392.868 334.951 392.868 334.951C392.868 334.951 391.087 335.262 391.012 334.126Z" fill="#EB9582"/>
<path fill-rule="evenodd" clip-rule="evenodd" d="M426.779 312.223C426.779 312.223 422.575 325.29 408.783 333L404.011 328.684C404.011 328.684 413.683 320.875 418.116 309.254C418.148 309.169 418.186 309.077 418.218 308.986L418.161 308.587L413.267 276.025C413.267 276.025 413.708 272.284 418.04 267C418.04 267 428.702 284.422 426.779 312.223Z" fill="#4F95C4"/>
<path fill-rule="evenodd" clip-rule="evenodd" d="M421.967 310.854C421.91 310.951 421.802 311 421.694 311L421.535 310.963C420.589 310.439 419.046 309.933 418.011 309.622C418.042 309.543 418.081 309.457 418.112 309.372L418.055 309C419.116 309.305 420.805 309.848 421.853 310.433C422.005 310.518 422.056 310.707 421.967 310.854Z" fill="#0A83BA"/>
</g>
</g>
<defs>
<clipPath id="clip0">
<rect width="477" height="318" fill="white" transform="translate(67 157)"/>
</clipPath>
</defs>
</svg>
