<svg width="24" height="24" viewBox="0 0 24 24" fill="none" xmlns="http://www.w3.org/2000/svg">
<path fill-rule="evenodd" clip-rule="evenodd" d="M21.6 0H2.4C1.08 0 0 1.08 0 2.4V21.6C0 22.92 1.08 24 2.4 24H21.6C22.92 24 24 22.92 24 21.6V2.4C24 1.08 22.92 0 21.6 0ZM19.04 9.17922C18.92 14.6992 15.44 18.5392 10.16 18.7792C8 18.8992 6.44 18.1792 5 17.3392C6.56 17.5792 8.6 16.9792 9.68 16.0192C8.12 15.8992 7.16 15.0592 6.68 13.7392C7.16 13.8592 7.64 13.7392 8 13.7392C6.56 13.2592 5.6 12.4192 5.48 10.4992C5.84 10.7392 6.32 10.8592 6.8 10.8592C5.72 10.2592 5 7.97922 5.84 6.53922C7.4 8.21922 9.32 9.65922 12.44 9.89922C11.6 6.53922 16.16 4.73922 17.96 7.01922C18.8 6.89922 19.4 6.53922 20 6.29922C19.76 7.13922 19.28 7.61922 18.68 8.09922C19.28 7.97922 19.88 7.85922 20.36 7.61922C20.24 8.21922 19.64 8.69922 19.04 9.17922Z" fill="white"/>
</svg>
