<svg width="1440" height="183" viewBox="0 0 1440 183" fill="none" xmlns="http://www.w3.org/2000/svg">
<path d="M0 116.892L24 102.315C48 87.4639 96 58.7202 144 58.5149C192 58.7202 240 87.4639 288 80.4149C336 73.0921 384 29.2921 432 21.9692C480 14.9202 528 43.6639 576 65.7692C624 87.4639 672 102.52 720 105.942C768 109.364 816 102.52 864 80.4149C912 58.7202 960 21.7639 1008 7.39206C1056 -6.97981 1104 -0.136066 1152 25.6649C1200 51.1921 1248 94.9921 1296 116.892C1344 138.792 1392 138.792 1416 138.792H1440V182.592H1416C1392 182.592 1344 182.592 1296 182.592C1248 182.592 1200 182.592 1152 182.592C1104 182.592 1056 182.592 1008 182.592C960 182.592 912 182.592 864 182.592C816 182.592 768 182.592 720 182.592C672 182.592 624 182.592 576 182.592C528 182.592 480 182.592 432 182.592C384 182.592 336 182.592 288 182.592C240 182.592 192 182.592 144 182.592C96 182.592 48 182.592 24 182.592H0V116.892Z" fill="#1238CE" fill-opacity="0.25"/>
</svg>
